<?xml version="1.0" encoding="UTF-8"?> <svg xmlns="http://www.w3.org/2000/svg" width="40" height="40" viewBox="0 0 40 40" fill="none"><path d="M23.6 10.3403C23.28 12.0403 21.7933 13.3337 20 13.3337C22.6733 13.3337 25.0067 14.4337 25.6667 16.0003H14.3333C14.9933 14.4337 17.3267 13.3337 20 13.3337C18.2067 13.3337 16.7133 12.047 16.4 10.3403H4V35.8203C4 37.027 4.98 38.007 6.18667 38.007H33.8133C35.02 38.007 36 37.027 36 35.8203V10.3403H23.6ZM30 26.987C30 28.2803 28.9533 29.327 27.66 29.327C28.9533 29.327 30 30.3737 30 31.667C30 32.9603 28.9533 34.007 27.66 34.007H12.34C11.0467 34.007 10 32.9603 10 31.667C10 30.3737 11.0467 29.327 12.34 29.327C11.0467 29.327 10 28.2803 10 26.987C10 25.6937 11.0467 24.647 12.34 24.647C11.0467 24.647 10 23.6003 10 22.307C10 21.0137 11.0467 19.967 12.34 19.967H27.6667C28.96 19.967 30.0067 21.0137 30.0067 22.307C30.0067 23.6003 28.96 24.647 27.6667 24.647C28.96 24.647 30.0067 25.6937 30.0067 26.987H30Z" fill="#CEDAFA"></path><path d="M33.96 1.31348H6.01331C4.51997 1.31348 3.30664 2.52681 3.30664 4.02014V35.9668C3.30664 37.4601 4.51997 38.6735 6.01331 38.6735H33.96C35.4533 38.6735 36.6666 37.4601 36.6666 35.9668V4.02014C36.6666 2.52681 35.4533 1.31348 33.96 1.31348ZM35.3333 35.9668C35.3333 36.7268 34.72 37.3401 33.96 37.3401H6.01331C5.25331 37.3401 4.63997 36.7268 4.63997 35.9668V4.02014C4.63997 3.26014 5.25331 2.64681 6.01331 2.64681H33.96C34.72 2.64681 35.3333 3.26014 35.3333 4.02014V35.9668Z" fill="#0B1736"></path><path d="M14.073 16.6133C14.413 16.7533 14.8063 16.6 14.9463 16.26C15.4996 14.9533 17.6196 14 19.9996 14C22.3796 14 24.4996 14.9467 25.053 16.26C25.1596 16.5133 25.4063 16.6667 25.6663 16.6667C25.753 16.6667 25.8396 16.6467 25.9263 16.6133C26.2663 16.4733 26.4263 16.08 26.2796 15.74C25.7596 14.5 24.433 13.5333 22.713 13.0333C23.6996 12.24 24.333 11.02 24.333 9.65999C24.333 7.27333 22.3863 5.32666 19.9996 5.32666C17.613 5.32666 15.6663 7.27333 15.6663 9.65999C15.6663 11.02 16.2996 12.2333 17.2863 13.0333C15.5663 13.5333 14.2463 14.4933 13.7196 15.7333C13.5796 16.0733 13.733 16.4667 14.073 16.6067V16.6133ZM16.9996 9.66666C16.9996 8.01333 18.3463 6.66666 19.9996 6.66666C21.653 6.66666 22.9996 8.01333 22.9996 9.66666C22.9996 11.32 21.653 12.6667 19.9996 12.6667C18.3463 12.6667 16.9996 11.32 16.9996 9.66666Z" fill="#0B1736"></path><path d="M30.6663 22.3133C30.6663 20.6533 29.3197 19.3066 27.6597 19.3066H12.3397C10.6797 19.3066 9.33301 20.6533 9.33301 22.3133C9.33301 23.26 9.78634 24.1 10.473 24.6533C9.78634 25.2066 9.33301 26.04 9.33301 26.9933C9.33301 27.9466 9.78634 28.78 10.473 29.3333C9.78634 29.8866 9.33301 30.72 9.33301 31.6733C9.33301 33.3333 10.6797 34.68 12.3397 34.68H27.6663C29.3263 34.68 30.673 33.3333 30.673 31.6733C30.673 30.7266 30.2197 29.8866 29.533 29.3333C30.2197 28.78 30.673 27.9466 30.673 26.9933C30.673 26.04 30.2197 25.2066 29.533 24.6533C30.2197 24.1 30.673 23.2666 30.673 22.3133H30.6663ZM29.333 31.6666C29.333 32.5866 28.5863 33.34 27.6597 33.34H12.3397C11.4197 33.34 10.6663 32.5933 10.6663 31.6666C10.6663 30.74 11.413 29.9933 12.3397 29.9933H27.6663C28.5863 29.9933 29.3397 30.74 29.3397 31.6666H29.333ZM29.333 26.9933C29.333 27.9133 28.5863 28.6666 27.6597 28.6666H12.3397C11.4197 28.6666 10.6663 27.92 10.6663 26.9933C10.6663 26.0666 11.413 25.32 12.3397 25.32H27.6663C28.5863 25.32 29.3397 26.0666 29.3397 26.9933H29.333ZM12.3397 23.9866C11.4197 23.9866 10.6663 23.24 10.6663 22.3133C10.6663 21.3866 11.413 20.64 12.3397 20.64H27.6663C28.5863 20.64 29.3397 21.3866 29.3397 22.3133C29.3397 23.24 28.593 23.9866 27.6663 23.9866H12.3397Z" fill="#0B1736"></path></svg> 