<?xml version="1.0" encoding="UTF-8"?> <svg xmlns="http://www.w3.org/2000/svg" width="40" height="40" viewBox="0 0 40 40" fill="none"><path d="M20 20.6666C20 23.9803 17.3137 26.6666 14 26.6666C10.6863 26.6666 8 23.9803 8 20.6666C8 17.3529 10.6863 14.6666 14 14.6666C17.3137 14.6666 20 17.3529 20 20.6666Z" fill="#CEDAFA"></path><path d="M31.9999 28.8918C31.9999 27.1745 30.6079 25.7825 28.8906 25.7825C27.1732 25.7825 25.7813 27.1745 25.7813 28.8918C25.7813 30.6092 27.1732 32.0012 28.8906 32.0012C30.6079 32.0012 31.9999 30.6092 31.9999 28.8918Z" fill="#CEDAFA"></path><path d="M38.276 36.3907L35.016 33.132C35.5933 32.2134 35.9413 31.1347 35.9413 29.972C35.9413 26.6787 33.2627 24 29.9707 24C26.6787 24 23.9987 26.6787 23.9987 29.972C23.9987 33.2654 26.6773 35.944 29.9707 35.944C31.1333 35.944 32.2107 35.596 33.1307 35.0187L36.3907 38.2774C36.6507 38.5374 36.992 38.668 37.3333 38.668C37.6747 38.668 38.016 38.5374 38.276 38.2774C38.7973 37.756 38.7973 36.9134 38.276 36.392V36.3907ZM29.9707 33.276C28.1493 33.276 26.6653 31.7934 26.6653 29.9707C26.6653 28.148 28.148 26.6654 29.9707 26.6654C31.7933 26.6654 33.2747 28.148 33.2747 29.9707C33.2747 31.7934 31.7933 33.276 29.9707 33.276ZM28.6653 17.3334H25.332C24.5947 17.3334 23.9987 16.7374 23.9987 16C23.9987 15.2627 24.5947 14.6667 25.332 14.6667H28.6653C29.4027 14.6667 29.9987 15.2627 29.9987 16C29.9987 16.7374 29.4027 17.3334 28.6653 17.3334ZM31.9987 22H25.332C24.5947 22 23.9987 21.404 23.9987 20.6667C23.9987 19.9294 24.5947 19.3334 25.332 19.3334H31.9987C32.736 19.3334 33.332 19.9294 33.332 20.6667C33.332 21.404 32.736 22 31.9987 22ZM34.6667 1.33337H5.33333C3.128 1.33337 1.33333 3.12804 1.33333 5.33337V29.3334C1.33333 31.5387 3.128 33.3334 5.33333 33.3334H20C20.7373 33.3334 21.3333 32.7374 21.3333 32C21.3333 31.2627 20.7373 30.6667 20 30.6667H5.33333C4.59733 30.6667 4 30.0694 4 29.3334V10.6667H36V24C36 24.7374 36.596 25.3334 37.3333 25.3334C38.0707 25.3334 38.6667 24.7374 38.6667 24V5.33337C38.6667 3.12804 36.872 1.33337 34.6667 1.33337ZM4 8.00004V5.33337C4 4.59737 4.59733 4.00004 5.33333 4.00004H34.6667C35.4027 4.00004 36 4.59737 36 5.33337V8.00004H4ZM14 13.3334C9.95733 13.3334 6.66667 16.624 6.66667 20.6667C6.66667 24.7094 9.95733 28 14 28C18.0427 28 21.3333 24.7094 21.3333 20.6667C21.3333 16.624 18.0427 13.3334 14 13.3334ZM18.6667 20.6667C18.6667 21.468 18.4453 22.2107 18.088 22.8707L15.3333 20.1147V16.2174C17.2547 16.796 18.6667 18.56 18.6667 20.6667V20.6667ZM9.33333 20.6667C9.33333 18.56 10.7453 16.796 12.6667 16.2174V20.6667C12.6667 21.0214 12.8067 21.36 13.0573 21.6094L16.2027 24.7547C15.544 25.112 14.8013 25.3334 14 25.3334C11.4267 25.3334 9.33333 23.24 9.33333 20.6667V20.6667Z" fill="#0B1736"></path></svg> 