<?xml version="1.0" encoding="UTF-8"?> <svg xmlns="http://www.w3.org/2000/svg" width="60" height="60" viewBox="0 0 60 60" fill="none"><path d="M8.5 3C11.5 3 14 5.5 14 8.5C14 11.5 11.5 14 8.5 14C5.5 14 3 11.5 3 8.5C3 5.5 5.5 3 8.5 3ZM53 57H7C4.8 57 3 55.2 3 53V49.8C4.7 52.7 7.7 52.8 10.9 50.5C14.4 48 15.7 46 19 43.9C22.5 41.8 24.9 42.5 29 44.1C35.5 46.7 38.3 48.3 42.8 47.7C50.8 46.6 55.8 35.2 57 25.2V53C57 55.2 55.2 57 53 57Z" fill="#CEDAFA"></path><path d="M12 52.6C11.4 52.6 11 52.2 11 51.6V47C11 46.4 11.4 46 12 46C12.6 46 13 46.4 13 47V51.6C13 52.2 12.6 52.6 12 52.6ZM25 51.7V38C25 37.4 24.6 37 24 37C23.4 37 23 37.4 23 38V51.7C23 52.3 23.4 52.7 24 52.7C24.6 52.7 25 52.3 25 51.7ZM37 51.8V42C37 41.4 36.6 41 36 41C35.4 41 35 41.4 35 42V51.8C35 52.4 35.4 52.8 36 52.8C36.6 52.8 37 52.4 37 51.8ZM49 51.9V36C49 35.4 48.6 35 48 35C47.4 35 47 35.4 47 36V51.9C47 52.5 47.4 52.9 48 52.9C48.6 52.9 49 52.4 49 51.9ZM58 53V7C58 4.2 55.8 2 53 2H23.5C22.9 2 22.5 2.4 22.5 3C22.5 3.6 22.9 4 23.5 4H53C54.7 4 56 5.3 56 7V53C56 54.7 54.7 56 53 56H7C5.3 56 4 54.7 4 53V23.5C4 22.9 3.6 22.5 3 22.5C2.4 22.5 2 22.9 2 23.5V53C2 55.8 4.2 58 7 58H53C55.8 58 58 55.8 58 53ZM8.9 43.3C10.1 39.4 13.8 34.3 18.6 32.1C21.5 30.8 24.4 30.7 27.1 31.9C32.8 34.5 35.3 35.5 39.7 34.9C46.8 33.8 51.9 26.2 53 15.1C53.1 14.6 52.7 14.1 52.1 14C51.5 13.9 51.1 14.3 51 14.9C50 25.1 45.5 32 39.3 32.9C35.6 33.5 33.4 32.6 27.9 30.1C24.7 28.6 21.2 28.7 17.8 30.3C12.1 32.8 8.2 38.5 7 42.7C6.8 43.2 7.1 43.8 7.7 43.9C7.8 43.9 7.9 43.9 8 43.9C8.3 44 8.7 43.7 8.9 43.3ZM22.7 22.7C22.5 22.9 22.3 23 22 23C21.7 23 21.5 22.9 21.3 22.7L15.8 17.2C14.4 18.3 12.5 19 10.5 19C5.8 19 2 15.2 2 10.5C2 5.8 5.8 2 10.5 2C15.2 2 19 5.8 19 10.5C19 12.5 18.3 14.3 17.2 15.8L22.7 21.3C23.1 21.7 23.1 22.3 22.7 22.7ZM10.5 17C14.1 17 17 14.1 17 10.5C17 6.9 14.1 4 10.5 4C6.9 4 4 6.9 4 10.5C4 14.1 6.9 17 10.5 17Z" fill="#0B1736"></path></svg> 