<?xml version="1.0" encoding="UTF-8"?> <svg xmlns="http://www.w3.org/2000/svg" width="40" height="40" viewBox="0 0 40 40" fill="none"><path fill-rule="evenodd" clip-rule="evenodd" d="M7.936 7.93604H14.132V14.132H7.936V7.93604ZM7.936 25.3334H14.132V19.1374H7.936V25.3334ZM19.1373 14.132H25.3333V7.93604H19.1373V14.132ZM36.5307 21.704L36.5187 21.6894C35.3573 20.4227 33.364 20.3187 32.0667 21.4587L20.0933 31.9267L18.668 37.3334L24.312 36.5307L36.2853 26.064C37.5827 24.924 37.692 22.972 36.532 21.704H36.5307Z" fill="#CEDAFA"></path><path d="M9.67733 32H5.46667C3.188 32 1.33333 30.1454 1.33333 27.8667V23.608C1.33333 22.8707 1.92933 22.2747 2.66667 22.2747C3.404 22.2747 4 22.8707 4 23.608V27.8667C4 28.6747 4.65733 29.3334 5.46667 29.3334H9.67733C10.4147 29.3334 11.0107 29.9294 11.0107 30.6667C11.0107 31.404 10.4147 32 9.67733 32V32ZM32 9.66671V5.46804C32 3.18804 30.1453 1.33337 27.8667 1.33337H23.6667C22.9293 1.33337 22.3333 1.92937 22.3333 2.66671C22.3333 3.40404 22.9293 4.00004 23.6667 4.00004H27.8667C28.6747 4.00004 29.3333 4.65871 29.3333 5.46804V9.66671C29.3333 10.404 29.9293 11 30.6667 11C31.404 11 32 10.404 32 9.66671ZM4 9.66671V5.46804C4 4.66004 4.65733 4.00004 5.46667 4.00004H9.67733C10.4147 4.00004 11.0107 3.40404 11.0107 2.66671C11.0107 1.92937 10.4147 1.33337 9.67733 1.33337H5.46667C3.188 1.33337 1.33333 3.18804 1.33333 5.46804V9.66671C1.33333 10.404 1.92933 11 2.66667 11C3.404 11 4 10.404 4 9.66671V9.66671ZM15.5 14.1734V7.99604C15.5 7.26137 14.9053 6.66671 14.1707 6.66671H7.996C7.26133 6.66671 6.66667 7.26137 6.66667 7.99604V14.1734C6.66667 14.908 7.26133 15.5027 7.996 15.5027H14.172C14.9067 15.5027 15.5013 14.908 15.5013 14.1734H15.5ZM9.324 9.32537H12.8413V12.844H9.324V9.32537V9.32537ZM15.5 25.3387V19.1627C15.5 18.428 14.9053 17.8334 14.1707 17.8334H7.996C7.26133 17.8334 6.66667 18.428 6.66667 19.1627V25.3387C6.66667 26.0734 7.26133 26.668 7.996 26.668H14.172C14.9067 26.668 15.5013 26.0734 15.5013 25.3387H15.5ZM9.324 20.492H12.8413V24.0094H9.324V20.492ZM26.6653 14.1734V7.99604C26.6653 7.26137 26.0707 6.66671 25.336 6.66671H19.16C18.4253 6.66671 17.8307 7.26137 17.8307 7.99604V14.1734C17.8307 14.908 18.4253 15.5027 19.16 15.5027H25.336C26.0707 15.5027 26.6653 14.908 26.6653 14.1734ZM20.4893 9.32537H24.0067V12.844H20.4893V9.32537V9.32537ZM20.4893 25.3387V21.6334C20.4893 20.8987 19.8947 20.304 19.16 20.304C18.4253 20.304 17.8307 20.8987 17.8307 21.6334V25.3387C17.8307 26.0734 18.4253 26.668 19.16 26.668C19.8947 26.668 20.4893 26.0734 20.4893 25.3387ZM26.6653 21.6334V19.1627C26.6653 18.428 26.0707 17.8334 25.336 17.8334H22.8667C22.132 17.8334 21.5373 18.428 21.5373 19.1627C21.5373 19.8974 22.132 20.492 22.8667 20.492H24.008V21.6334C24.008 22.368 24.6027 22.9627 25.3373 22.9627C26.072 22.9627 26.6667 22.368 26.6667 21.6334H26.6653ZM18.8533 38.6547L24.496 37.852C24.752 37.816 24.992 37.7067 25.1867 37.536L37.16 27.068L37.1627 27.0654C38.064 26.2734 38.5947 25.184 38.6587 23.996C38.7227 22.8147 38.3147 21.6814 37.5 20.7894C35.8533 18.9907 33.0213 18.8454 31.188 20.4547L19.2147 30.924C19.0147 31.1 18.8707 31.3307 18.8027 31.588L17.3773 36.9947C17.2627 37.4267 17.3733 37.8867 17.6707 38.2214C17.9253 38.508 18.2893 38.668 18.6667 38.668C18.7293 38.668 18.792 38.664 18.8547 38.6547H18.8533ZM32.9453 22.46C33.7 21.7974 34.8613 21.856 35.5453 22.6054C35.86 22.9494 36.02 23.3934 35.996 23.8534C35.9707 24.3187 35.76 24.7467 35.404 25.0614L23.7293 35.2667L20.468 35.7307L21.276 32.6614L32.9453 22.46Z" fill="#0B1736"></path></svg> 