<?xml version="1.0" encoding="UTF-8"?> <svg xmlns="http://www.w3.org/2000/svg" width="40" height="40" viewBox="0 0 40 40" fill="none"><path d="M32.208 11.8747C32.0066 11.9467 31.7973 12 31.58 12H28V8.42004C28 8.20271 28.0533 7.99337 28.1253 7.79204C25.7986 6.24004 23.0066 5.33337 20 5.33337C11.9 5.33337 5.33331 11.9 5.33331 20C5.33331 28.1 11.9 34.6667 20 34.6667C28.1 34.6667 34.6666 28.1 34.6666 20C34.6666 16.9934 33.7586 14.2014 32.208 11.8747V11.8747ZM20 29.3334C14.8453 29.3334 10.6666 25.1547 10.6666 20C10.6666 14.8454 14.8453 10.6667 20 10.6667C25.1546 10.6667 29.3333 14.8454 29.3333 20C29.3333 25.1547 25.1546 29.3334 20 29.3334V29.3334ZM20 25.3334C17.0546 25.3334 14.6666 22.9454 14.6666 20C14.6666 17.0547 17.0546 14.6667 20 14.6667C22.9453 14.6667 25.3333 17.0547 25.3333 20C25.3333 22.9454 22.9453 25.3334 20 25.3334V25.3334Z" fill="#CEDAFA"></path><path d="M38.5307 6.17327C38.2547 5.51061 37.6133 5.08127 36.8947 5.08127H34.9187V3.10527C34.9187 2.38794 34.4893 1.74527 33.8267 1.46927C33.1653 1.19461 32.408 1.34527 31.8973 1.85327L27.5773 6.17061C26.98 6.76794 26.6373 7.59461 26.6373 8.43994V11.4746L19.0587 19.0533C18.536 19.5759 18.536 20.4213 19.0587 20.9439C19.32 21.2053 19.6613 21.3359 20.004 21.3359C20.3467 21.3359 20.688 21.2053 20.9493 20.9439L28.528 13.3653H31.564C32.4213 13.3653 33.228 13.0306 33.8333 12.4253L38.148 8.10394C38.656 7.59594 38.8067 6.83861 38.532 6.17461L38.5307 6.17327ZM31.9413 10.5333C31.8413 10.6319 31.704 10.6893 31.5627 10.6893H29.3107V8.43727C29.3107 8.29594 29.368 8.15861 29.4667 8.05861L32.2467 5.28261V6.41727C32.2467 7.15594 32.8453 7.75461 33.5827 7.75461H34.716L31.94 10.5333H31.9413ZM20 35.9999C11.1773 35.9999 4 28.8226 4 19.9999C4 11.1773 11.1773 3.99994 20 3.99994C20.552 3.99994 21.1213 4.03461 21.7907 4.11194C22.5227 4.19461 23.048 4.85594 22.9653 5.58661C22.8827 6.31861 22.2147 6.85194 21.4907 6.75994C20.924 6.69594 20.4507 6.66661 20.0013 6.66661C12.6493 6.66661 6.668 12.6479 6.668 19.9999C6.668 27.3519 12.6493 33.3333 20.0013 33.3333C27.3533 33.3333 33.3347 27.3519 33.3347 19.9999C33.3347 19.5479 33.3053 19.0733 33.24 18.5026C33.1573 17.7706 33.684 17.1106 34.4147 17.0279C35.144 16.9546 35.8067 17.4719 35.8893 18.2039C35.9653 18.8759 36 19.4479 36 20.0013C36 28.8239 28.8227 36.0013 20 36.0013V35.9999Z" fill="#0B1736"></path></svg> 