<?xml version="1.0" encoding="UTF-8"?> <svg xmlns="http://www.w3.org/2000/svg" width="40" height="40" viewBox="0 0 40 40" fill="none"><path d="M28 23.3334H23.3333V28H28V23.3334Z" fill="#CEDAFA"></path><path d="M28 29H23.3333C22.7813 29 22.3333 28.552 22.3333 28V23.3333C22.3333 22.7813 22.7813 22.3333 23.3333 22.3333H28C28.552 22.3333 29 22.7813 29 23.3333V28C29 28.552 28.552 29 28 29ZM24.3333 27H27V24.3333H24.3333V27ZM33.7653 32.7493V23.3333C33.7653 22.7813 33.3173 22.3333 32.7653 22.3333C32.2133 22.3333 31.7653 22.7813 31.7653 23.3333V31.7493H30.7453C30.1933 31.7493 29.7453 32.1973 29.7453 32.7493C29.7453 33.3013 30.1933 33.7493 30.7453 33.7493H32.7653C33.3173 33.7493 33.7653 33.3013 33.7653 32.7493ZM27 32.6667C27 32.1147 26.552 31.6667 26 31.6667H23.3333C22.7813 31.6667 22.3333 32.1147 22.3333 32.6667C22.3333 33.2187 22.7813 33.6667 23.3333 33.6667H26C26.552 33.6667 27 33.2187 27 32.6667ZM38.6666 25.2547V20.5493C38.6666 18.776 37.224 17.3333 35.4506 17.3333H30.744C30.008 17.3333 29.4106 17.9293 29.4106 18.6667C29.4106 19.404 30.008 20 30.744 20H35.4506C35.7533 20 36 20.2467 36 20.5493V25.2547C36 25.992 36.5973 26.588 37.3333 26.588C38.0693 26.588 38.6666 25.992 38.6666 25.2547V25.2547ZM38.6666 35.4507V30.7453C38.6666 30.008 38.0693 29.412 37.3333 29.412C36.5973 29.412 36 30.008 36 30.7453V35.4507C36 35.7533 35.7533 35.9987 35.4506 35.9987H30.744C30.008 35.9987 29.4106 36.5947 29.4106 37.332C29.4106 38.0693 30.008 38.6653 30.744 38.6653H35.4506C37.224 38.6653 38.6666 37.2227 38.6666 35.4507ZM26.588 37.332C26.588 36.5947 25.9906 35.9987 25.2546 35.9987H20.548C20.2453 35.9987 19.9986 35.752 19.9986 35.4507V30.7453C19.9986 30.008 19.4013 29.412 18.6653 29.412C17.9293 29.412 17.332 30.008 17.332 30.7453V35.4507C17.332 37.2227 18.7746 38.6653 20.548 38.6653H25.2546C25.9906 38.6653 26.588 38.0693 26.588 37.332ZM20 25.2533V20.548C20 20.244 20.2466 19.9987 20.5493 19.9987H25.256C25.992 19.9987 26.5893 19.4027 26.5893 18.6653C26.5893 17.928 25.992 17.332 25.256 17.332H20.5493C18.776 17.332 17.3333 18.7747 17.3333 20.548V25.2533C17.3333 25.9907 17.9306 26.5867 18.6666 26.5867C19.4026 26.5867 20 25.9907 20 25.2533ZM11.892 11.876C12.2826 11.484 12.2826 10.8493 11.892 10.4573L8.18798 6.74135C7.79731 6.34935 7.16398 6.34935 6.77331 6.74135C6.38265 7.13335 6.38265 7.76801 6.77331 8.16001L10.4773 11.876C10.672 12.072 10.928 12.1693 11.184 12.1693C11.44 12.1693 11.696 12.072 11.8906 11.876H11.892ZM15.8573 15.8533C16.8093 14.8987 17.3333 13.6307 17.3333 12.28C17.3333 10.9293 16.8093 9.66135 15.8573 8.70668L14.4906 7.33468C13.9706 6.81201 13.1266 6.81201 12.6053 7.33468C12.084 7.85734 12.084 8.70401 12.6053 9.22668L13.972 10.5987C14.42 11.048 14.6666 11.6453 14.6666 12.2813C14.6666 12.9173 14.42 13.5147 13.972 13.964C13.076 14.8627 11.5133 14.8627 10.6173 13.964L9.25065 12.592C8.72931 12.0693 7.88665 12.0693 7.36531 12.592C6.84398 13.1147 6.84398 13.9613 7.36531 14.484L8.73198 15.856C9.71465 16.8427 11.004 17.3347 12.2946 17.3347C13.5853 17.3347 14.876 16.8413 15.8573 15.856V15.8533ZM6.06131 11.2827C6.58265 10.76 6.58265 9.91335 6.06131 9.39068L4.69465 8.01868C4.24665 7.56934 3.99998 6.97201 3.99998 6.33601C3.99998 5.70001 4.24665 5.10268 4.69465 4.65335C5.59065 3.75468 7.15331 3.75468 8.04931 4.65335L9.41598 6.02535C9.93731 6.54801 10.78 6.54801 11.3013 6.02535C11.8226 5.50268 11.8226 4.65601 11.3013 4.13335L9.93465 2.76135C8.03198 0.852012 4.71198 0.852012 2.80931 2.76135C1.85731 3.71601 1.33331 4.98401 1.33331 6.33468C1.33331 7.68535 1.85731 8.95335 2.80931 9.90801L4.17598 11.28C4.43598 11.5413 4.77731 11.672 5.11865 11.672C5.45998 11.672 5.80131 11.5413 6.06131 11.28V11.2827ZM15.6226 27.0693L11.7306 23.068C11.2173 22.54 10.372 22.528 9.84531 23.0413C9.31731 23.5547 9.30531 24.4 9.81865 24.9267L11.4933 26.648H9.33331C7.86398 26.648 6.66798 25.4533 6.66798 23.9827V19.9973C6.66798 19.26 6.07065 18.664 5.33465 18.664C4.59865 18.664 4.00131 19.26 4.00131 19.9973V23.9827C4.00131 26.9227 6.39331 29.3147 9.33331 29.3147H11.5253L9.81865 31.0667C9.30531 31.5947 9.31598 32.4373 9.84531 32.952C10.104 33.204 10.44 33.3293 10.7746 33.3293C11.1213 33.3293 11.4693 33.1933 11.7306 32.9253L15.6226 28.9267C16.1266 28.4093 16.1266 27.5853 15.6226 27.0667V27.0693Z" fill="#0B1736"></path></svg> 