<?xml version="1.0" encoding="UTF-8"?> <svg xmlns="http://www.w3.org/2000/svg" width="60" height="60" viewBox="0 0 60 60" fill="none"><path fill-rule="evenodd" clip-rule="evenodd" d="M34.0203 35.5701L50.6203 19.5601C51.0203 19.1801 51.6603 19.2101 52.0203 19.6301C53.7903 21.7601 58.3603 28.2701 57.9803 38.0801C57.9603 38.5901 57.5303 39.0001 57.0203 39.0001H32.6003C31.7103 39.0001 31.3003 37.8901 31.9803 37.3101L33.9803 35.6001C33.9803 35.6001 34.0103 35.5701 34.0203 35.5601V35.5701Z" fill="#C8FAA4"></path><path d="M45.6388 30.0998C45.6388 30.0998 33.6988 39.8198 31.6488 40.7198C29.5888 41.6298 27.1888 40.6898 26.2788 38.6198C25.3688 36.5598 26.2988 34.1498 28.3588 33.2398C30.4188 32.3298 45.6488 30.0898 45.6488 30.0898L45.6388 30.0998Z" fill="white"></path><path fill-rule="evenodd" clip-rule="evenodd" d="M30 12C16.198 12 5 23.1874 5 37C5 37.5523 5.44772 38 6 38C6.04762 38 6.09446 37.9967 6.14031 37.9902H14.0017C14.554 37.9902 15.0017 37.5425 15.0017 36.9902C15.0017 36.438 14.554 35.9902 14.0017 35.9902H7.02176C7.26348 30.3932 9.50498 25.3162 13.0488 21.4543L17.982 26.3874C18.3725 26.7779 19.0056 26.7779 19.3962 26.3874C19.7867 25.9969 19.7867 25.3637 19.3962 24.9732L14.4635 20.0405C18.3277 16.4988 23.4058 14.2607 29 14.0214V21C29 21.5523 29.4477 22 30 22C30.5523 22 31 21.5523 31 21V14.0214C36.5936 14.2607 41.6712 16.4983 45.5353 20.0394L40.6015 24.9732C40.211 25.3637 40.211 25.9969 40.6015 26.3874C40.992 26.7779 41.6252 26.7779 42.0157 26.3874L46.95 21.453C50.4945 25.3151 52.7365 30.3926 52.9782 35.9902H39.8628C39.9186 35.9465 39.9743 35.9028 40.03 35.8592C41.6547 34.5847 43.2145 33.339 44.3678 32.4122C44.9445 31.9487 45.4199 31.5647 45.7512 31.2965C45.9168 31.1625 46.0464 31.0573 46.1348 30.9856L46.2703 30.8754C46.2967 30.8539 46.322 30.8311 46.3461 30.8071L46.3561 30.7971C46.661 30.4922 46.7362 30.0262 46.5425 29.6409C46.3489 29.2556 45.9301 29.0378 45.5035 29.1005L45.3307 29.1261C45.2182 29.1428 45.0531 29.1674 44.8423 29.199C44.4209 29.2621 43.8167 29.3534 43.0854 29.4657C41.623 29.6903 39.6507 29.9994 37.613 30.3371C35.5769 30.6746 33.4686 31.0418 31.7366 31.3826C30.8712 31.5529 30.0917 31.7182 29.4584 31.8713C28.8492 32.0186 28.3045 32.1707 27.9549 32.3252C25.3888 33.4588 24.2319 36.4594 25.364 39.0232C26.4945 41.5936 29.4814 42.7693 32.051 41.6355C32.3996 41.4825 32.8785 41.1839 33.3972 40.8347C33.9366 40.4715 34.584 40.0086 35.2932 39.4857C35.9132 39.0287 36.5854 38.522 37.2812 37.9902H53.8597C53.9055 37.9967 53.9524 38 54 38C54.5523 38 55 37.5523 55 37C55 23.1874 43.802 12 30 12ZM37.94 32.3102C39.4328 32.0628 40.8913 31.8306 42.1385 31.6361C41.1503 32.4264 39.9902 33.3485 38.7956 34.2856C37.1778 35.5546 35.5022 36.8469 34.1064 37.8759C33.408 38.3909 32.7862 38.835 32.2802 39.1757C31.7536 39.5302 31.4109 39.7323 31.247 39.8042L31.2449 39.8052C29.6953 40.4897 27.8839 39.7858 27.1945 38.2174L27.1937 38.2158C26.5064 36.6598 27.2095 34.8409 28.7631 34.1546C28.9285 34.0816 29.3104 33.9647 29.9284 33.8153C30.5223 33.6717 31.2706 33.5127 32.1227 33.345C33.8257 33.0099 35.9112 32.6465 37.94 32.3102Z" fill="#0B1736"></path></svg> 