<?xml version="1.0" encoding="UTF-8"?> <svg xmlns="http://www.w3.org/2000/svg" width="40" height="40" viewBox="0 0 40 40" fill="none"><path d="M24.6667 37.3333C29.4531 37.3333 33.3333 33.4531 33.3333 28.6667C33.3333 23.8802 29.4531 20 24.6667 20C19.8802 20 16 23.8802 16 28.6667C16 33.4531 19.8802 37.3333 24.6667 37.3333Z" fill="#CEDAFA"></path><path d="M28.6667 38.6667C23.152 38.6667 18.6667 34.1814 18.6667 28.6667C18.6667 23.152 23.152 18.6667 28.6667 18.6667C34.1813 18.6667 38.6667 23.152 38.6667 28.6667C38.6667 34.1814 34.1813 38.6667 28.6667 38.6667ZM28.6667 21.3334C24.6227 21.3334 21.3333 24.624 21.3333 28.6667C21.3333 32.7094 24.6227 36 28.6667 36C32.7107 36 36 32.7094 36 28.6667C36 24.624 32.7107 21.3334 28.6667 21.3334ZM23.3333 10C23.3333 5.22137 19.4453 1.33337 14.6667 1.33337C9.888 1.33337 6 5.22137 6 10C6 13.4467 8.028 16.4227 10.9493 17.8174C6.58533 18.9534 2.96533 22.036 1.41733 26.2027C1.16133 26.8934 1.512 27.6614 2.20267 27.9174C2.356 27.9747 2.512 28 2.66667 28C3.208 28 3.71733 27.668 3.916 27.132C5.5 22.8667 9.82133 20 14.6653 20C15.892 20 17.1053 20.184 18.2693 20.5467C18.9693 20.76 19.7187 20.372 19.9387 19.6694C20.1587 18.9667 19.7653 18.2187 19.0627 18C18.8387 17.9307 18.6107 17.876 18.384 17.816C21.3053 16.4214 23.332 13.4467 23.332 10H23.3333ZM14.6667 16C11.3587 16 8.66667 13.308 8.66667 10C8.66667 6.69204 11.3587 4.00004 14.6667 4.00004C17.9747 4.00004 20.6667 6.69204 20.6667 10C20.6667 13.308 17.9747 16 14.6667 16ZM32 27.3334H30V25.3334C30 24.596 29.4027 24 28.6667 24C27.9307 24 27.3333 24.596 27.3333 25.3334V27.3334H25.3333C24.5973 27.3334 24 27.9294 24 28.6667C24 29.404 24.5973 30 25.3333 30H27.3333V32C27.3333 32.7374 27.9307 33.3334 28.6667 33.3334C29.4027 33.3334 30 32.7374 30 32V30H32C32.736 30 33.3333 29.404 33.3333 28.6667C33.3333 27.9294 32.736 27.3334 32 27.3334Z" fill="#0B1736"></path></svg> 