<?xml version="1.0" encoding="UTF-8"?> <svg xmlns="http://www.w3.org/2000/svg" width="60" height="60" viewBox="0 0 60 60" fill="none"><path d="M57.89 32.49C57.72 32.82 57.38 33.04 57 33.04H56.99L44.83 32.89L37.81 42.82C37.62 43.09 37.32 43.24 36.99 43.24C36.94 43.24 36.89 43.24 36.83 43.23C36.45 43.17 36.14 42.9 36.03 42.54L32.42 30.92L20.8 27.31C20.44 27.2 20.17 26.89 20.11 26.51C20.05 26.13 20.21 25.76 20.52 25.54L30.5 18.46L30.34 6.3C30.34 5.92 30.55 5.57 30.89 5.4C31.23 5.23 31.64 5.26 31.94 5.49L41.64 12.82L53.16 8.91C53.52 8.79 53.92 8.88 54.19 9.15C54.46 9.42 54.55 9.82 54.43 10.18L50.52 21.7L57.8 31.45C58.03 31.76 58.06 32.16 57.89 32.5V32.49ZM52.37 47.07L50.62 46.38L49.93 44.63C49.78 44.25 49.41 44 49 44C48.59 44 48.22 44.25 48.07 44.63L47.38 46.38L45.63 47.07C45.25 47.22 45 47.59 45 48C45 48.41 45.25 48.78 45.63 48.93L47.38 49.62L48.07 51.37C48.22 51.75 48.59 52 49 52C49.41 52 49.78 51.75 49.93 51.37L50.62 49.62L52.37 48.93C52.75 48.78 53 48.41 53 48C53 47.59 52.75 47.22 52.37 47.07ZM31.37 52.07L30.34 51.67L29.93 50.64C29.78 50.26 29.41 50.01 29 50.01C28.59 50.01 28.22 50.26 28.07 50.64L27.66 51.67L26.63 52.07C26.25 52.22 26 52.59 26 53C26 53.41 26.25 53.78 26.63 53.93L27.66 54.33L28.07 55.36C28.22 55.74 28.59 55.99 29 55.99C29.41 55.99 29.78 55.74 29.93 55.36L30.34 54.33L31.37 53.93C31.75 53.78 32 53.41 32 53C32 52.59 31.75 52.22 31.37 52.07ZM20.37 7.07L19.34 6.66L18.93 5.63C18.78 5.25 18.41 5 18 5C17.59 5 17.22 5.25 17.07 5.63L16.66 6.66L15.63 7.07C15.25 7.22 15 7.59 15 8C15 8.41 15.25 8.78 15.63 8.93L16.66 9.33L17.07 10.36C17.22 10.74 17.59 10.99 18 10.99C18.41 10.99 18.78 10.74 18.93 10.36L19.34 9.33L20.37 8.93C20.75 8.78 21 8.41 21 8C21 7.59 20.75 7.22 20.37 7.07ZM13.37 30.07L11.62 29.38L10.93 27.63C10.78 27.25 10.41 27 10 27C9.59 27 9.22 27.25 9.07 27.63L8.38 29.38L6.63 30.07C6.25 30.22 6 30.59 6 31C6 31.41 6.25 31.78 6.63 31.93L8.38 32.62L9.07 34.37C9.22 34.75 9.59 35 10 35C10.41 35 10.78 34.75 10.93 34.37L11.62 32.62L13.37 31.93C13.75 31.78 14 31.41 14 31C14 30.59 13.75 30.22 13.37 30.07Z" fill="#FFD767"></path><path d="M57.8 28.1001L50.52 18.3501L54.43 6.83008C54.55 6.47008 54.46 6.07008 54.19 5.80008C53.92 5.53008 53.52 5.44008 53.16 5.56008L41.64 9.47008L31.9 2.20008C31.59 1.97008 31.19 1.94008 30.85 2.11008C30.51 2.28008 30.3 2.63008 30.3 3.01008L30.46 15.1701L20.53 22.1901C20.22 22.4101 20.06 22.7901 20.12 23.1601C20.18 23.5301 20.45 23.8501 20.81 23.9601L31.35 27.2301L2.29 56.2901C1.9 56.6801 1.9 57.3101 2.29 57.7001C2.48 57.8901 2.74 57.9901 3 57.9901C3.26 57.9901 3.51 57.8901 3.71 57.7001L32.76 28.6501L36.04 39.1901C36.15 39.5501 36.46 39.8201 36.84 39.8801C36.89 39.8801 36.94 39.8901 37 39.8901C37.32 39.8901 37.63 39.7401 37.82 39.4701L44.84 29.5401L57 29.7001H57.01C57.39 29.7001 57.73 29.4901 57.9 29.1501C58.07 28.8101 58.04 28.4001 57.81 28.1001H57.8ZM44.32 27.5401C44.02 27.5601 43.68 27.6901 43.49 27.9601L37.33 36.6701L34.16 26.4801C34.16 26.4801 34.15 26.4601 34.14 26.4501C34.09 26.3101 34.02 26.1901 33.92 26.0801H33.91C33.8 25.9601 33.67 25.8901 33.54 25.8401C33.53 25.8401 33.52 25.8301 33.51 25.8201L23.32 22.6601L32.03 16.5001C32.3 16.3101 32.46 16.0001 32.45 15.6701L32.31 5.01008L40.86 11.3901C41.12 11.5801 41.47 11.6401 41.78 11.5401L51.88 8.11008L48.46 18.2101C48.36 18.5201 48.41 18.8701 48.61 19.1301L54.99 27.6801L44.33 27.5401H44.32Z" fill="#0B1736"></path></svg> 