<?xml version="1.0" encoding="UTF-8"?> <svg xmlns="http://www.w3.org/2000/svg" width="40" height="40" viewBox="0 0 40 40" fill="none"><path d="M25.3333 32C25.3333 28.3186 28.3187 25.3333 32 25.3333C35.6813 25.3333 38.6667 28.3186 38.6667 32C38.6667 35.6813 35.6813 38.6666 32 38.6666C28.3187 38.6666 25.3333 35.6813 25.3333 32ZM11.5 18.1666V22H15.3333V18.1666H11.5Z" fill="#CEDAFA"></path><path d="M15.3333 23H11.5C10.948 23 10.5 22.552 10.5 22V18.1667C10.5 17.6147 10.948 17.1667 11.5 17.1667H15.3333C15.8853 17.1667 16.3333 17.6147 16.3333 18.1667V22C16.3333 22.552 15.8853 23 15.3333 23ZM12.5 21H14.3333V19.1667H12.5V21ZM20.248 25.9014V18.1667C20.248 17.6147 19.8 17.1667 19.248 17.1667C18.696 17.1667 18.248 17.6147 18.248 18.1667V24.9014H17.5893C17.0373 24.9014 16.5893 25.3494 16.5893 25.9014C16.5893 26.4534 17.0373 26.9014 17.5893 26.9014H19.248C19.8 26.9014 20.248 26.4534 20.248 25.9014ZM14.692 25.8334C14.692 25.2814 14.244 24.8334 13.692 24.8334H11.5013C10.9493 24.8334 10.5013 25.2814 10.5013 25.8334C10.5013 26.3854 10.9493 26.8334 11.5013 26.8334H13.692C14.244 26.8334 14.692 26.3854 14.692 25.8334ZM24.0013 19.7454V15.8787C24.0013 14.4747 22.86 13.3334 21.4546 13.3334H17.5893C17.0373 13.3334 16.5893 13.7814 16.5893 14.3334C16.5893 14.8854 17.0373 15.3334 17.5893 15.3334H21.4546C21.756 15.3334 22.0013 15.5787 22.0013 15.8787V19.7454C22.0013 20.2974 22.4493 20.7454 23.0013 20.7454C23.5533 20.7454 24.0013 20.2974 24.0013 19.7454ZM24.0013 28.1214V24.2547C24.0013 23.7027 23.5533 23.2547 23.0013 23.2547C22.4493 23.2547 22.0013 23.7027 22.0013 24.2547V28.1214C22.0013 28.4227 21.756 28.6667 21.4546 28.6667H17.5893C17.0373 28.6667 16.5893 29.1147 16.5893 29.6667C16.5893 30.2187 17.0373 30.6667 17.5893 30.6667H21.4546C22.8586 30.6667 24.0013 29.524 24.0013 28.1214ZM14.08 29.6667C14.08 29.1147 13.632 28.6667 13.08 28.6667H9.21465C8.91331 28.6667 8.66798 28.4214 8.66798 28.1214V24.2547C8.66798 23.7027 8.21998 23.2547 7.66798 23.2547C7.11598 23.2547 6.66798 23.7027 6.66798 24.2547V28.1214C6.66798 29.5254 7.80931 30.6667 9.21465 30.6667H13.08C13.632 30.6667 14.08 30.2187 14.08 29.6667ZM8.66798 19.7454V15.8787C8.66798 15.5774 8.91331 15.3334 9.21465 15.3334H13.08C13.632 15.3334 14.08 14.8854 14.08 14.3334C14.08 13.7814 13.632 13.3334 13.08 13.3334H9.21465C7.81065 13.3334 6.66798 14.476 6.66798 15.8787V19.7454C6.66798 20.2974 7.11598 20.7454 7.66798 20.7454C8.21998 20.7454 8.66798 20.2974 8.66798 19.7454ZM28.1626 8.94404L21.7226 2.50537C20.9666 1.75071 19.9626 1.33337 18.896 1.33337H5.33331C3.12798 1.33337 1.33331 3.12804 1.33331 5.33337V34.6667C1.33331 36.872 3.12798 38.6667 5.33331 38.6667H21.3333C22.0693 38.6667 22.6666 38.0707 22.6666 37.3334C22.6666 36.596 22.0693 36 21.3333 36H5.33331C4.59865 36 3.99998 35.4027 3.99998 34.6667V5.33337C3.99998 4.59737 4.59865 4.00004 5.33331 4.00004H18.6666V8.00004C18.6666 10.2054 20.4613 12 22.6666 12H26.6666V21.3334C26.6666 22.0707 27.264 22.6667 28 22.6667C28.736 22.6667 29.3333 22.0707 29.3333 21.3334V11.7707C29.3333 10.7027 28.9173 9.69871 28.1626 8.94404V8.94404ZM21.3333 8.00004V5.88671L24.78 9.33337H22.6666C21.932 9.33337 21.3333 8.73604 21.3333 8.00004ZM32.3573 34.8547L35.6906 30.8547C36.1626 30.288 36.0853 29.4467 35.52 28.976C34.9546 28.5054 34.1133 28.58 33.6426 29.1467L31.076 32.2267L30.0733 31.5574C29.46 31.148 28.632 31.3147 28.224 31.9267C27.816 32.54 27.9813 33.3667 28.5933 33.776L30.5933 35.1094C30.82 35.26 31.0773 35.3334 31.332 35.3334C31.716 35.3334 32.0946 35.168 32.3573 34.8547V34.8547Z" fill="#0B1736"></path></svg> 