<?xml version="1.0" encoding="UTF-8"?> <svg xmlns="http://www.w3.org/2000/svg" xmlns:xlink="http://www.w3.org/1999/xlink" width="888px" height="131px" viewBox="0 0 888 131" version="1.1"><title>QR Code Generator</title><g id="QR-Code-Generator" stroke="none" stroke-width="1" fill="none" fill-rule="evenodd"><g id="Bitly-Egoditor_Full-Color" transform="translate(0.000000, -124.000000)" fill-rule="nonzero"><rect id="Rectangle" x="0" y="0" width="888" height="369"></rect><g id="Group" transform="translate(56.000000, 141.000000)"><path d="M25,56.75 L25,34.25 C25,29.75 28.653846,26 33.0384615,26 L54.9615385,26 C59.3461538,26 63,29.75 63,34.25 L63,65 L63,65 L33.0384615,65 C28.653846,65 25,61.25 25,56.75 C25,56.75 25,56.75 25,56.75 Z" id="Path" fill="#00BFFF"></path><path d="M61.1874999,12.75 C69.7166666,12.75 76.3916666,19.5 76.3916666,28.125 L76.3916666,76.875 L28.1833334,76.875 C19.6541667,76.875 12.9791667,70.125 12.9791667,61.5 L12.9791667,28.125 C12.9791667,19.5 19.6541667,12.75 28.1833334,12.75 L61.1874999,12.75 M61.1874999,0 L27.8124999,0 C12.6083333,0 0,12.75 0,28.125 L0,61.5 C0,77.25 12.6083333,90 27.8124999,90 L89,90 L89,28.125 C89,12.75 76.3916666,0 61.1874999,0 L61.1874999,0 Z" id="Shape" fill="#00BFFF"></path><g id="QR-Code-Generator" transform="translate(118.530676, 10.978667)" fill="#2A4170"><path d="M25.7120743,48.8611764 C29.0608875,48.8611764 31.6860165,47.372549 33.5874613,44.3952941 C35.488906,41.4180392 36.4396284,37.1811765 36.4396284,31.6847059 C36.4396284,26.5890197 35.488906,22.652745 33.5874613,19.8758823 C31.6860165,17.0990196 29.0608875,15.7105883 25.7120743,15.7105883 C22.4200207,15.7105883 19.8090815,17.0990196 17.879257,19.8758823 C15.9494324,22.652745 14.9845201,26.5890197 14.9845201,31.6847059 C14.9845201,37.1811765 15.9494324,41.4180392 17.879257,44.3952941 C19.8090815,47.372549 22.4200207,48.8611764 25.7120743,48.8611764 Z M44.4427244,76 C38.255934,76 33.0198658,74.5113726 28.7345201,71.5341176 C24.4491743,68.5568627 21.2280702,64.7494117 19.0712074,60.1117647 C13.2817337,58.794902 8.65583075,55.6745098 5.19349846,50.7505883 C1.73116615,45.8266666 0,39.4713726 0,31.6847059 C0,25.5584314 1.07843137,20.362549 3.23529411,16.0970589 C5.39215686,11.8315686 8.40041279,8.58235294 12.2600619,6.34941176 C16.119711,4.1164706 20.6037152,3 25.7120743,3 C30.8204335,3 35.3044376,4.1164706 39.1640867,6.34941176 C43.0237358,8.58235294 46.0319917,11.8315686 48.1888545,16.0970589 C50.3457172,20.362549 51.4241486,25.5584314 51.4241486,31.6847059 C51.4241486,38.9560785 49.9058308,44.9821568 46.869195,49.7629411 C43.8325593,54.5437255 39.7033024,57.7929411 34.4814241,59.5105882 C35.7868937,61.2854901 37.5322498,62.5307843 39.7174923,63.2464706 C41.9027348,63.9621569 44.0454077,64.3199999 46.1455108,64.3199999 C47.3374613,64.3199999 48.4726521,64.2198039 49.5510836,64.0194118 C50.629515,63.8190196 51.5944273,63.5756863 52.4458205,63.2894117 L55,73.9388235 C53.9215686,74.5113726 52.4742002,74.9980392 50.6578947,75.3988234 C48.8415893,75.7996079 46.7698658,76 44.4427244,76 Z" id="Q"></path><path d="M57,60 L57,4 L77.8782288,4 C81.8388684,4 85.4883149,4.53128206 88.8265683,5.59384616 C92.1648216,6.65641025 94.8523985,8.50871795 96.889299,11.1507692 C98.9261993,13.7928205 99.9446495,17.44 99.9446495,22.0923076 C99.9446495,26.1128206 99.1242313,29.4441026 97.4833949,32.0861538 C95.8425584,34.7282051 93.692497,36.7958975 91.0332104,38.2892308 L103,60 L86.7047971,60 L77.199262,41.2184615 L71.597786,41.2184615 L71.597786,60 L57,60 Z M71.597786,29.5015385 L76.8597786,29.5015385 C82.7441575,29.5015385 85.6863468,27.0317949 85.6863468,22.0923076 C85.6863468,19.68 84.9366544,18.0143589 83.4372695,17.0953846 C81.9378843,16.1764103 79.7453875,15.7169231 76.8597786,15.7169231 L71.597786,15.7169231 L71.597786,29.5015385 Z" id="R"></path><path d="M144.622138,61 C139.870229,61 135.476145,59.9530168 131.439886,57.8590504 C127.403626,55.7650841 124.15458,52.5954501 121.692748,48.3501484 C119.230916,44.1048467 118,38.7982196 118,32.430267 C118,27.7260138 118.729962,23.5524234 120.189886,19.9094955 C121.649809,16.2665678 123.653626,13.1829871 126.201336,10.6587537 C128.749046,8.13452028 131.640267,6.22700297 134.875,4.93620178 C138.109733,3.64540059 141.473282,3 144.965649,3 C148.687024,3 152.021947,3.73145402 154.97042,5.19436202 C157.918894,6.65727003 160.366413,8.39268052 162.312977,10.4005935 L154.58397,19.8664689 C153.209923,18.6617211 151.792939,17.6721069 150.333015,16.8976262 C148.873092,16.1231455 147.198473,15.7359051 145.309161,15.7359051 C143.133588,15.7359051 141.115458,16.3813057 139.254771,17.6721069 C137.394084,18.9629081 135.905534,20.8130563 134.789122,23.222552 C133.67271,25.6320475 133.114504,28.529179 133.114504,31.9139465 C133.114504,37.1345202 134.216603,41.1646885 136.420802,44.0044511 C138.625,46.8442137 141.530534,48.264095 145.137404,48.264095 C147.312977,48.264095 149.245229,47.7764589 150.934161,46.8011869 C152.623092,45.825915 154.068703,44.7072206 155.270993,43.4451039 L163,52.7388724 C160.652672,55.4925816 157.90458,57.5578635 154.755725,58.9347181 C151.606871,60.3115727 148.229008,61 144.622138,61 Z" id="C"></path><path d="M183,61 C179.387096,61 175.985887,60.1125954 172.796371,58.3377863 C169.606855,56.5629771 167.01008,54.0009542 165.006048,50.6517175 C163.002015,47.3024809 162,43.2519084 162,38.5 C162,33.7480916 163.002015,29.6975191 165.006048,26.3482825 C167.01008,22.9990458 169.606855,20.4370229 172.796371,18.6622138 C175.985887,16.8874046 179.387096,16 183,16 C186.612904,16 190.014113,16.8874046 193.203629,18.6622138 C196.393145,20.4370229 198.98992,22.9990458 200.993952,26.3482825 C202.997985,29.6975191 204,33.7480916 204,38.5 C204,43.2519084 202.997985,47.3024809 200.993952,50.6517175 C198.98992,54.0009542 196.393145,56.5629771 193.203629,58.3377863 C190.014113,60.1125954 186.612904,61 183,61 Z M183.000001,49.148855 C185.201612,49.148855 186.768145,48.1898855 187.699597,46.2719465 C188.631048,44.3540077 189.096774,41.7633588 189.096774,38.5000001 C189.096774,35.2366412 188.631048,32.6459924 187.699597,30.7280535 C186.768145,28.8101145 185.201612,27.851145 183.000001,27.851145 C180.798388,27.851145 179.231855,28.8101145 178.300403,30.7280535 C177.368952,32.6459924 176.903226,35.2366412 176.903226,38.5000001 C176.903226,41.7633588 177.368952,44.3540077 178.300403,46.2719465 C179.231855,48.1898855 180.798388,49.148855 183.000001,49.148855 Z" id="o"></path><path d="M223.209878,61 C217.979424,61 213.803499,58.9752825 210.682099,54.9258475 C207.5607,50.8764124 206,45.3766478 206,38.4265537 C206,33.7165725 206.829562,29.6814971 208.488684,26.3213276 C210.147805,22.9611581 212.299041,20.3764124 214.942387,18.5670903 C217.585735,16.7577683 220.341565,15.8531073 223.209878,15.8531073 C225.515776,15.8531073 227.413924,16.2408192 228.904322,17.0162429 C230.394719,17.7916666 231.758574,18.8399247 232.995886,20.1610169 L232.489713,13.9576271 L232.489713,0 L247,0 L247,59.9661017 L235.189301,59.9661017 L234.176955,56.0028249 L233.839506,56.0028249 C232.433471,57.4387947 230.774348,58.6306497 228.86214,59.5783898 C226.949932,60.52613 225.065844,61 223.209878,61 Z M227.090535,48.9378531 C228.215363,48.9378531 229.21365,48.7224576 230.085392,48.2916666 C230.957134,47.8608758 231.758574,47.0423729 232.489713,45.8361581 L232.489713,29.9830508 C231.64609,29.1789078 230.718107,28.6332392 229.705763,28.3460452 C228.693417,28.0588512 227.709192,27.9152542 226.753087,27.9152542 C225.234568,27.9152542 223.870715,28.690678 222.661523,30.2415254 C221.452332,31.7923729 220.847738,34.4632768 220.847738,38.2542373 C220.847738,42.1026366 221.410152,44.845339 222.534979,46.4823446 C223.659808,48.1193503 225.178327,48.9378531 227.090535,48.9378531 Z" id="d"></path><path d="M273.969432,61 C269.825327,61 266.092795,60.1125954 262.771833,58.3377863 C259.450873,56.5629771 256.825327,54.0009542 254.895196,50.6517175 C252.965066,47.3024809 252,43.2519084 252,38.5 C252,33.8625955 252.979258,29.8692749 254.937773,26.5200383 C256.896289,23.1708016 259.436681,20.5801527 262.558951,18.7480916 C265.681223,16.9160306 268.973798,16 272.43668,16 C276.637555,16 280.114628,16.9303436 282.867903,18.7910306 C285.621179,20.6517177 287.664847,23.1564885 288.998908,26.3053435 C290.332969,29.4541985 291,32.9465649 291,36.7824428 C291,38.0419848 290.929038,39.2585877 290.787118,40.432252 C290.645196,41.6059161 290.517466,42.4503817 290.403929,42.9656489 L266.13537,42.9656489 C266.816594,45.5419847 268.037117,47.3311069 269.796942,48.3330152 C271.556768,49.3349237 273.62882,49.8358779 276.013101,49.8358779 C278.73799,49.8358779 281.633187,48.9770992 284.69869,47.259542 L289.467248,56.019084 C287.196506,57.6221375 284.641922,58.8530535 281.803493,59.7118321 C278.965065,60.5706106 276.353711,61 273.969432,61 Z M265.965065,33.3473283 L278.567685,33.3473283 C278.567685,31.6870229 278.156113,30.2414122 277.332969,29.0104962 C276.509825,27.7795802 274.991266,27.1641222 272.777292,27.1641222 C271.187772,27.1641222 269.768559,27.6507634 268.519651,28.6240458 C267.270741,29.5973282 266.419214,31.1717558 265.965065,33.3473283 Z" id="e"></path><path d="M334.131387,61 C328.928224,61 324.196776,59.9530168 319.937044,57.8590504 C315.677311,55.7650841 312.289538,52.5954501 309.773723,48.3501484 C307.257909,44.1048467 306,38.7982196 306,32.430267 C306,27.7260138 306.74331,23.5524234 308.229927,19.9094955 C309.716546,16.2665678 311.746351,13.1829871 314.319343,10.6587537 C316.892336,8.13452028 319.851278,6.22700297 323.196168,4.93620178 C326.541058,3.64540059 330.071776,3 333.78832,3 C337.905109,3 341.47871,3.73145402 344.509123,5.19436202 C347.539538,6.65727003 350.026763,8.39268052 351.970803,10.4005935 L344.251824,19.8664689 C342.879562,18.6617211 341.435826,17.6721069 339.92062,16.8976262 C338.405413,16.1231455 336.532846,15.7359051 334.302919,15.7359051 C330.529197,15.7359051 327.384428,17.1557864 324.868613,19.995549 C322.352799,22.8353116 321.09489,26.8081108 321.09489,31.9139465 C321.09489,37.1345202 322.281326,41.1646885 324.654197,44.0044511 C327.027068,46.8442137 330.70073,48.264095 335.675183,48.264095 C336.475669,48.264095 337.261861,48.1780415 338.033759,48.0059348 C338.805657,47.8338279 339.448905,47.5756677 339.963503,47.2314541 L339.963503,39.4866469 L331.729927,39.4866469 L331.729927,27.4391691 L353,27.4391691 L353,54.115727 C351.05596,56.0089021 348.411495,57.6295747 345.066605,58.9777449 C341.721715,60.325915 338.076642,61 334.131387,61 Z" id="G"></path><path d="M377.969433,61 C373.825327,61 370.092795,60.1125954 366.771835,58.3377863 C363.450874,56.5629771 360.825328,54.0009542 358.895196,50.6517175 C356.965066,47.3024809 356,43.2519084 356,38.5 C356,33.8625955 356.979258,29.8692749 358.937773,26.5200383 C360.896289,23.1708016 363.436681,20.5801527 366.558953,18.7480916 C369.681223,16.9160306 372.9738,16 376.436682,16 C380.637555,16 384.11463,16.9303436 386.867905,18.7910306 C389.621179,20.6517177 391.664848,23.1564885 392.998908,26.3053435 C394.332969,29.4541985 395,32.9465649 395,36.7824428 C395,38.0419848 394.92904,39.2585877 394.787118,40.432252 C394.645196,41.6059161 394.517468,42.4503817 394.403931,42.9656489 L370.135372,42.9656489 C370.816594,45.5419847 372.037119,47.3311069 373.796944,48.3330152 C375.556769,49.3349237 377.628821,49.8358779 380.013101,49.8358779 C382.737992,49.8358779 385.633188,48.9770992 388.69869,47.259542 L393.46725,56.019084 C391.196507,57.6221375 388.641922,58.8530535 385.803493,59.7118321 C382.965065,60.5706106 380.353713,61 377.969433,61 Z M369.965066,33.3473283 L382.567687,33.3473283 C382.567687,31.6870229 382.156114,30.2414122 381.33297,29.0104962 C380.509826,27.7795802 378.991266,27.1641222 376.777294,27.1641222 C375.187774,27.1641222 373.768559,27.6507634 372.519651,28.6240458 C371.270743,29.5973282 370.419214,31.1717558 369.965066,33.3473283 Z" id="e"></path><path d="M399,60 L399,17.03125 L410.914894,17.03125 L411.936171,22.1875 L412.276595,22.1875 C413.978723,20.5260418 415.921986,19.0794271 418.106383,17.8476563 C420.290781,16.6158855 422.829788,16 425.723405,16 C430.432624,16 433.822695,17.5898438 435.893617,20.7695312 C437.964539,23.9492188 439,28.2031251 439,33.53125 L439,60 L424.361702,60 L424.361702,35.4218751 C424.361702,32.671875 424.021277,30.8385418 423.340426,29.921875 C422.659574,29.0052084 421.581561,28.546875 420.106383,28.546875 C418.744681,28.546875 417.60993,28.8333333 416.702128,29.40625 C415.794326,29.9791667 414.77305,30.7812501 413.638298,31.8125001 L413.638298,60 L399,60 Z" id="n"></path><path d="M464.969433,61 C460.825328,61 457.092794,60.1125954 453.771834,58.3377863 C450.450873,56.5629771 447.825327,54.0009542 445.895197,50.6517175 C443.965065,47.3024809 443,43.2519084 443,38.5 C443,33.8625955 443.979258,29.8692749 445.937773,26.5200383 C447.896287,23.1708016 450.436682,20.5801527 453.558952,18.7480916 C456.681222,16.9160306 459.973799,16 463.436681,16 C467.637556,16 471.114629,16.9303436 473.867904,18.7910306 C476.621179,20.6517177 478.664848,23.1564885 479.998909,26.3053435 C481.332971,29.4541985 482,32.9465649 482,36.7824428 C482,38.0419848 481.92904,39.2585877 481.787118,40.432252 C481.645198,41.6059161 481.517468,42.4503817 481.403931,42.9656489 L457.135371,42.9656489 C457.816593,45.5419847 459.037118,47.3311069 460.796943,48.3330152 C462.556768,49.3349237 464.628821,49.8358779 467.0131,49.8358779 C469.737991,49.8358779 472.633188,48.9770992 475.698691,47.259542 L480.46725,56.019084 C478.196507,57.6221375 475.641921,58.8530535 472.803495,59.7118321 C469.965066,60.5706106 467.353712,61 464.969433,61 Z M456.965066,33.3473283 L469.567686,33.3473283 C469.567686,31.6870229 469.156114,30.2414122 468.33297,29.0104962 C467.509826,27.7795802 465.991267,27.1641222 463.777293,27.1641222 C462.187773,27.1641222 460.76856,27.6507634 459.51965,28.6240458 C458.270742,29.5973282 457.419214,31.1717558 456.965066,33.3473283 Z" id="e"></path><path d="M486,60 L486,17.03125 L498.055555,17.03125 L499.088888,24.421875 L499.433333,24.421875 C501.04074,21.5 502.949537,19.3658855 505.159722,18.0195313 C507.369908,16.6731772 509.537037,16 511.661111,16 C512.981481,16 514.057871,16.0716146 514.890277,16.2148438 C515.722684,16.358073 516.425926,16.5729167 517,16.8593751 L514.588889,29.578125 C513.842592,29.40625 513.096296,29.248698 512.35,29.1054688 C511.603704,28.9622396 510.742592,28.890625 509.766666,28.890625 C508.216667,28.890625 506.594907,29.420573 504.901388,30.4804688 C503.20787,31.5403646 501.844444,33.4166668 500.811111,36.109375 L500.811111,60 L486,60 Z" id="r"></path><path d="M525.837837,61 C523.156157,61 520.85961,60.3845419 518.948199,59.1536259 C517.036787,57.9227099 515.567568,56.3053435 514.540541,54.3015267 C513.513514,52.2977099 513,50.1221374 513,47.7748092 C513,43.3091603 514.825826,39.802481 518.477478,37.254771 C522.129129,34.7070611 528.063063,33.0038168 536.279279,32.1450382 C535.936937,29.167939 533.939939,27.6793894 530.288288,27.6793894 C528.747747,27.6793894 527.121622,27.9799618 525.40991,28.581107 C523.698198,29.1822519 521.72973,30.0839695 519.504504,31.2862596 L514.36937,21.6679389 C517.393394,19.8358779 520.460211,18.4332061 523.56982,17.4599237 C526.67943,16.4866413 529.888888,16 533.198198,16 C538.78979,16 543.154655,17.5887405 546.292792,20.7662214 C549.430931,23.9437024 551,29.0534351 551,36.0954198 L551,59.9694656 L539.018018,59.9694656 L537.99099,55.8473282 L537.648649,55.8473282 C535.936937,57.3931298 534.125375,58.6383587 532.213964,59.5830153 C530.302552,60.5276718 528.177177,61 525.837837,61 Z M530.972973,49.6641221 C532.171171,49.6641221 533.16967,49.3921756 533.968469,48.8482824 C534.767267,48.3043893 535.537537,47.6030534 536.279279,46.7442749 L536.279279,40.9045802 C532.798798,41.4198473 530.388138,42.1927481 529.047297,43.2232825 C527.706456,44.2538168 527.036036,45.370229 527.036036,46.5725191 C527.036036,48.6335878 528.348349,49.6641221 530.972973,49.6641221 Z" id="a"></path><path d="M572.059782,61 C566.612319,61 562.667119,59.3865525 560.224185,56.1596574 C557.78125,52.9327621 556.559783,48.7206646 556.559783,43.5233645 L556.559783,28.6168224 L551,28.6168224 L551,17.6510903 L557.402173,17.1370716 L559.086956,6 L571.048912,6 L571.048912,17.1370716 L580.652173,17.1370716 L580.652173,28.6168224 L571.048912,28.6168224 L571.048912,43.2663551 C571.048912,45.6079958 571.554347,47.2357217 572.565217,48.1495327 C573.576087,49.0633437 574.755435,49.5202492 576.10326,49.5202492 C576.777173,49.5202492 577.437046,49.4488577 578.08288,49.3060748 C578.728714,49.1632918 579.304348,49.0062305 579.809782,48.834891 L582,59.4579439 C580.932971,59.800623 579.585144,60.1433022 577.956522,60.4859813 C576.327899,60.8286604 574.362318,61 572.059782,61 Z" id="t"></path><path d="M602,61 C598.387097,61 594.985887,60.1125954 591.796371,58.3377863 C588.606855,56.5629771 586.010081,54.0009542 584.006049,50.6517175 C582.002017,47.3024809 581,43.2519084 581,38.5 C581,33.7480916 582.002017,29.6975191 584.006049,26.3482825 C586.010081,22.9990458 588.606855,20.4370229 591.796371,18.6622138 C594.985887,16.8874046 598.387097,16 602,16 C605.612903,16 609.014112,16.8874046 612.203629,18.6622138 C615.393145,20.4370229 617.989919,22.9990458 619.993951,26.3482825 C621.997983,29.6975191 623,33.7480916 623,38.5 C623,43.2519084 621.997983,47.3024809 619.993951,50.6517175 C617.989919,54.0009542 615.393145,56.5629771 612.203629,58.3377863 C609.014112,60.1125954 605.612903,61 602,61 Z M602,49.148855 C604.201613,49.148855 605.768145,48.1898855 606.699596,46.2719465 C607.631049,44.3540077 608.096775,41.7633588 608.096775,38.5000001 C608.096775,35.2366412 607.631049,32.6459924 606.699596,30.7280535 C605.768145,28.8101145 604.201613,27.851145 602,27.851145 C599.798387,27.851145 598.231855,28.8101145 597.300403,30.7280535 C596.368951,32.6459924 595.903225,35.2366412 595.903225,38.5000001 C595.903225,41.7633588 596.368951,44.3540077 597.300403,46.2719465 C598.231855,48.1898855 599.798387,49.148855 602,49.148855 Z" id="o"></path><path d="M627,60 L627,17.03125 L639.055556,17.03125 L640.08889,24.421875 L640.433333,24.421875 C642.040741,21.5 643.949537,19.3658855 646.159723,18.0195313 C648.369908,16.6731772 650.537038,16 652.661111,16 C653.981481,16 655.057871,16.0716146 655.890278,16.2148438 C656.722686,16.358073 657.425926,16.5729167 658,16.8593751 L655.588889,29.578125 C654.842593,29.40625 654.096297,29.248698 653.35,29.1054688 C652.603704,28.9622396 651.742594,28.890625 650.766667,28.890625 C649.216667,28.890625 647.594907,29.420573 645.90139,30.4804688 C644.20787,31.5403646 642.844444,33.4166668 641.811112,36.109375 L641.811112,60 L627,60 Z" id="r"></path></g></g></g></g></svg> 