<?xml version="1.0" encoding="UTF-8"?> <svg xmlns="http://www.w3.org/2000/svg" id="Layer_1" data-name="Layer 1" viewBox="0 0 888 500"><path d="M568.28,253.05c-.67-28-18-47.45-45.9-51.12-19-2.49-38.1-.68-57.15-1.22-1.89-.05-2.46.66-2.45,2.51.11,18,.14,36.06.2,54.09h0q-.08,26.49-.19,53c0,1.77.42,2.62,2.39,2.57,18.41-.47,36.89,1.14,55.25-1,13.42-1.58,25.6-6.34,35.05-16.53,9.94-10.71,13-23.81,12.8-38C568.28,255.9,568.31,254.48,568.28,253.05ZM531.21,262c-1.14,11.41-8.44,18.54-19.86,19.41-11.83.9-11.82.9-11.83-11,0-4.44,0-8.88-.08-13.32h0c0-7.69.11-15.39,0-23.09,0-2.43.52-3.62,3.21-3.38,3.25.28,6.52.12,9.76.42,10.85,1,17.58,8.22,18.76,20,.21,2.07.25,4.16.36,6.24C531.43,258.84,531.36,260.41,531.21,262Z"></path><path d="M183.25,202.07c-19.35-2.87-38.9-.82-58.35-1.35-1.87-.05-2.11.94-2.1,2.45q.12,27.08.18,54.14c0,17.66-.06,35.31-.21,53,0,2.62,1.37,2.55,3.2,2.55q16.67,0,33.34,0c8.51,0,17-.05,25.38-1.71,28.44-5.61,43.91-25.14,43.17-53.8C229,228,213.06,206.48,183.25,202.07ZM163.93,281.7c-3.76-.06-5.23-.67-5-4.84.39-6.49,0-13,0-19.56h0c0-7.81.19-15.63.07-23.44,0-2.54.65-3.48,3.25-3.26,3.63.32,7.32,0,10.91.57,10.09,1.48,15.82,7.85,17.27,18.77.33,2.45.58,4.91.87,7.37C190,278.32,178.81,281.94,163.93,281.7Z"></path><path d="M683.83,310.19c-6.36-17.66-12.61-35.36-18.89-53.05h0c-6.31-18.11-12.65-36.2-18.87-54.33-.71-2.06-2-2-3.64-2q-14.13,0-28.24,0c-9.57,0-9.62,0-12.74,9-5.46,15.77-10.83,31.56-16.24,47.35q-9.35,26.57-18.72,53.12c-.77,2.17.11,2.34,1.9,2.33,11.11,0,22.21-.07,33.32,0,2.11,0,3-.71,3.44-2.74.77-3.57,1.9-7.05,2.71-10.61.39-1.69,1.09-2.34,2.9-2.32,9,.09,18,.12,27,0,2.05,0,2.7.89,3.15,2.55,1,3.52,2.12,7,3,10.53.44,1.76,1.09,2.62,3.12,2.6,11.63-.09,23.26-.06,34.89,0C683.78,312.59,684.62,312.41,683.83,310.19Zm-52-42.16c-1.36,1.47-5.4.53-8.25.54-7.23,0-7.22,0-5.35-7.08.36-1.37.58-2.78.87-4.18h0c1.66-5.61,3.33-11.22,5.21-17.6l5.35,17.72h0c.2.89.42,1.77.62,2.66C630.93,262.84,633.44,266.33,631.88,268Z"></path><path d="M778.08,200.74c-12,0-24.15.1-36.27-.08-2.85,0-4.06,1-5.14,3.49-4.8,11.13-9.83,22.16-15,33.7-.78-1.63-1.37-2.78-1.88-4-4.38-10-8.83-20-13.06-30.16-1-2.3-2.14-3.08-4.61-3-11.5.13-23,0-34.51.08-.8,0-1.85-.53-2.52.89l32.15,55.86a34.93,34.93,0,0,0,2.43,4.47c3.18,4.3,4.09,9,3.94,14.35-.3,10.85,0,21.72-.15,32.57,0,2.94.81,3.79,3.76,3.74,9.94-.19,19.88-.14,29.82,0,2.39,0,3.16-.61,3.12-3.06-.14-8.9.25-17.81-.14-26.69s.18-17.44,6.09-24.73a2.18,2.18,0,0,0,.21-.75,17.43,17.43,0,0,0,1.14-1.57q15-26.16,29.95-52.35C777.82,202.75,778.7,202.1,778.08,200.74Z"></path><path d="M275.23,257.31c.06-18.05.09-36.1.2-54.15,0-1.93-.7-2.46-2.52-2.45q-15.69.09-31.39,0c-1.82,0-2.54.52-2.53,2.45q.16,27.08.21,54.15c-.06,17.54-.09,35.07-.2,52.61,0,2.05.67,2.7,2.71,2.68q15.49-.12,31,0c2,0,2.72-.63,2.71-2.68-.12-17.54-.15-35.07-.2-52.61Z"></path><path d="M447.39,203.16c0-1.93-.7-2.46-2.52-2.45q-15.69.09-31.39,0c-1.82,0-2.54.52-2.53,2.45.12,18.05.15,36.1.21,54.15-.06,17.54-.09,35.07-.2,52.61,0,2.05.67,2.7,2.71,2.68q15.49-.12,31,0c2,0,2.72-.63,2.71-2.68-.11-17.54-.14-35.07-.2-52.61C447.25,239.26,447.28,221.21,447.39,203.16Z"></path><path d="M394.34,244.68c-12.82.09-25.63,0-38.44,0-12.36,0-12.36,0-10.88,12.59-.7,3.89-.07,7.81-.36,11.7-.18,2.53,1,3.1,3.24,3,3.64-.15,7.3-.05,11,0,.88,0,1.89-.28,2.59.5,1.52,1.69-.06,8.69-2.18,9.6-4.3,1.86-8.88,1.95-13.44,1.85-9.24-.22-15.71-4.73-19.71-13-2.09-4.32-2.47-9-3.07-13.63.09-1.18.17-2.35.27-3.52,1.05-13.19,7.9-22,19.21-23.9A27.16,27.16,0,0,1,367,237.55c1.95,1.9,3,2,5,.12,4-3.74,8.32-7.16,12.51-10.71,10.77-9.11,10.82-9.17-1.15-17-14-9.2-29.5-11.07-45.8-9.56-30.3,2.79-51.6,26.78-50.32,56.94-.06,18.37,5.67,34.19,20.8,45.5,24.78,18.53,66.59,14.85,88.38-7.53a4,4,0,0,0,1.3-3.09q-.14-17.43-.2-34.87c.06-3.13-.06-6.28.23-9.4C397.94,245.17,396.78,244.66,394.34,244.68Z"></path></svg> 