<?xml version="1.0" encoding="UTF-8"?> <svg xmlns="http://www.w3.org/2000/svg" id="Layer_1" viewBox="0 0 888 500"><defs><style>.cls-1{fill:none;}</style></defs><rect id="backgroundrect" class="cls-1" x="156.79" y="205.91" width="574.42" height="81.78"></rect><g id="svg_1"><path id="svg_2" d="M662.08,216.62c0-5.65,1.75-7.59,4.67-7.59s5.26,1.17,7.98,7.59l16.55,37.58v23.76c0,5.65-2.34,7.2-8.76,7.98v1.56h30.57v-1.56c-6.62-.78-8.76-2.53-8.76-7.98v-23.76l15.97-36.22c3.12-7.01,6.23-8.57,10.9-9.35v-1.56h-22.39v1.56c7.59,.78,10.32,2.92,8.18,7.98l-14.02,32.13-14.41-32.91c-1.95-4.48-.78-5.84,7.59-7.01v-1.56h-48.1v1.56c7.59,1.17,9.93,2.53,9.93,7.98v44.01l-35.24-53.55h-17.33v1.56c5.65,.78,7.4,2.53,7.4,7.98v61.34c0,5.65-1.56,7.59-3.5,7.59-1.75,0-2.73-.78-5.26-7.59l-26.09-71.27h-1.56l-25.12,68.15c-2.73,7.59-7.01,10.13-11.29,11.1v1.56h22.98v-1.56c-7.98-.78-10.51-3.89-8.76-8.96l5.65-15.58h23.76l5.45,14.6c2.34,6.62,.97,8.57-5.84,9.74v1.56h43.62v-1.56c-7.59-1.17-9.93-2.53-9.93-7.98v-54.91l42.64,64.65h2.53v-71.07h0Zm-307.46,30.57c0-24.92,11.88-37.97,25.7-37.97,8.18,0,13.44,1.75,16.55,5.06,2.34,2.34,4.09,5.65,6.04,10.9h1.56v-16.75c-7.98-1.56-15.19-2.53-22.39-2.53-20.83,0-42.45,13.44-42.45,41.28s21.61,41.28,41.09,41.28c8.57,0,16.16-1.36,23.37-3.5l2.34-15.77-1.36-.39c-1.75,3.31-3.89,6.23-6.23,8.76-5.06,5.06-11.88,7.79-18.69,7.79-13.24-.19-25.51-12.85-25.51-38.16Zm172.71,2.34c-1.75,0-4.09-.19-6.43-.58v-38.94h6.43c10.71,0,15.38,5.65,15.38,19.67s-4.87,19.86-15.38,19.86Zm-250.21-42.45v19.28h1.56c2.34-12.27,7.2-16.16,15.38-16.16h3.89v67.76c0,5.65-2.34,7.2-8.76,7.98v1.56h30.57v-1.56c-6.62-.78-8.76-2.53-8.76-7.98v-67.96h3.89c8.18,0,13.05,3.89,15.38,16.16h1.56v-19.28h-54.72v.19Zm-24.34,81.39c13.24,0,27.26-7.59,27.26-23.17,0-9.15-4.87-16.75-13.44-21.42l-15.19-8.37c-7.98-4.48-10.32-8.57-10.32-14.41,0-6.62,4.87-11.88,14.02-11.88,4.48,0,7.79,1.17,10.51,3.7,2.34,2.34,4.67,6.23,6.82,13.24h1.36v-17.72c-5.45-1.56-11.1-2.53-17.72-2.53-13.05,0-22.78,8.18-22.78,22,0,8.76,4.87,16.75,12.85,21.42l14.02,7.79c7.98,4.48,10.51,8.76,10.51,15.19,0,7.59-7.79,13.05-16.36,13.05-5.65,0-10.32-1.95-13.63-5.26-2.14-2.14-4.48-5.45-6.04-9.74h9.15v-1.56c-2.53-.58-4.09-.97-6.23-6.04l-17.91-42.64h-1.56l-17.52,41.67c-2.34,5.65-3.89,6.62-6.62,7.01v1.56h15.58v-1.56c-5.65-.58-7.2-3.31-5.84-6.82l2.73-6.62h15.77l3.5,8.18c1.56,3.7-.78,4.67-6.43,5.06v1.56h12.46v15.38c6.23,1.75,14.21,2.92,21.03,2.92Zm197.83-.78l23.17-64.45,1.75,54.91c.19,5.45-1.95,7.01-8.57,7.79v1.56h63.87v-1.56c-7.59-1.17-9.93-2.53-9.93-7.98v-25.9c2.53,.39,5.06,.58,7.01,.58,15.38,0,28.62-5.65,28.62-22.78s-13.24-22.78-28.62-22.78h-27.46v1.56c5.65,.78,7.4,2.53,7.4,7.98v61.34c0,5.65-2.34,7.98-8.76,7.98h-.19c-6.82,0-9.74-2.53-9.93-7.79l-2.34-61.34c-.19-5.65,1.75-7.4,7.79-8.18v-1.56h-18.89l-20.64,57.83-20.64-57.83h-20.25v1.56c6.04,.78,7.98,2.73,7.79,8.18l-2.14,58.8c-.19,5.84-3.31,9.35-8.96,10.32v1.56h21.42v-1.56c-5.45-.78-8.57-4.28-8.37-10.32l1.75-53.55,23.56,65.42,1.56,.19h0Zm-62.11-16.94c10.32,0,23.56-9.15,23.56-23.56s-13.05-23.56-23.56-23.56-23.56,9.15-23.56,23.56c0,14.21,13.05,23.56,23.56,23.56Zm0-43.81c6.62,0,11.1,5.45,11.1,20.25s-4.67,20.25-11.1,20.25-11.1-5.45-11.1-20.25,4.48-20.25,11.1-20.25Zm194.13,31.35h-21.61l10.71-29.6,10.9,29.6Zm-361.4-6.04h-13.24l6.62-16.16,6.62,16.16Zm-25.31,4.09h1.56v-24.14h-1.56c-2.53,8.57-5.06,10.51-9.74,10.51h-8.96v-32.71h14.21c8.18,0,13.05,3.89,15.38,16.16h1.56v-19.28h-51.6v1.56c5.65,.78,7.4,2.53,7.4,7.98v61.34c0,5.65-1.75,7.2-7.4,7.98v1.56h30.38v-1.56c-7.59-1.17-9.93-2.53-9.93-7.98v-32.13h8.96c4.48,.19,7.2,2.14,9.74,10.71Z"></path></g></svg> 