<?xml version="1.0" encoding="UTF-8"?> <svg xmlns="http://www.w3.org/2000/svg" xmlns:xlink="http://www.w3.org/1999/xlink" width="888px" height="500px" viewBox="0 0 888 500" version="1.1"><title>Advertising Week</title><defs><polygon id="path-1" points="0 130 738 130 738 0 0 0"></polygon></defs><g id="Advertising-Week" stroke="none" stroke-width="1" fill="none" fill-rule="evenodd"><g id="Group-33" transform="translate(75.000000, 185.000000)"><path d="M51.651852,57.9638024 C51.4482384,58.215712 51.3138955,58.3992362 51.16206,58.5674085 C44.0891141,66.4107983 44.4924927,78.0617911 52.0828689,85.5318524 C56.5102385,89.8893299 61.9798154,91.4119524 68.0213993,91.3334487 C72.2283625,91.2786706 76.2691463,90.5784178 79.608478,87.7487963 C81.5819898,86.0764934 82.8488017,84.0113233 82.909326,81.9513868 C81.7030384,80.9556112 80.3239241,80.3844533 80.1105147,79.5261464 C79.6291192,77.5886756 81.55785,77.0991616 82.8907839,76.4006533 C82.8435539,75.4617492 82.8008721,74.6149562 82.7557412,73.7238522 C83.8728168,73.5309076 84.8943829,73.3543616 86.0761809,73.150252 C84.1303074,68.481551 82.1749879,63.9112412 80.3344196,59.2952248 C79.8421787,58.0607981 79.1596186,57.7108461 77.8686669,57.7213133 C70.3542085,57.7820228 62.8387006,57.7509702 55.3238923,57.7509702 C54.7301945,57.7509702 54.1368465,57.7509702 53.5434985,57.7509702 C53.526006,57.6131527 53.5085134,57.4753351 53.4910208,57.3375175 C60.3683998,51.9476293 67.2457788,46.5577411 74.1410002,41.1535478 C67.4738819,34.7982388 59.0428128,34.0728648 52.9193636,39.3102814 C47.4039562,44.0278292 46.1014594,50.5104886 51.651852,57.9638024 M0.000139940563,61.7951309 C0.354189565,59.2303285 0.664507764,56.6585479 1.06893599,54.1014214 C5.31403298,27.2482783 27.280853,5.30876772 54.3114224,0.904885747 C87.8768661,-4.56385503 119.247692,15.2243058 128.395257,47.6351605 C138.586428,83.7419685 115.290173,121.425479 78.3217245,128.586062 C75.815389,129.071738 73.2565758,129.286663 70.725051,129.647431 C70.2240638,129.718608 69.7360211,129.880151 69.2420309,129.999826 L61.5484486,129.999826 C61.1751571,129.887827 60.8095624,129.724888 60.4282244,129.671157 C57.7270217,129.291199 55.002029,129.044872 52.3225171,128.55152 C26.5255238,123.802222 5.04989516,101.654415 1.07453361,75.7391289 C0.682700037,73.1840958 0.356638525,70.6192934 0.000139940563,68.0590267 C0.000139940563,65.9708288 0.000139940563,63.8829799 0.000139940563,61.7951309" id="Fill-1" fill="#000000"></path><path d="M576.178505,74.6699088 C577.567066,66.8258211 578.87516,59.4230986 580.188852,52.0210739 C581.342312,45.5209692 582.533206,39.0274937 583.627891,32.5176197 C583.809814,31.4356646 584.278965,31.2231813 585.237208,31.2420221 C587.567218,31.2880776 589.900377,31.308663 592.228638,31.2346951 C593.343965,31.1991068 593.674574,31.603488 593.868742,32.6791628 C596.256827,45.8998803 598.707187,59.1090839 601.145651,72.3207298 C601.268799,72.9867899 601.431829,73.645523 601.80652,74.2969291 C602.872168,67.2616038 603.938515,60.2266274 605.002763,53.1913021 C606.050918,46.2627418 607.084029,39.3317391 608.176965,32.409808 C608.243087,31.9904239 608.770313,31.3215725 609.096374,31.3135477 C612.459496,31.2325512 615.825766,31.2640032 619.376408,31.2640032 C615.331426,54.1438134 611.323178,76.815676 607.303386,99.5524351 L597.370404,99.5524351 C594.545354,84.6936075 591.710858,69.7880266 588.876712,54.8827947 C588.781203,54.8880283 588.685693,54.8932618 588.590184,54.8981465 C587.405937,61.5622366 586.22134,68.225629 585.037792,74.8897191 C583.650282,82.7006608 582.249477,90.5088112 580.8987,98.3260332 C580.746865,99.2045766 580.531706,99.6766454 579.518187,99.6586767 C576.668647,99.6065154 573.817708,99.6400103 570.754059,99.6400103 C566.42115,76.9109272 562.099785,54.2439492 557.717546,31.2563273 L565.274686,31.2563273 C568.805387,31.2566762 568.778448,31.260863 569.347307,34.7042089 C571.442217,47.3879612 573.55497,60.0685733 575.670171,72.7491854 C575.753786,73.2512601 575.928711,73.7383318 576.178505,74.6699088" id="Fill-3" fill="#000000"></path><path d="M487.466404,99.5596923 L476.792088,99.5596923 L476.792088,31.2656779 C480.22378,31.2656779 483.59005,31.2143889 486.950723,31.3302254 C487.373343,31.3448794 487.937654,32.1763206 488.145465,32.7359646 C492.034414,43.2132401 495.877531,53.7069142 499.734643,64.1957036 C500.406358,66.0225715 501.099064,67.8414145 502.11958,69.6012926 L502.11958,31.3762809 L512.654656,31.3762809 L512.654656,99.6378471 C509.470308,99.6378471 506.391616,99.7121639 503.324119,99.5631814 C502.829079,99.5391069 502.172758,98.5956671 501.944655,97.9533326 C497.661774,85.8934229 493.433469,73.8146723 489.189072,61.7415042 C488.736364,60.4540438 488.25322,59.1773995 487.466404,57.9464618 L487.466404,99.5596923 Z" id="Fill-5" fill="#000000"></path><path d="M208.149343,40.8037005 L208.149343,90.1340172 C210.79247,89.9075777 213.341138,89.8395412 215.833129,89.4306242 C218.025648,89.070554 219.475782,87.5440936 219.941784,85.3979774 C220.344463,83.5435461 220.591808,81.6189847 220.604403,79.7237315 C220.669125,70.2136213 220.647435,60.7031622 220.620146,51.192703 C220.615948,49.7482353 220.507494,48.2926027 220.302831,46.862789 C219.809541,43.4110694 218.175035,41.6581695 214.726549,41.1609795 C212.615196,40.8563852 210.450316,40.9156991 208.149343,40.8037005 M196.29078,99.3259258 L196.29078,31.4994444 C196.473052,31.4041933 196.57311,31.3064998 196.672118,31.3068487 C203.483725,31.3529042 210.320871,31.0587771 217.100641,31.5482912 C225.440049,32.1505016 230.434878,37.0969312 231.811543,45.3171388 C232.211773,47.7067908 232.420634,50.1529654 232.441625,52.5754145 C232.515794,61.1560412 232.601507,69.7408547 232.40594,78.3176433 C232.327924,81.7571512 231.930492,85.2943526 230.978197,88.5869713 C229.132731,94.9674015 224.44962,98.7488365 217.913346,99.2114849 C210.798068,99.7149552 203.618767,99.3259258 196.29078,99.3259258" id="Fill-7" fill="#000000"></path><path d="M330.029317,40.7776024 L330.029317,61.7237798 C332.355829,61.7237798 334.581933,61.9264937 336.75556,61.6759798 C339.980141,61.3047446 341.952253,59.5713833 342.297556,56.3422653 C342.650556,53.0423195 342.626417,49.6464248 342.274466,46.3443856 C341.964148,43.4380049 340.009178,41.537867 336.957774,41.1980332 C334.715227,40.9482171 332.44819,40.9161178 330.029317,40.7776024 L330.029317,40.7776024 Z M318.239674,31.2563273 C321.155336,31.2563273 323.941553,31.194571 326.723921,31.2702835 C331.489247,31.4000762 336.299704,31.2598163 341.005555,31.8784253 C348.389169,32.8490797 352.704236,37.4050844 354.046616,44.6605689 C354.995763,49.7905227 354.996463,54.929548 353.51869,59.9809981 C352.509019,63.4323687 350.652008,66.3303757 347.393142,68.0975807 C346.365279,68.6551313 346.59863,69.2744381 346.863467,70.0929698 C349.82391,79.2367295 352.763361,88.3871184 355.706311,97.5364606 C355.899079,98.1358798 356.075404,98.7405326 356.350388,99.6414059 L348.290511,99.6414059 C344.371126,99.6414059 344.366228,99.6428015 343.2544,95.8945125 C340.982465,88.233949 338.717177,80.571641 336.444192,72.9117753 C336.299354,72.4233079 336.114283,71.9467034 335.983438,71.5684901 L329.906169,71.5684901 L329.906169,99.5447592 L318.239674,99.5447592 L318.239674,31.2563273 Z" id="Fill-9" fill="#000000"></path><path d="M700.289132,99.5021578 L700.289132,31.3696866 L712.010204,31.3696866 L712.010204,55.8066609 C712.148745,55.842947 712.286936,55.8792332 712.425127,55.9158682 C713.36133,54.0331755 714.306978,52.1553675 715.231286,50.2674412 C718.110563,44.3883879 721.010831,38.5191039 723.828184,32.6107425 C724.334769,31.5483261 724.942461,31.2036077 726.092772,31.2297756 C729.39467,31.3058369 732.699366,31.2566413 736.306334,31.2566413 C735.943888,32.0584255 735.712637,32.6205119 735.441502,33.1634084 C731.765613,40.5260069 728.106517,47.896979 724.3799,55.2344563 C723.832382,56.3125735 723.808593,57.2193782 724.189581,58.346691 C728.596659,71.392607 732.955108,84.4549214 737.324752,97.513398 C737.524167,98.1089792 737.70539,98.7104918 737.999965,99.641371 C736.103071,99.641371 734.398595,99.641371 732.694468,99.641371 C730.946611,99.641371 729.195604,99.5768236 727.452295,99.6643988 C726.316677,99.7212703 725.860821,99.3147957 725.536159,98.2216756 C722.718106,88.7328486 719.827983,79.264956 716.957802,69.7914808 C716.791623,69.2433507 716.613199,68.6990585 716.226613,68.0769604 C714.791172,71.3154989 711.892654,73.7934239 711.989912,77.8114167 C712.148745,84.3586236 712.032944,90.9124597 712.032944,97.4631556 C712.032944,98.0964186 712.032944,98.7296816 712.032944,99.5021578 L700.289132,99.5021578 Z" id="Fill-11" fill="#000000"></path><path d="M543.857553,74.230358 L536.223795,74.230358 L536.223795,65.0387983 L555.347723,65.0387983 L555.347723,99.633102 C553.616308,99.633102 551.996496,99.6910203 550.38718,99.588791 C550.023334,99.5654144 549.573075,99.0444988 549.37366,98.6474447 C548.753723,97.4144135 548.235244,96.1307912 547.384055,94.2023919 C546.845984,95.0306929 546.546161,95.5781253 546.166572,96.0634524 C540.407318,103.431633 524.294562,102.280944 520.825435,89.5832354 C520.207598,87.3219805 519.940661,84.9023226 519.922119,82.5527947 C519.831857,71.1310327 519.876288,59.708224 519.883635,48.2857641 C519.887484,42.6701342 521.196628,37.4815644 525.87729,33.8993543 C531.600859,29.5195467 538.103897,29.2624036 544.603786,31.6998556 C550.747876,34.0036769 553.693975,39.0523358 554.591694,45.3047177 C554.966735,47.914529 554.9293,50.5829562 555.084984,53.3291894 L543.853005,53.3291894 C543.598663,50.9304659 543.476915,48.5638416 543.072836,46.2460641 C542.372784,42.2322582 540.325803,40.4524925 536.834636,40.5498371 C534.633021,40.6112444 532.980673,41.6701718 532.370532,43.7796529 C531.941964,45.2607557 531.721907,46.8517636 531.71456,48.3953204 C531.662083,59.8174313 531.683773,71.2398911 531.69252,82.662351 C531.69287,83.413544 531.750245,84.1678771 531.83281,84.9152321 C532.214848,88.3606714 533.889587,90.1359013 536.881516,90.295351 C540.320205,90.4785262 542.614881,89.01766 543.120416,85.5976908 C543.665135,81.9125536 543.62945,78.1426325 543.857553,74.230358" id="Fill-13" fill="#000000"></path><path d="M171.56783,45.7918592 C171.424741,45.7932549 171.281652,45.7946505 171.138562,45.7960461 C169.650295,55.1725256 168.162377,64.5490051 166.652418,74.0612087 L176.063771,74.0612087 C174.547864,64.5301642 173.057847,55.1610117 171.56783,45.7918592 M163.995996,31.3304347 L178.711446,31.3304347 C182.922258,54.0630069 187.125023,76.7505703 191.363822,99.6335207 C187.663094,99.6335207 184.177524,99.6638754 180.694404,99.5836272 C180.372541,99.5759513 179.851612,98.8987262 179.786889,98.4772487 C179.155058,94.3566778 178.550514,90.2298266 178.055475,86.0911126 C177.911336,84.8863428 177.590172,84.3779878 176.268434,84.4146229 C172.951143,84.506385 169.628604,84.4857996 166.309913,84.4222988 C165.191438,84.4010156 164.812199,84.7855092 164.677857,85.8765359 C164.161126,90.0707258 163.569877,94.256542 162.924401,98.4329377 C162.85583,98.8767452 162.255485,99.5759513 161.887092,99.5853717 C158.461347,99.6743426 155.032453,99.6380564 151.356564,99.6380564 C155.587667,76.7711557 159.784485,54.0909193 163.995996,31.3304347" id="Fill-15" fill="#000000"></path><path d="M636.202336,89.3242779 L657.016046,89.3242779 L657.016046,99.5321986 L624.388204,99.5321986 L624.388204,31.3585565 C624.871699,31.3257594 625.376884,31.2612119 625.88172,31.260863 C635.259837,31.2549316 644.638303,31.2887754 654.01642,31.2233517 C655.494892,31.213063 655.914014,31.6610573 655.860837,33.0866842 C655.75973,35.8001202 655.831449,38.5198366 655.831449,41.4223793 L636.236972,41.4223793 L636.236972,59.020113 L651.160933,59.020113 L651.160933,69.3334031 L636.202336,69.3334031 L636.202336,89.3242779 Z" id="Fill-17" fill="#000000"></path><polygon id="Fill-19" fill="#000000" points="693.486376 31.3449841 693.486376 41.5075471 673.963268 41.5075471 673.963268 58.9950268 688.915218 58.9950268 688.915218 69.3163416 673.977962 69.3163416 673.977962 89.2402266 694.841701 89.2402266 694.841701 99.5050189 662.134442 99.5050189 662.134442 31.3449841"></polygon><path d="M274.935382,31.3572307 C274.071249,35.5022249 273.241401,39.515333 272.39721,43.525301 C268.580331,61.6582554 264.739662,79.7859762 260.979459,97.9307933 C260.692231,99.316296 260.185297,99.7095122 258.824725,99.6714816 C255.51583,99.5790217 252.202387,99.6414757 248.780841,99.6414757 C243.992424,76.8548232 239.233046,54.2066861 234.438332,31.3903767 L246.060746,31.3903767 C248.87565,46.9382921 251.696152,62.5169112 254.516654,78.0955303 C254.632805,78.0916923 254.748606,78.0878543 254.864757,78.0840164 C257.674413,62.5141199 260.48372,46.9442235 263.296525,31.3572307 L274.935382,31.3572307 Z" id="Fill-21" fill="#000000"></path><polygon id="Fill-23" fill="#000000" points="292.250508 41.4722379 292.250508 59.0294986 307.26648 59.0294986 307.26648 69.3274368 292.283044 69.3274368 292.283044 89.224805 313.120194 89.224805 313.120194 99.5133228 280.504946 99.5133228 280.504946 31.364453 311.829592 31.364453 311.829592 41.4722379"></polygon><path d="M451.288655,46.8879451 C447.507461,47.3010489 443.88265,47.6974052 440.265187,48.0927149 C439.897143,46.7721085 439.66974,45.5118628 439.19849,44.3500083 C438.057274,41.5357386 435.476421,40.1237191 432.642274,40.6292828 C429.908885,41.1170523 428.301318,43.0813889 428.000096,46.1545462 C427.735958,48.850886 428.458051,51.3054343 430.220253,53.2561635 C432.507232,55.78782 435.069193,58.0734982 437.517104,60.460359 C440.754979,63.6172536 444.229703,66.5696898 447.18035,69.9725626 C451.185448,74.5913702 452.563163,80.1996731 451.680838,86.2266623 C450.469303,94.5047881 444.367894,99.8796733 435.82977,100.411405 C423.927126,101.152829 416.26643,94.1450667 415.58317,81.6106459 C419.196785,81.0761231 422.841537,80.5374134 426.681856,79.9693956 C426.78961,80.546136 426.83789,81.0387902 426.976781,81.5045787 C427.534094,83.3771531 427.869601,85.3683554 428.749828,87.0807823 C430.255238,90.0094929 433.00472,90.9023414 436.355947,89.9547148 C439.199889,89.1504882 440.789614,86.8271282 440.639877,83.5896364 C440.514981,80.8905055 439.587524,78.3975775 437.732962,76.4880191 C434.950244,73.6231582 431.982105,70.9243761 428.967785,68.2967707 C425.010966,64.8481913 421.06919,61.4114747 418.752124,56.5711123 C416.31226,51.4736067 415.974654,46.1433813 417.666535,40.827461 C419.736256,34.3245651 424.776215,31.3110705 431.276804,30.5647622 C433.676785,30.2894759 436.209009,30.2594701 438.568757,30.705371 C445.335233,31.9844576 450.092863,37.6691707 451.108831,45.2337853 C451.170055,45.6901534 451.209238,46.1493127 451.288655,46.8879451" id="Fill-25" fill="#000000"></path><polygon id="Fill-27" fill="#000000" points="392.398832 31.3786883 392.398832 41.4896134 381.173849 41.4896134 381.173849 99.5481436 369.321234 99.5481436 369.321234 41.5101988 357.935319 41.5101988 357.935319 31.3786883"></polygon><mask id="mask-2" fill="white"><use xlink:href="#path-1"></use></mask><g id="Clip-30"></g><polygon id="Fill-29" fill="#000000" mask="url(#mask-2)" points="398.421279 99.5112643 410.099669 99.5112643 410.099669 31.3578587 398.421279 31.3578587"></polygon><polygon id="Fill-31" fill="#000000" mask="url(#mask-2)" points="457.498237 99.5276628 469.07447 99.5276628 469.07447 31.3397156 457.498237 31.3397156"></polygon><path d="M75.641268,66.9594867 C75.5496069,68.1900755 74.8890874,69.0127941 73.5148711,69.1139766 C72.2407123,69.208181 71.0589142,68.1530916 71.134832,66.921805 C71.2152978,65.625622 71.9527846,64.7760377 73.2864181,64.6298464 C74.525242,64.4941223 75.6188775,65.5802643 75.641268,66.9594867" id="Fill-32" fill="#000000" mask="url(#mask-2)"></path></g></g></svg> 