<?xml version="1.0" encoding="UTF-8"?> <svg xmlns="http://www.w3.org/2000/svg" xmlns:xlink="http://www.w3.org/1999/xlink" width="888px" height="500px" viewBox="0 0 888 500" version="1.1"><title>TechCrunch</title><defs><polygon id="path-1" points="0 0 300.02485 0 300.02485 299.953 0 299.953"></polygon><polygon id="path-3" points="0 0 300.025027 0 300.025027 200.014517 0 200.014517"></polygon><polygon id="path-5" points="0 0 200.05285 0 200.05285 100.036842 0 100.036842"></polygon></defs><g id="TechCrunch" stroke="none" stroke-width="1" fill="none" fill-rule="evenodd"><g id="Group-10" transform="translate(144.000000, 100.000000)"><g id="Group-3"><mask id="mask-2" fill="white"><use xlink:href="#path-1"></use></mask><g id="Clip-2"></g><path d="M0.04835,100.015833 C0.04835,67.3592245 0.06535,34.7031157 -0.000169622391,2.04700682 C-0.000169622391,0.335001117 0.33635,-2.22214489e-06 2.04785,-2.22214489e-06 C101.36385,0.0530001767 200.67935,0.0475001583 299.99485,0.0475001583 C299.98485,33.3801113 299.97485,66.7132224 299.96485,100.045833 L300.02485,99.9858333 C267.88635,99.9958333 235.74785,100.000833 203.60935,100.022333 C199.60135,100.024833 200.01985,99.6188321 200.01885,103.649845 C200.01035,169.084064 200.01285,234.518782 200.01285,299.953 L100.03035,299.953 C100.03035,234.441781 100.03085,168.931063 100.02985,103.420345 C100.02985,100.021833 100.02535,100.016833 96.70485,100.016833 C64.48585,100.015333 32.26735,100.015833 0.04835,100.015833" id="Fill-1" fill="#0A9D01" mask="url(#mask-2)"></path></g><g id="Group-6" transform="translate(299.965100, 99.985483)"><mask id="mask-4" fill="white"><use xlink:href="#path-3"></use></mask><g id="Clip-5"></g><path d="M299.9765,99.9988333 C299.9765,132.655442 299.9595,165.311551 300.025027,197.96766 C300.0285,199.679666 299.6885,200.014669 297.977,200.014669 C198.661,199.961667 99.3455,199.967167 0.03,199.967167 C0.03,168.262061 0.026,136.556955 0.031,104.85185 C0.0365,69.901233 0.05,34.9506165 0.06,0 C0.06,0 0,0.0605002017 0,0.0605002017 L100.042,0.0605002017 L99.982,0 C99.992,32.1346071 99.997,64.2687142 100.0185,96.4028213 C100.021,100.410335 99.6155,99.9918333 103.6465,99.9923333 C169.09,100.001333 234.533,99.9988333 299.9765,99.9988333" id="Fill-4" fill="#0A9D01" mask="url(#mask-4)"></path></g><g id="Group-9" transform="translate(399.947150, 0.008842)"><mask id="mask-6" fill="white"><use xlink:href="#path-5"></use></mask><g id="Clip-8"></g><path d="M0.03,0.0385083072 C65.9635,0.0385083072 131.8965,0.0455083305 197.83,0 C199.515,-0.00149182618 200.0575,0.20150885 200.053028,2.11951524 C199.9715,34.748624 199.9945,67.3777328 199.9945,100.006842 C168.4515,100.006842 136.908,100.010842 105.365,100.005842 C70.2435,100.000342 35.1215,99.9868415 0,99.9768414 L0.06,100.036842 C0.05,66.7042305 0.04,33.3711194 0.03,0.0385083072" id="Fill-7" fill="#0A9D01" mask="url(#mask-6)"></path></g></g></g></svg> 