<?xml version="1.0" encoding="UTF-8"?> <svg xmlns="http://www.w3.org/2000/svg" xmlns:xlink="http://www.w3.org/1999/xlink" width="888px" height="369px" viewBox="0 0 888 369" version="1.1"><title>Bitly-Egoditor_Full-Color_3</title><g id="Bitly-Egoditor_Full-Color_3" stroke="none" stroke-width="1" fill="none" fill-rule="evenodd"><rect fill="#FFFFFF" x="0" y="0" width="888" height="369"></rect><g id="Master_logomark_black" transform="translate(136.000000, 77.000000)" fill="#FF6116" fill-rule="nonzero"><path d="M35.9438779,188.948302 C11.9812926,165.81117 0,139.414874 0,109.759415 C0,46.39127 49.1512293,0 107.628866,0 C166.713402,0 216,46.39127 216,109.759415 C216,169.654603 163.15628,216 117.004233,216 C97.8886948,216 84.0801887,208.770946 76.8589246,197.513954 C74.3031777,193.529884 72.0249539,187.106939 71.5648255,183.214342 C71.2580731,180.619278 71.2580731,172.008944 71.5648255,157.383346 C71.5648255,148.862257 71.5648255,137.97321 71.5648255,124.716202 C71.836701,104.985243 73.9421613,78.8807478 66.1189192,84.8982226 C63.7989576,87.1370103 62.8652087,89.4645621 57.8972868,89.677429 C52.925749,89.3147519 51.5277338,83.9878717 52.3491914,81.1220263 C55.2985242,70.8364943 63.9713578,62.597193 77.7503765,64.0844891 C91.5293952,65.5717851 96.8289264,74.6941381 97.193142,87.0095425 C97.193142,101.900805 96.8289264,118.149063 96.8289264,120.037202 L96.8289264,121.631928 C96.8968436,123.111537 96.6824686,124.308113 98.4247488,123.31666 C100.206799,122.104865 101.743714,121.054817 103.035494,120.166515 C112.466693,113.019033 135.610348,105.479488 153.571417,123.31666 C160.406788,130.104879 168.822812,144.843748 163.922516,167.587259 C163.135119,169.970834 163.765706,170.286353 165.814275,168.533815 C167.506156,166.847681 190.693315,145.959595 190.693315,106.432063 C190.693315,62.1234176 151.84365,25.1332054 107.628866,25.1332054 C69.1007566,25.1332054 25.0089594,55.804846 25.0089594,109.759415 C25.0089594,126.522197 31.0164329,147.255577 45.7238795,163.447866 C48.1263699,166.207461 49.9472649,168.145802 51.1865644,169.262886 C57.8972868,175.034304 58.7803656,182.298313 54.3215361,187.577052 C48.589765,193.359937 42.463879,193.81702 35.9438779,188.948302 Z M117.283952,191.398956 C137.299107,191.075688 140.527358,170.278845 140.634966,158.533477 C140.634966,141.184816 131.811081,135.042743 118.575252,137.736634 C107.922025,139.891747 97.161189,150.990582 95.977497,166.399641 C95.7622804,168.985777 95.654672,173.188248 95.8698888,177.175208 C96.4079305,187.735263 105.231816,191.614467 117.283952,191.398956 L117.283952,191.398956 Z" id="Shape"></path></g><g id="Egoditor_Blue" transform="translate(535.000000, 77.000000)" fill="#00BFFF" fill-rule="nonzero"><path d="M61.5,134.826923 L61.5,81.1730769 C61.5,70.4423077 70.4423077,61.5 81.1730769,61.5 L134.826923,61.5 C145.557692,61.5 154.5,70.4423077 154.5,81.1730769 L154.5,154.5 L154.5,154.5 L81.1730769,154.5 C70.4423077,154.5 61.5,145.557692 61.5,134.826923 C61.5,134.826923 61.5,134.826923 61.5,134.826923 Z" id="Path"></path><path d="M148.5,30.6 C169.2,30.6 185.4,46.8 185.4,67.5 L185.4,184.5 L68.4,184.5 C47.7,184.5 31.5,168.3 31.5,147.6 L31.5,67.5 C31.5,46.8 47.7,30.6 68.4,30.6 L148.5,30.6 M148.5,0 L67.5,0 C30.6,0 0,30.6 0,67.5 L0,147.6 C0,185.4 30.6,216 67.5,216 L216,216 L216,67.5 C216,30.6 185.4,0 148.5,0 L148.5,0 Z" id="Shape"></path></g><g id="+" transform="translate(423.000000, 164.000000)" fill="#D3D4D7" fill-rule="nonzero"><polygon points="42 25.3361345 42 19.0021008 24.5 19.0021008 24.5 0 17.5 0 17.5 19.0021008 0 19.0021008 0 25.3361345 17.5 25.3361345 17.5 45 24.5 45 24.5 25.3361345"></polygon></g></g></svg> 