<?xml version="1.0" encoding="UTF-8"?> <svg xmlns="http://www.w3.org/2000/svg" xmlns:xlink="http://www.w3.org/1999/xlink" width="888px" height="500px" viewBox="0 0 888 500" version="1.1"><title>Mediapost</title><defs><polygon id="path-1" points="1.42108547e-14 0 54.2167388 0 54.2167388 104.115 1.42108547e-14 104.115"></polygon></defs><g id="Mediapost" stroke="none" stroke-width="1" fill="none" fill-rule="evenodd"><g id="Group-38" transform="translate(69.000000, 165.000000)"><path d="M168.24,4.12836735 L168.24,169.178367 L0,169.178367 L0,0.198367347 L164.1,0.198367347 L164.1,0.208367347 C164.25,0.218367347 164.41,0.238367347 164.56,0.248367347 C165.86,0.368367347 167.01,2.40836735 168.12,3.66836735 C168.21,3.76836735 168.24,3.93836735 168.24,4.12836735" id="Fill-1" fill="#FFFFFF"></path><path d="M84.69,0.248267347 L84.69,120.348267 C84.4,120.368267 84.1,120.378267 83.81,120.398267 C70.71,80.4982673 57.61,40.6082673 44.36,0.248267347 L84.69,0.248267347 Z" id="Fill-3" fill="#E40000"></path><path d="M120.69,0.248267347 C108.56,40.7782673 96.66,80.5582673 84.75,120.348267 L84.69,120.348267 L84.69,0.248267347 L120.69,0.248267347 Z" id="Fill-5" fill="#FF8500"></path><path d="M282.4392,157.849067 C277.2162,157.849067 272.6042,158.019067 268.0262,157.706067 C267.1102,157.643067 265.7912,155.852067 265.5502,154.675067 C262.6852,140.686067 259.9942,126.661067 257.2332,112.651067 C257.1452,112.207067 256.7912,111.815067 256.0692,110.511067 C254.8322,112.547067 253.6402,113.989067 252.9982,115.645067 C247.8322,128.967067 242.8562,142.365067 237.5582,155.634067 C236.9462,157.167067 234.7332,158.961067 233.2382,158.983247 C231.7972,159.004067 229.5912,157.182067 228.9802,155.663067 C223.7052,142.558067 218.7362,129.331067 213.6152,116.164067 C212.9172,114.370067 211.8852,112.705067 210.6572,110.290067 C209.8392,111.576067 209.2302,112.144067 209.0922,112.809067 C206.2812,126.326067 203.4562,139.841067 200.8062,153.390067 C200.1992,156.494067 199.0042,158.177067 195.5932,158.013067 C191.8312,157.832067 188.0542,157.972067 183.6602,157.972067 C185.2222,150.372067 186.5812,143.595067 188.0102,136.832067 C192.5462,115.359067 197.1392,93.8990673 201.6392,72.4190673 C202.9212,66.3000673 203.8972,65.2150673 209.2672,66.1690673 C210.6372,66.4130673 212.3942,67.9500673 212.8602,69.2820673 C218.9522,86.7010673 224.8202,104.198067 230.8322,121.645067 C231.2722,122.924067 232.3902,123.969067 233.1932,125.122067 C234.0282,123.884067 235.1862,122.755067 235.6472,121.391067 C241.5562,103.897067 247.4812,86.4060673 253.1112,68.8210673 C254.3872,64.8340673 257.2442,65.9430673 259.5292,66.2040673 C260.8932,66.3600673 262.8792,68.1080673 263.1832,69.4570673 C267.9392,90.5500673 272.4682,111.693067 277.0442,132.827067 C278.7922,140.899067 280.5262,148.975067 282.4392,157.849067" id="Fill-7" fill="#000000"></path><path d="M405.9591,124.579467 L405.9241,124.579467 C405.9241,120.923467 405.9241,117.267467 405.9241,113.611467 C405.9241,113.113467 405.9261,112.614467 405.9331,112.116467 C406.0211,106.080467 404.8811,104.622467 398.9781,103.219467 C385.0381,99.9054673 374.3001,108.645467 373.4251,124.019467 C372.5361,139.628467 386.3061,150.611467 400.4911,145.613467 C404.0751,144.350467 406.4391,142.476467 406.0451,138.031467 C405.6521,133.580467 405.9591,129.066467 405.9591,124.579467 M422.5981,61.9784673 C422.5981,64.7194673 422.5981,66.6784673 422.5981,68.6374673 C422.5981,96.6354673 422.5141,124.633467 422.688517,152.630467 C422.7141,156.773467 421.5291,158.575467 417.3901,157.949467 C413.2501,157.322467 409.1351,156.504467 404.9801,156.013467 C403.8061,155.875467 402.4871,156.477467 401.3081,156.931467 C387.9691,162.067467 373.4671,159.563467 364.9891,149.816467 C361.9491,146.320467 359.3761,141.728467 358.4021,137.243467 C354.1381,117.606467 359.1611,97.7164673 380.6631,91.2584673 C386.9951,89.3574673 394.4361,90.4404673 401.2591,91.1764673 C404.8571,91.5654673 406.1681,91.6114673 406.0111,87.6524673 C405.7801,81.8284673 406.0981,75.9824673 405.8621,70.1584673 C405.7271,66.8404673 407.0811,65.2124673 410.1671,64.5964673 C414.0461,63.8214673 417.9091,62.9694673 422.5981,61.9784673" id="Fill-9" fill="#000000"></path><path d="M43.9696,62.3427673 C56.0646,97.7157673 68.1596,133.088767 80.4636,169.072767 L23.2286,169.072767 C29.6606,133.416767 36.0576,97.9577673 42.4536,62.4997673 C42.9586,62.4467673 43.4646,62.3947673 43.9696,62.3427673" id="Fill-11" fill="#E40000"></path><path d="M553.8906,94.4123673 L553.9086,94.4123673 C553.9086,98.3963673 553.6596,102.405367 554.0506,106.350367 C554.1796,107.648367 555.9226,109.775367 556.9986,109.820367 C561.9516,110.029367 567.0256,110.180367 571.8776,109.332367 C579.4356,108.012367 583.8746,102.567367 584.4376,95.2603673 C584.8756,89.5673673 581.2726,83.8343673 575.2926,81.8753673 C571.4056,80.6023673 567.2276,79.7153673 563.1556,79.6093673 C553.0306,79.3443673 553.9306,78.5093673 553.8916,88.4353673 C553.8836,90.4273673 553.8906,92.4203673 553.8906,94.4123673 M537.4876,66.1853673 C543.9156,65.8963673 550.1736,65.3033673 556.4196,65.4063673 C566.3666,65.5693673 576.3096,65.7583673 585.8566,69.4783673 C595.1126,73.0853673 600.5066,79.8153673 601.0256,89.6093673 C601.6006,100.474367 600.4466,110.907367 590.3316,117.396367 C586.1066,120.107367 581.0646,122.052367 576.1336,123.022367 C570.5366,124.123367 564.6476,123.960367 558.8876,123.928367 C555.2706,123.908367 553.7276,125.066367 553.7996,128.792367 C553.9556,136.943367 553.7626,145.101367 553.9306,153.251367 C554.0006,156.628367 552.8876,157.934367 549.3726,158.021367 C537.2446,158.321367 537.2686,158.435367 537.276157,146.572367 C537.2926,121.274367 537.2826,95.9773673 537.2946,70.6793673 C537.2956,69.3713673 537.4036,68.0633673 537.4876,66.1853673" id="Fill-13" fill="#000000"></path><g id="Group-17" transform="translate(89.783800, 65.063567)"><mask id="mask-2" fill="white"><use xlink:href="#path-1"></use></mask><g id="Clip-16"></g><path d="M1.42108547e-14,103.135 C11.568,68.552 23.032,34.276 34.497,0 C34.882,0.053 35.267,0.105 35.651,0.158 C37.273,8.923 38.908,17.687 40.515,26.455 C44.974,50.792 49.387,75.137 53.922,99.46 C54.423,102.151 54.713,104.125 51.084,104.115038 C34.768,104.069 18.452,104.065 2.136,104.014 C1.687,104.012 1.239,103.658 1.42108547e-14,103.135" id="Fill-15" fill="#FF8500" mask="url(#mask-2)"></path></g><path d="M168.24,4.12836735 C168.24,4.41836735 168.17,4.77836735 168.16,5.07836735 L168.16,163.918367 C168.01,163.948367 167.85,163.978367 167.7,163.998367 C156.71,109.698367 145.72,55.3983673 134.54,0.198367347 C134.54,0.158367347 134.53,0.118367347 134.52,0.0783673469 C140.28,0.0783673469 145.69,0.0683673469 151.09,0.0783673469 C155.38,0.0783673469 159.68,-0.161632653 163.93,0.198367347 C163.99,0.198367347 164.04,0.198367347 164.1,0.208367347 C164.25,0.218367347 164.41,0.238367347 164.56,0.248367347 C165.86,0.368367347 167.01,2.40836735 168.12,3.66836735 C168.21,3.76836735 168.24,3.93836735 168.24,4.12836735" id="Fill-18" fill="#FF8500"></path><path d="M32.1471,0.202267347 C21.6881,56.0542673 11.2711,111.685267 0.8531,167.316267 C0.5701,167.287267 0.2861,167.257267 0.0021,167.228267 L0.0021,0.202267347 L32.1471,0.202267347 Z" id="Fill-20" fill="#E40000"></path><path d="M317.5908,117.759867 C321.9138,117.759867 326.2358,117.787867 330.5588,117.752867 C335.5528,117.712867 336.2698,116.639867 334.3488,112.216867 C331.4508,105.543867 325.6408,101.897867 318.1198,102.032867 C310.6428,102.166867 303.7788,106.822867 301.3198,113.299867 C300.2338,116.160867 300.6788,117.809867 304.1248,117.775867 C308.6128,117.732867 313.1018,117.765867 317.5908,117.759867 M350.1478,129.588867 L300.0118,129.588867 C299.2418,143.488867 318.4708,152.879867 337.5178,141.619867 C339.2548,144.730867 341.2298,147.747867 342.5708,151.023867 C342.9248,151.889867 341.6598,154.150867 340.5708,154.762867 C330.2228,160.572867 305.0538,162.323867 293.1138,151.617867 C283.5018,142.997867 282.0228,131.919867 283.0358,120.099867 C284.5168,102.836867 298.8238,90.0298673 316.1768,89.6878673 C324.3908,89.5258673 332.1268,90.7958673 338.9858,95.4308673 C349.7338,102.691867 353.5988,114.157867 350.1478,129.588867" id="Fill-22" fill="#000000"></path><path d="M499.0768,124.864267 C495.2338,125.763267 491.2648,126.313267 487.5828,127.653267 C483.3858,129.181267 480.4438,132.618267 480.7778,137.105267 C480.9978,140.048267 482.4668,143.882267 484.6958,145.509267 C491.6748,150.605267 503.2288,146.703267 506.5758,138.753267 C509.9858,130.655267 507.0808,125.406267 499.0768,124.864267 M475.2058,104.456267 C474.3018,101.496267 473.1648,98.4082673 472.5158,95.2212673 C472.3468,94.3902673 473.5078,92.6102673 474.3828,92.3472673 C486.4648,88.7152673 498.5878,88.0642673 510.5058,92.9592673 C518.5328,96.2572673 521.7628,103.162267 522.4688,111.161267 C523.1538,118.938267 522.9548,126.791267 523.2168,134.608267 C523.4388,141.249267 523.4138,147.921267 527.7508,153.679267 C528.2438,154.334267 527.2308,157.040267 526.1958,157.768267 C521.8198,160.843267 514.9858,159.749267 511.3918,155.343267 C509.3818,152.878267 508.2148,152.711267 505.3858,154.557267 C495.7148,160.867267 485.2028,160.944267 474.8628,156.502267 C466.8218,153.048267 464.3718,145.969267 464.5768,137.641267 C464.8118,128.091267 469.6468,121.642267 478.0438,117.822267 C485.9188,114.239267 494.3098,113.279267 502.9178,113.929267 C504.1318,114.021267 505.3868,113.577267 506.6228,113.381267 C506.4018,111.984267 506.5168,110.414267 505.9018,109.220267 C502.5278,102.668267 496.0568,102.226267 489.9608,102.160267 C485.3988,102.111267 480.8208,103.522267 475.2058,104.456267" id="Fill-24" fill="#000000"></path><path d="M616.617809,124.553151 C616.5532,127.211152 616.5532,128.182667 616.7062,129.997667 C617.5162,139.649667 623.5532,146.181667 632.4422,147.124667 C639.9942,147.925667 646.8862,142.893667 649.6792,134.175667 C652.0872,126.663667 651.8442,119.084667 648.9402,111.739667 C646.5962,105.808667 642.0542,102.451667 635.6732,101.967667 C629.2282,101.479667 623.5172,103.531667 620.4912,109.384667 C618.1332,113.944667 616.682417,121.895149 616.617809,124.553151 Z M667.7942,123.881667 C668.0352,144.954667 655.4082,159.968667 632.7462,159.362667 C612.2562,158.814667 599.5252,145.795667 599.7652,123.845667 C599.9932,102.864667 614.0352,88.9176673 634.3242,89.7506673 C655.4922,89.7606673 667.5472,102.270667 667.7942,123.881667 Z" id="Fill-26" fill="#000000"></path><path d="M770.502,143.873367 C770.502,148.147367 770.662,151.912367 770.382,155.643367 C770.317,156.507367 768.861,157.746367 767.851,157.983367 C759.472,159.949367 750.967,160.513367 742.864,157.208367 C736.73,154.705367 733.068,149.566367 732.755,142.894367 C732.303,133.267367 732.402,123.613367 732.345,113.969367 C732.29,104.637367 732.334,104.637367 723.62,102.341367 C723.62,100.155367 723.71,97.8513673 723.597,95.5583673 C723.457,92.7193673 724.376,91.0293673 727.531,91.2983673 C731.301,91.6183673 732.363,89.6623673 732.393,86.1513673 C732.474,76.7763673 732.585,76.7773673 741.509,73.6793673 C743.366,73.0353673 745.222,72.3903673 748.183,71.3623673 C748.183,74.8283673 748.177,77.6803673 748.184,80.5333673 C748.215,93.2533673 747.408,91.1943673 758.703,91.3063673 C760.534,91.3243673 762.373,91.4403673 764.192,91.3083673 C767.178,91.0903673 768.554,92.2393673 768.229,95.3363673 C768.073,96.8183673 768.067,98.3453673 768.231,99.8253673 C768.538,102.584367 767.163,103.302367 764.712,103.251367 C760.552,103.165367 756.385,103.348367 752.229,103.204367 C749.19,103.098367 748.11,104.359367 748.15,107.340367 C748.268,116.163367 747.991,124.995367 748.266,133.811367 C748.604,144.692367 754.113,148.604367 764.731,145.873367 C766.446,145.432367 768.09,144.718367 770.502,143.873367" id="Fill-28" fill="#000000"></path><path d="M676.782,143.224467 C683.557,144.759467 689.377,146.498467 695.324,147.271467 C699.015,147.751467 702.856,146.336467 704.008,142.094467 C705.196,137.716467 702.727,134.620467 699.113,132.695467 C694.134,130.042467 688.868,127.930467 683.868,125.313467 C677.589,122.025467 672.458,117.565467 671.722,109.935467 C670.723,99.5674673 676.972,92.1274673 688.618,90.2274673 C696.759,88.8984673 704.877,89.5454673 712.779,92.2654673 C716.224,93.4514673 717.322,95.1884673 715.364,98.5754673 C714.147,100.679467 713.339,103.020467 712.769,104.307467 C706.697,103.295467 701.415,102.108467 696.068,101.632467 C692.491,101.314467 688.91,103.160467 688.802,106.924467 C688.735,109.283467 690.769,112.678467 692.863,113.928467 C697.961,116.973467 703.7,118.924467 709.079,121.525467 C718.337,126.001467 721.742,132.081467 720.779,141.945467 C719.996,149.960467 714.713,155.625467 705.27,157.900467 C694.997,160.376467 684.849,160.228467 675.05,155.537467 C672.754,154.437467 672.014,153.183467 673.135,150.880467 C674.51,148.054467 675.84,145.206467 676.782,143.224467" id="Fill-30" fill="#000000"></path><path d="M429.799,102.903867 C428.471,91.3378673 428.471,91.3438673 439.129,91.3558673 C443.117,91.3608673 447.106,91.3928673 451.092,91.2928673 C453.868,91.2228673 454.854,92.4018673 454.843091,95.1848673 C454.765,114.803867 454.784,134.421867 454.835,154.040867 C454.842,156.699867 453.992,158.023867 451.108,157.973867 C435.813,157.705867 438.87,159.951867 438.638,146.350867 C438.432,134.218867 438.341,122.073867 438.714,109.950867 C438.874,104.730867 437.398,102.414867 432.062,103.185867 C431.443,103.274867 430.777,103.035867 429.799,102.903867" id="Fill-32" fill="#000000"></path><path d="M446.9263,82.6739923 C442.0203,82.7008673 437.3993,78.3488673 437.372181,73.6758673 C437.3453,68.9878673 441.9153,64.5898673 446.8233,64.5818563 C451.6993,64.5738673 456.3173,68.9308673 456.3533,73.5728673 C456.3883,78.2278673 451.8103,82.6468673 446.9263,82.6739923" id="Fill-34" fill="#000000"></path><path d="M168.24,0.198367347 L168.24,4.12836735 C168.24,3.93836735 168.21,3.76836735 168.12,3.66836735 C167.01,2.40836735 165.86,0.368367347 164.56,0.248367347 C164.41,0.238367347 164.25,0.218367347 164.1,0.208367347 L164.1,0.198367347 L168.24,0.198367347 Z" id="Fill-36" fill="#FF8500"></path></g></g></svg> 