<?xml version="1.0" encoding="UTF-8"?> <svg xmlns="http://www.w3.org/2000/svg" xmlns:xlink="http://www.w3.org/1999/xlink" width="888px" height="500px" viewBox="0 0 888 500" version="1.1"><title>The Information</title><g id="The-Information" stroke="none" stroke-width="1" fill="none" fill-rule="evenodd"><g id="the-information-logo-df91ff4c4e75eb3654f741eabe34f3d4d28d4418f7da78991493134900c599c7" transform="translate(57.000000, 185.000000)" fill-rule="nonzero"><path d="M204.165636,87.0380844 C206.697895,87.1990871 209.805456,87.4428913 212.014251,87.8522983 C212.340025,88.8252148 212.41858,91.355258 212.254538,92.3281746 L188.715626,92.3281746 C188.794181,91.1068538 189.367174,89.1541205 189.776125,88.013301 C191.411927,87.6084941 194.68353,87.1208858 196.642796,86.955283 L196.642796,40.809596 L183.39927,40.809596 C183.237538,42.6841279 182.664545,46.265289 182.338771,47.732714 C181.11192,48.0570196 178.905436,48.2203224 177.433676,48.2203224 L177.433676,35.8461113 L223.379377,35.8461113 L223.379377,48.5446279 C221.745886,48.5446279 219.701133,48.2985237 218.393416,47.9742182 C217.986776,46.1824876 217.494649,42.8451307 217.330607,40.809596 L204.167947,40.809596 L204.167947,87.0380844 L204.165636,87.0380844 Z M240.287284,87.3646899 C242.24886,87.5256927 244.78574,87.9327996 246.252878,88.4204079 C246.500097,89.3979246 246.585584,91.1896552 246.421542,92.3281746 L226.79885,92.3281746 C226.962892,91.1068538 227.374153,89.7245302 227.942525,88.6688122 C229.252553,88.0961024 231.539903,87.4428913 233.178015,87.1208858 L233.178015,38.288753 L227.290977,38.288753 C227.374153,36.9041294 227.942525,35.1952002 228.762737,33.9761794 C230.726623,33.2424669 233.50379,32.8399601 236.119224,32.8399601 C237.593294,32.8399601 239.062743,32.9986628 240.289595,33.3229683 L240.289595,49.0322362 C240.289595,52.364993 240.125553,55.8679528 239.880644,59.2030097 L240.698545,59.2030097 C242.003952,56.0312556 246.252878,52.2890918 253.533121,52.2890918 C260.074018,52.2890918 265.880191,54.3223264 265.880191,66.9357415 C265.880191,73.7714581 265.716148,80.5289734 265.388064,87.3646899 C267.594548,87.5256927 270.376335,87.9327996 272.009827,88.4204079 C272.171559,89.071319 272.254735,90.0511358 272.254735,90.943551 C272.254735,91.4334593 272.254735,91.8428663 272.171559,92.3304746 L252.796086,92.3304746 C252.957818,91.1091538 253.371389,89.7268302 253.939761,88.6711122 C255.166612,88.0984025 257.211365,87.4451913 258.599948,87.1231858 L258.599948,68.076561 C258.599948,61.8112541 256.555196,57.8206861 250.751334,57.8206861 C246.500097,57.8206861 242.003952,60.7532361 240.287284,63.032575 L240.287284,87.3646899 Z M284.4239,73.9347609 C284.587942,82.6427094 290.06603,88.013301 297.750602,88.013301 C301.267114,88.013301 306.169899,86.8747816 309.196595,85.7339621 C309.358326,86.955283 308.870821,89.1541205 308.133785,90.3777413 C305.192577,92.0061691 300.287481,93.7173983 295.218344,93.7173983 C283.525133,93.7173983 276.822504,85.0071497 276.822504,73.7714581 C276.822504,61.8089541 284.262168,52.2890918 295.70585,52.2890918 C305.518351,52.2890918 309.686411,59.3709125 309.686411,69.6244874 C309.686411,71.0045109 309.603235,72.471936 309.443813,73.9347609 L284.4239,73.9347609 L284.4239,73.9347609 Z M302.406168,69.2150804 C302.983782,63.6006847 301.34567,56.762668 294.478998,56.762668 C288.675136,56.762668 284.916027,61.8089541 284.4239,69.2150804 L302.406168,69.2150804 Z M332.559912,92.3281746 C332.640778,91.1068538 333.130594,89.1541205 333.539545,88.013301 C335.011305,87.6084941 338.116556,87.1208858 339.914089,86.955283 L339.914089,41.0557002 C338.03569,40.9728988 335.258523,40.7313946 333.865319,40.4852904 C333.620411,39.4295724 333.539545,36.9064294 333.705898,35.8438113 L354.308222,35.8438113 C354.55082,36.823628 354.469954,39.344471 354.141869,40.4047891 C352.263469,40.7290946 349.567169,40.9705987 347.43693,41.0534001 L347.43693,87.0357843 C349.812077,87.1967871 352.670109,87.4405912 354.712551,87.8499982 C354.95746,88.7470135 355.040636,89.8855329 355.040636,91.0240523 C355.040636,91.5139607 355.040636,91.7554648 354.95746,92.3258745 L332.559912,92.3258745 L332.559912,92.3281746 Z M373.674453,87.3646899 C375.719205,87.5256927 378.172908,87.9327996 379.642357,88.4204079 C379.889576,89.3979246 379.968131,91.1896552 379.804089,92.3281746 L360.183708,92.3281746 C360.34775,91.1068538 360.759011,89.7245302 361.329694,88.6688122 C362.6351,88.0961024 364.927071,87.4428913 366.562873,87.1208858 L366.562873,58.227793 L360.592658,58.227793 C360.675835,56.8431694 361.251138,55.1342403 362.064418,53.9152195 C363.781086,53.2643084 366.401141,52.7790001 368.850223,52.7790001 C370.243428,52.7790001 371.546524,52.9400029 372.69482,53.2643084 L372.69482,59.2053097 L373.51041,59.2053097 C374.977549,56.4383625 379.311962,52.2913918 386.675381,52.2913918 C393.133102,52.2913918 398.853788,54.3246265 398.853788,66.9380416 C398.853788,73.7737582 398.692056,80.450772 398.363971,87.36699 C400.572766,87.5279927 403.349932,87.9350997 404.983424,88.422708 C405.147466,89.0736191 405.228332,90.0534358 405.228332,90.945851 C405.228332,91.4357594 405.228332,91.8451664 405.147466,92.3327747 L385.771993,92.3327747 C385.933725,91.1114538 386.344986,89.7291303 386.915668,88.6734123 C388.147141,88.1007025 390.187272,87.4474914 391.578166,87.1254859 L391.578166,68.078861 C391.578166,61.8135542 389.61659,57.8229861 383.893594,57.8229861 C379.723223,57.8229861 375.38881,60.7555361 373.674453,63.034875 L373.674453,87.3646899 L373.674453,87.3646899 Z M433.831761,53.6714153 C434.076669,55.1342403 434.240711,57.172075 434.240711,58.3887958 L423.120493,58.3887958 L423.120493,87.1208858 C425.412464,87.2818885 429.335616,88.013301 431.216326,88.5837107 C431.458924,89.5635274 431.544411,91.1896552 431.378058,92.3281746 L409.634369,92.3281746 C409.796101,91.1068538 410.205051,89.7245302 410.780355,88.6688122 C412.083451,88.0961024 414.377732,87.4428913 416.008913,87.1208858 L416.008913,58.3887958 L409.553503,58.3887958 C409.553503,57.2525764 410.04563,55.2998431 410.533136,54.1613237 C412.085761,53.5863139 414.292246,53.0182042 416.008913,52.6938987 L416.008913,48.2985237 C416.008913,37.3135364 422.711542,32.9158614 430.400736,32.9158614 C433.01617,32.9158614 436.123732,33.3252683 439.307538,34.302785 C439.471581,35.1975003 439.552446,36.0945156 439.552446,37.0697322 C439.552446,39.6756766 439.06494,42.4403238 438.408771,44.2297543 C437.101054,44.2297543 434.64273,43.6593446 433.584542,42.9302321 L433.584542,37.4768391 C432.847507,37.0697322 431.703832,36.9064294 430.969107,36.9064294 C426.637005,36.9064294 423.118182,39.1029669 423.118182,47.4866098 L423.118182,53.6714153 L433.831761,53.6714153 L433.831761,53.6714153 Z M475.519294,72.3914346 C475.519294,85.9777663 468.241362,93.7150982 456.959412,93.7150982 C445.023603,93.7150982 438.320974,86.3848732 438.320974,72.3914346 C438.320974,59.9367222 446.333631,52.2890918 456.959412,52.2890918 C468.075009,52.2890918 475.519294,59.4491139 475.519294,72.3914346 L475.519294,72.3914346 Z M456.959412,88.8252148 C464.482252,88.8252148 468.075009,82.4794066 468.075009,72.3914346 C468.075009,63.678886 463.745217,57.0892736 456.959412,57.0892736 C449.68148,57.0892736 445.758328,63.1912777 445.758328,72.3914346 C445.760638,82.3207039 450.009564,88.8252148 456.959412,88.8252148 Z M495.047257,60.9947402 C496.190932,56.0312556 500.363613,52.2890918 505.677659,52.2890918 C506.657292,52.2890918 508.373959,52.5305959 509.355903,52.9377028 C509.926585,53.9129194 510.416401,55.7874514 510.416401,57.818386 C510.416401,58.6372 510.335535,59.3686125 510.176114,60.0195236 C508.699733,59.1225083 506.576426,58.6395001 504.61716,58.6395001 C500.853429,58.6395001 497.258362,60.6704347 495.21361,65.3096138 L495.21361,87.1231858 C497.50327,87.2841886 501.426422,87.9350997 503.309443,88.5860108 C503.55204,89.5658275 503.637527,91.1919552 503.471175,92.3304746 L481.727486,92.3304746 C481.889218,91.1091538 482.298168,89.7268302 482.864229,88.6711122 C484.174257,88.0984025 486.466228,87.4451913 488.10203,87.1231858 L488.10203,58.227793 L482.131815,58.227793 C482.217302,56.8431694 482.790295,55.1342403 483.603575,53.9152195 C485.403419,53.2643084 488.023475,52.7790001 490.391691,52.7790001 C491.784895,52.7790001 493.087991,52.9400029 494.233977,53.2643084 L494.233977,60.9947402 L495.047257,60.9947402 L495.047257,60.9947402 Z M528.800689,87.3646899 C530.845441,87.5256927 533.294523,87.9327996 534.766283,88.4204079 C535.011191,89.3979246 535.094367,91.1896552 534.930325,92.3281746 L515.307634,92.3281746 C515.467055,91.1068538 515.882937,89.7245302 516.453619,88.6688122 C517.759026,88.0961024 520.050997,87.4428913 521.686799,87.1208858 L521.686799,58.227793 L515.716584,58.227793 C515.79745,56.8431694 516.372753,55.1342403 517.188344,53.9152195 C518.905012,53.2643084 521.527378,52.7790001 523.97646,52.7790001 C525.367353,52.7790001 526.668139,52.9400029 527.818746,53.2643084 L527.818746,59.2053097 L528.636647,59.2053097 C530.103785,56.4383625 534.357332,52.2913918 541.556709,52.2913918 C546.54267,52.2913918 550.874773,53.6737154 552.427398,59.6975181 L552.834038,59.6975181 C554.227242,56.6821667 558.640211,52.2913918 565.996698,52.2913918 C572.375864,52.2913918 578.013373,54.3246265 578.013373,66.9380416 C578.013373,73.8542595 577.849331,80.6899761 577.521246,87.36699 C579.730041,87.5279927 582.509518,87.9350997 584.14763,88.422708 C584.309362,89.0736191 584.392538,90.0534358 584.392538,90.945851 C584.392538,91.4357594 584.392538,91.8451664 584.309362,92.3327747 L564.933889,92.3327747 C565.095621,91.1114538 565.502261,89.7291303 566.072944,88.6734123 C567.302105,88.1007025 569.346858,87.4474914 570.737751,87.1254859 L570.737751,68.078861 C570.737751,61.8135542 568.857041,57.8229861 563.219532,57.8229861 C559.04223,57.8229861 554.959657,60.8383376 553.242989,63.034875 L553.242989,87.2887886 C555.285431,87.4474914 557.741444,87.9373997 559.213204,88.425008 C559.458112,89.4025247 559.536667,91.1942553 559.372625,92.3327747 L540.486969,92.3327747 C540.651011,91.1114538 541.057651,89.7291303 541.630644,88.6734123 C542.857495,88.1007025 544.902247,87.4474914 546.293141,87.1254859 L546.293141,68.078861 C546.293141,61.8135542 544.412431,57.8229861 538.772611,57.8229861 C534.680796,57.8229861 530.515046,60.7555361 528.800689,63.034875 L528.800689,87.3646899 L528.800689,87.3646899 Z M612.575464,87.5256927 C610.452157,91.5139607 606.036878,93.7150982 601.131782,93.7150982 C595.163878,93.7150982 589.521748,90.2926399 589.521748,82.8060122 C589.521748,74.4223692 596.633327,70.1074956 604.72916,70.1074956 C607.342285,70.1074956 610.290425,70.599704 612.332867,71.4967193 L612.332867,67.0990443 C612.332867,61.0775416 609.717432,57.9862889 604.569739,57.9862889 C601.053227,57.9862889 595.489652,60.0195236 592.629309,61.9699569 C592.303535,61.2408444 592.222669,60.2633277 592.222669,59.2030097 C592.222669,57.6596833 592.629309,55.9438541 593.119126,55.1342403 C595.822358,53.5863139 602.111415,52.2890918 606.448139,52.2890918 C615.359562,52.2890918 619.285025,56.6016653 619.285025,67.7476554 L619.285025,83.5374247 C619.285025,85.1681525 619.693975,87.1231858 620.345523,87.7694968 C621.574685,87.7694968 624.437339,87.2841886 625.987654,86.7942802 C626.06852,87.1231858 626.06852,87.4428913 626.06852,87.6889955 C626.06852,88.9954178 625.745056,90.3777413 625.252929,91.357558 C623.455395,92.4914774 619.201848,93.7173983 616.420061,93.7173983 C614.78657,92.7398816 613.233944,90.1316371 612.989036,87.5279927 L612.575464,87.5279927 L612.575464,87.5256927 Z M612.413733,75.0732803 C610.861107,74.6661734 608.324228,74.4246693 606.688426,74.4246693 C600.316192,74.4246693 596.718814,77.2698178 596.718814,81.5846914 C596.718814,86.0628677 600.233016,88.0961024 604.156168,88.0961024 C607.342285,88.0961024 610.780241,86.5527761 612.413733,84.1078344 L612.413733,75.0732803 L612.413733,75.0732803 Z M636.192932,43.742146 C637.419783,43.0866348 640.035218,42.4380237 641.67333,42.4380237 L641.67333,53.6714153 L653.523652,53.6714153 C653.690005,54.4856292 653.939534,57.0892736 653.768561,58.3887958 L641.67333,58.3887958 L641.67333,80.7727775 C641.67333,86.0628677 642.408055,88.3376065 646.987376,88.3376065 C649.274726,88.3376065 652.054203,87.9304996 654.588772,87.2818885 C654.671948,87.6084941 654.671948,88.1766038 654.671948,88.3376065 C654.671948,89.480726 654.258377,90.7802482 653.854047,91.5139607 C650.580133,92.8962843 647.065932,93.7150982 643.794328,93.7150982 C637.50527,93.7150982 634.314532,90.2926399 634.314532,81.9089969 C634.314532,77.106515 634.397709,66.609136 634.728104,58.3864957 L629.081352,58.3864957 C629.081352,57.2502764 629.57579,55.2170417 630.067917,54.1590236 C631.371013,53.5840138 633.256344,53.0159041 634.806659,52.6915986 L636.192932,43.742146 L636.192932,43.742146 Z M660.875519,58.227793 C660.958695,56.8431694 661.531688,55.1342403 662.347279,53.9152195 C664.227989,53.2643084 667.012087,52.7790001 669.708387,52.7790001 C671.177836,52.7790001 672.737393,52.9400029 673.961934,53.2643084 L673.961934,87.2841886 C676.004376,87.4428913 678.702987,87.9327996 680.419655,88.4204079 C680.581387,89.071319 680.662253,90.0511358 680.662253,90.943551 C680.662253,91.4334593 680.662253,91.8428663 680.581387,92.3304746 L660.471189,92.3304746 C660.632921,91.1091538 661.046493,89.7268302 661.612554,88.6711122 C662.922582,88.0984025 665.209932,87.4451913 666.845734,87.1231858 L666.845734,58.227793 L660.875519,58.227793 L660.875519,58.227793 Z M675.184165,39.2639696 C675.184165,42.3598224 673.303455,44.0664515 670.604844,44.0664515 C667.578148,44.0664515 665.944657,42.4380237 665.944657,39.2639696 C665.944657,36.5798238 667.906233,34.7903933 670.604844,34.7903933 C673.303455,34.7903933 675.184165,36.4165211 675.184165,39.2639696 Z M721.940836,72.3914346 C721.940836,85.9777663 714.662903,93.7150982 703.380953,93.7150982 C691.442834,93.7150982 684.742516,86.3848732 684.742516,72.3914346 C684.742516,59.9367222 692.755172,52.2890918 703.380953,52.2890918 C714.496551,52.2890918 721.940836,59.4491139 721.940836,72.3914346 L721.940836,72.3914346 Z M703.380953,88.8252148 C710.901483,88.8252148 714.498861,82.4794066 714.498861,72.3914346 C714.498861,63.678886 710.169069,57.0892736 703.380953,57.0892736 C696.103021,57.0892736 692.179869,63.1912777 692.179869,72.3914346 C692.179869,82.3207039 696.428795,88.8252148 703.380953,88.8252148 Z M742.446121,87.3646899 C744.490873,87.5256927 746.942265,87.9327996 748.411715,88.4204079 C748.656623,89.3979246 748.737489,91.1896552 748.575757,92.3281746 L728.955376,92.3281746 C729.117108,91.1068538 729.528369,89.7245302 730.096741,88.6688122 C731.406768,88.0961024 733.694118,87.4428913 735.332231,87.1208858 L735.332231,58.227793 L729.364326,58.227793 C729.445192,56.8431694 730.020496,55.1342403 730.838397,53.9152195 C732.550443,53.2643084 735.170499,52.7790001 737.624202,52.7790001 C739.012785,52.7790001 740.320502,52.9400029 741.464178,53.2643084 L741.464178,59.2053097 L742.282078,59.2053097 C743.756149,56.4383625 748.088251,52.2913918 755.447049,52.2913918 C761.90708,52.2913918 767.625456,54.3246265 767.625456,66.9380416 C767.625456,73.7737582 767.461413,80.450772 767.13795,87.36699 C769.344434,87.5279927 772.1216,87.9350997 773.757402,88.422708 C773.916824,89.0736191 774,90.0534358 774,90.945851 C774,91.4357594 774,91.8451664 773.916824,92.3327747 L754.541351,92.3327747 C754.707704,91.1114538 755.116654,89.7291303 755.689647,88.6734123 C756.911877,88.1007025 758.95663,87.4474914 760.347523,87.1254859 L760.347523,68.078861 C760.347523,61.8135542 758.385947,57.8229861 752.665262,57.8229861 C748.492581,57.8229861 744.160478,60.7555361 742.446121,63.034875 L742.446121,87.3646899 L742.446121,87.3646899 Z" id="Shape" fill="#000000"></path><path d="M129.574918,64.5069001 C129.574918,28.8769925 100.564849,0 64.7851486,0 C29.0054478,0 0,28.8769925 0,64.5069001 C0,100.123008 29.0031373,129 64.7851486,129 C100.56716,129 129.574918,100.123008 129.574918,64.5069001 Z" id="Path" fill="#ED403A"></path><path d="M86.0575046,83.2959206 L71.2521112,79.8113611 L71.2521112,49.1840388 L86.0505733,45.6925793 C87.6008884,45.3291731 88.6983543,43.9537496 88.6983543,42.3690226 L88.6983543,36.2877189 L40.8765638,36.2877189 L40.8765638,42.3690226 C40.8765638,43.9514496 41.9717193,45.3291731 43.5197239,45.6925793 L58.3158756,49.1840388 L58.3158756,79.8113611 L43.5243448,83.2959206 C41.9740298,83.6616268 40.8765638,85.0393503 40.8765638,86.6263773 L40.8765638,92.705381 L88.7006684,92.705381 L88.7006684,86.6263773 C88.7029752,85.0393503 87.6055093,83.6639268 86.0575046,83.2959206 Z" id="Path" fill="#FFFFFF"></path></g></g></svg> 