<?xml version="1.0" encoding="UTF-8"?> <svg xmlns="http://www.w3.org/2000/svg" xmlns:xlink="http://www.w3.org/1999/xlink" width="888px" height="500px" viewBox="0 0 888 500" version="1.1"><title>CMS Wire</title><defs><polygon id="path-1" points="0 0 354.23408 0 354.23408 118.882232 0 118.882232"></polygon><polygon id="path-3" points="-1.13686838e-13 0 65.0076 0 65.0076 88.945 -1.13686838e-13 88.945"></polygon><polygon id="path-5" points="0 118.883 731.922 118.883 731.922 0 0 0"></polygon></defs><g id="CMS-Wire" stroke="none" stroke-width="1" fill="none" fill-rule="evenodd"><g id="Group-17" transform="translate(78.000000, 191.000000)"><g id="Group-3" transform="translate(0.000000, 0.000768)"><mask id="mask-2" fill="white"><use xlink:href="#path-1"></use></mask><g id="Clip-2"></g><path d="M43.4835,58.5471317 C43.7005,58.5351317 43.9185,58.5221317 44.1355,58.5101317 C44.1355,54.8471317 43.9425,51.1721317 44.1765,47.5241317 C44.6245,40.5711317 47.5025,34.9171317 54.1355,31.9961317 C60.2225,29.3161317 66.6315,28.6151317 73.1745,30.2611317 C78.1335,31.5091317 81.7315,34.3241317 84.1215,38.9791317 C84.8595,40.4161317 86.8635,41.8141317 88.4705,42.0651317 C91.5575,42.5481317 94.7765,42.2701317 97.9365,42.1731317 C101.0945,42.0761317 102.2385,40.2111317 100.9555,37.4961317 C99.1915,33.7681317 97.4815,29.8321317 94.8755,26.7161317 C84.4045,14.1921317 70.5135,12.2401317 55.3725,14.7861317 C37.9825,17.7111317 29.4475,26.0351317 26.5595,43.2151317 C24.6115,54.8041317 25.0325,66.3391317 27.0895,77.9531317 C29.3365,90.6371317 36.3285,98.8721317 48.5435,102.227132 C54.4115,103.838132 60.6315,104.487132 66.7355,104.850132 C80.5705,105.673132 94.0765,97.7371317 99.0075,86.3881317 C102.6835,77.9291317 102.3725,77.4721317 93.0255,77.4581317 C91.8615,77.4561317 90.6985,77.2911317 89.5345,77.2921317 C86.1875,77.2961317 83.8935,78.4071317 81.8455,81.5721317 C80.0275,84.3831317 76.7565,86.8701317 73.5865,88.0601317 C67.4775,90.3521317 61.1225,89.5021317 55.0775,86.9911317 C49.6195,84.7231317 45.9125,80.8361317 45.0555,74.8971317 C44.2745,69.4841317 43.9875,64.0001317 43.4835,58.5471317 M296.1835,13.8821317 C286.3885,13.6601317 277.2975,16.1861317 269.2815,21.7221317 C261.7735,26.9071317 257.9055,34.2271317 258.9525,43.5741317 C260.0565,53.4391317 265.7595,59.7471317 275.0635,62.4741317 C281.2675,64.2921317 287.7585,65.1051317 294.0645,66.6051317 C299.8615,67.9831317 305.9115,68.9611317 311.2545,71.4141317 C318.0185,74.5191317 317.9405,81.4451317 311.6305,85.5121317 C309.9845,86.5731317 308.0645,87.3861317 306.1575,87.8411317 C295.1295,90.4771317 283.9675,90.2521317 274.0015,84.9671317 C266.6355,81.0601317 261.5155,81.5721317 256.6515,87.9761317 C256.4555,88.2341317 256.1475,88.4081317 255.8855,88.6141317 C253.1085,90.7961317 253.4565,92.9811317 256.3615,94.4311317 C261.5545,97.0221317 266.7355,99.8561317 272.2405,101.557132 C288.3665,106.537132 304.4095,106.681132 319.8245,98.7351317 C330.3195,93.3251317 334.9875,85.3161317 333.9335,74.5611317 C332.8985,63.9971317 326.0755,58.2301317 316.6255,55.5391317 C309.2965,53.4521317 301.6285,52.5841317 294.1835,50.8631317 C289.8595,49.8631317 285.4005,48.7831317 281.5045,46.7681317 C277.1405,44.5111317 276.1245,38.8831317 279.2715,35.1881317 C281.0835,33.0611317 283.9525,31.3721317 286.6665,30.5611317 C295.4995,27.9221317 304.1605,29.8951317 312.6445,32.6101317 C322.0195,35.6091317 321.9975,35.6791317 328.2065,27.7221317 C328.4115,27.4601317 328.6355,27.2121317 328.8535,26.9601317 C330.9955,24.4931317 330.2085,22.7901317 327.4675,21.5661317 C317.5025,17.1161317 307.2505,13.8411317 296.1835,13.8821317 M203.1965,58.1451317 C203.5245,58.2151317 203.8525,58.2861317 204.1805,58.3561317 C204.1805,59.3301317 204.1805,60.3041317 204.1815,61.2781317 C204.1905,74.4411317 204.2165,87.6031317 204.1945,100.766132 C204.1905,103.406132 204.8035,105.788132 207.9405,105.350132 C212.9345,104.652132 218.5355,107.929132 222.8845,103.190132 C223.2395,102.803132 223.0785,101.900132 223.0785,101.237132 C223.0865,73.4121317 223.0985,45.5881317 223.0365,17.7631317 C223.0335,16.5471317 222.7075,14.9381317 221.9025,14.1861317 C218.8305,11.3151317 208.4985,13.5131317 206.5195,17.2651317 C198.1285,33.1691317 189.7395,49.0741317 181.3255,64.9661317 C180.4425,66.6321317 179.4015,68.2141317 178.0915,70.4081317 C168.8785,53.1991317 159.8245,36.9171317 151.4435,20.2951317 C148.4715,14.4021317 144.6485,12.5081317 138.4335,13.0971317 C131.9535,13.7111317 131.3345,13.9651317 131.3285,20.4511317 C131.3075,46.2761317 131.3075,72.1011317 131.3195,97.9261317 C131.3225,105.167132 131.6375,105.526132 138.9975,105.475132 C152.4025,105.381132 150.9325,106.985132 150.9905,93.4231317 C151.0405,81.7001317 151.0005,69.9771317 151.0005,56.7511317 C157.2735,67.8221317 163.0535,77.3581317 168.1445,87.2491317 C171.3745,93.5261317 176.6885,90.7901317 181.2825,91.4451317 C184.9655,91.9701317 186.5705,89.7021317 188.0585,86.8181317 C193.0145,77.2141317 198.1375,67.6961317 203.1965,58.1451317 M177.3095,118.878132 C122.9835,118.882312 68.6575,118.884132 14.3305,118.880132 C3.1445,118.879132 -6.81353264e-05,115.746132 -6.81353264e-05,104.718132 C0.0065,74.3891317 -0.0115,44.0601317 0.0145,13.7301317 C0.0225,3.06713172 4.2535,-0.438868282 14.7825,0.0881317178 C24.6735,0.582131718 34.6065,0.252131718 44.5205,0.256131718 C54.5955,0.261131718 64.6705,0.247131718 74.7445,0.212131718 C84.8295,0.177131718 94.9135,0.0731317178 104.9985,0.0601317178 C114.4075,0.0481317178 123.8165,0.132131718 133.2265,0.144131718 C143.4675,0.157131718 153.7095,0.141131718 163.9505,0.127131718 C173.3535,0.115131718 182.7555,0.0921317178 192.1585,0.0701317178 C202.7275,0.0461317178 213.2955,-0.00286828221 223.8645,0 C233.2715,0.00213171779 242.6775,0.0761317178 252.0835,0.0901317178 C262.3285,0.104131718 272.5725,0.0711317178 282.8165,0.0841317178 C292.3875,0.0971317178 301.9585,0.159131718 311.5295,0.171131718 C321.6055,0.184131718 331.6915,0.426131718 341.7555,0.0671317178 C349.1265,-0.195868282 353.1715,2.63013172 354.0705,9.89013172 C354.23408,11.2071317 354.2215,12.5511317 354.2225,13.8821317 C354.2295,44.5451317 354.2475,75.2071317 354.2165,105.870132 C354.2065,115.545132 350.9005,118.861132 341.2885,118.864132 C286.6295,118.882312 231.9695,118.874132 177.3095,118.878132" id="Fill-1" fill="#F78421" mask="url(#mask-2)"></path></g><path d="M502.2324,14.7279 C499.7474,23.3759 497.5044,31.3469 495.1654,39.2899 C489.2414,59.4089 483.1804,79.4889 477.4104,99.6519 C476.3964,103.1929 474.8514,104.7259 471.2094,104.2069 C469.7394,103.9969 468.1994,104.0269 466.7194,104.1989 C463.7464,104.5449 462.2814,103.3939 461.3764,100.4449 C456.2004,83.5799 450.8374,66.7719 445.5054,49.9539 C444.6184,47.1579 443.5724,44.4119 442.2314,40.5949 C435.8004,60.7819 429.3654,79.6869 423.8874,98.8659 C421.9044,105.8079 417.3474,103.6279 413.1084,104.2409 C408.6374,104.8869 407.9294,101.9799 407.0064,98.8329 C399.3274,72.6429 391.5994,46.4679 383.8944,20.2859 C383.4334,18.7199 383.0494,17.1319 382.4214,14.7689 C387.7754,14.7689 392.5834,14.4779 397.3084,14.9739 C398.4824,15.0979 399.8994,17.6339 400.3384,19.2909 C405.1524,37.4739 409.7924,55.7029 414.4934,73.9159 C414.8174,75.1689 415.2494,76.3929 416.0714,79.0579 C419.5574,68.1689 422.6254,58.6139 425.6754,49.0529 C428.9134,38.9029 432.4164,28.8269 435.2374,18.5629 C436.5804,13.6759 439.8694,14.8659 443.0144,14.6899 C445.9884,14.5239 448.1534,14.7029 449.3004,18.4659 C454.8304,36.6169 460.7414,54.6509 466.5324,72.7219 C467.0254,74.2589 467.6274,75.7609 469.1784,77.3989 C470.2974,73.3679 471.4854,69.3549 472.5224,65.3039 C476.4404,49.9849 480.4234,34.6809 484.1144,19.3069 C484.9934,15.6439 486.6784,14.4089 490.2924,14.6679 C494.0584,14.9379 497.8584,14.7279 502.2324,14.7279" id="Fill-4" fill="#000000"></path><path d="M583.7138,28.3792 L583.7138,52.3732 C593.2768,52.3732 602.4208,52.6612 611.5378,52.2812 C618.6338,51.9852 623.3218,47.2752 623.5898,41.2582 C623.8948,34.4162 619.7578,29.0452 612.2708,28.5342 C602.8708,27.8922 593.3938,28.3792 583.7138,28.3792 M643.0068,104.1512 C636.7578,104.1512 631.4828,104.3752 626.2508,103.9992 C624.8858,103.9012 623.2468,102.1802 622.4268,100.7942 C616.4058,90.6232 610.4658,80.4002 604.7268,70.0672 C603.2518,67.4102 601.6578,66.1172 598.5198,66.2772 C593.7308,66.5212 588.9208,66.3412 583.4348,66.3412 L583.4348,103.8002 L566.2758,103.8002 L566.2758,15.3962 C566.8578,15.1612 567.3048,14.8212 567.7508,14.8231912 C582.4078,14.9012 597.0738,14.7432 611.7178,15.2312 C619.0218,15.4742 625.7278,18.2842 631.0268,23.5872 C643.0008,35.5692 640.1448,54.6072 625.1638,63.0672 C623.4438,64.0382 621.6538,64.8832 619.4248,66.0282 C623.3958,72.4102 627.2468,78.5722 631.0698,84.7512 C634.8878,90.9222 638.6768,97.1112 643.0068,104.1512" id="Fill-6" fill="#000000"></path><g id="Group-10" transform="translate(666.914400, 14.936800)"><mask id="mask-4" fill="white"><use xlink:href="#path-3"></use></mask><g id="Clip-9"></g><polygon id="Fill-8" fill="#000000" mask="url(#mask-4)" points="-1.13686838e-13 0 64.992 0 64.992 13.308 16.999 13.308 16.999 37.475 57.57 37.475 57.57 50.982 16.953 50.982 16.953 75.362 65.008 75.362 65.008 88.945 -1.13686838e-13 88.945"></polygon></g><mask id="mask-6" fill="white"><use xlink:href="#path-5"></use></mask><g id="Clip-12"></g><polygon id="Fill-11" fill="#000000" mask="url(#mask-6)" points="521.457 103.895 538.004 103.895 538.004 42.502 521.457 42.502"></polygon><path d="M529.7385,15.6355 C533.2675,15.8485 537.7645,14.1345 537.3695,20.7685 C537.0025,26.9335 537.2235,27.0895 530.8735,27.1285 C530.5405,27.1305 530.2075,27.1465 529.8765,27.1265 C526.1705,26.9045 521.4645,28.5835 521.9285,21.7105 C522.3315,15.7365 522.0795,15.6405 529.7385,15.6355" id="Fill-13" fill="#F78421" mask="url(#mask-6)"></path><path d="M203.1963,58.1458 C198.1373,67.6968 193.0143,77.2148 188.0583,86.8198 C186.5703,89.7028 184.9653,91.9708 181.2823,91.4458 C176.6883,90.7908 171.3743,93.5268 168.1443,87.2498 C163.0533,77.3588 157.2733,67.8228 151.0013,56.7518 C151.0013,69.9778 151.0403,81.7008 150.9903,93.4238 C150.9323,106.9858 152.4023,105.3818 138.9973,105.4758 C131.6373,105.5268 131.3233,105.1678 131.3193,97.9268 C131.3073,72.1018 131.3073,46.2768 131.3293,20.4518 C131.3343,13.9658 131.9533,13.7118 138.4333,13.0978 C144.6483,12.5098 148.4723,14.4028 151.4433,20.2958 C159.8243,36.9178 168.8783,53.1998 178.0913,70.4088 C179.4013,68.2148 180.4433,66.6338 181.3253,64.9668 C189.7393,49.0748 198.1293,33.1698 206.5193,17.2658 C208.4993,13.5138 218.8303,11.3168 221.9023,14.1868 C222.7073,14.9388 223.0333,16.5478 223.0363,17.7638 C223.0983,45.5888 223.0863,73.4128 223.0793,101.2378 C223.0783,101.9008 223.2393,102.8038 222.8843,103.1908 C218.5353,107.9308 212.9343,104.6528 207.9403,105.3508 C204.8033,105.7888 204.1903,103.4068 204.1943,100.7668 C204.2173,87.6038 204.1903,74.4418 204.1813,61.2788 C204.1803,60.3048 204.1813,59.3308 204.1813,58.3578 C203.8523,58.2868 203.5243,58.2158 203.1963,58.1458" id="Fill-14" fill="#FFFFFF" mask="url(#mask-6)"></path><path d="M296.183,13.8829 C307.25,13.8419 317.502,17.1169 327.467,21.5669 C330.208,22.7909 330.996,24.4929 328.854,26.9609 C328.635,27.2129 328.411,27.4609 328.206,27.7229 C321.997,35.6799 322.02,35.6099 312.645,32.6099 C304.16,29.8959 295.5,27.9229 286.667,30.5619 C283.952,31.3729 281.083,33.0619 279.272,35.1889 C276.124,38.8839 277.141,44.5119 281.505,46.7689 C285.4,48.7839 289.859,49.8639 294.183,50.8639 C301.628,52.5849 309.296,53.4529 316.625,55.5399 C326.075,58.2309 332.899,63.9979 333.934,74.5619 C334.987,85.3169 330.319,93.3259 319.824,98.7359 C304.409,106.6809 288.366,106.5379 272.241,101.5579 C266.736,99.8569 261.554,97.0219 256.362,94.4319 C253.456,92.9819 253.108,90.7969 255.885,88.6149 C256.147,88.4089 256.456,88.2349 256.652,87.9769 C261.516,81.5729 266.635,81.0609 274.001,84.9679 C283.967,90.2529 295.13,90.4779 306.158,87.8419 C308.065,87.3859 309.984,86.5739 311.631,85.5129 C317.94,81.4459 318.018,74.5199 311.254,71.4139 C305.912,68.9619 299.861,67.9839 294.065,66.6059 C287.758,65.1059 281.267,64.2929 275.063,62.4739 C265.76,59.7479 260.057,53.4399 258.952,43.5749 C257.906,34.2279 261.773,26.9079 269.281,21.7229 C277.297,16.1869 286.389,13.6609 296.183,13.8829" id="Fill-15" fill="#FFFFFF" mask="url(#mask-6)"></path><path d="M43.4835,58.5479 C43.9875,64.0009 44.2745,69.4849 45.0555,74.8979 C45.9125,80.8369 49.6195,84.7239 55.0775,86.9919 C61.1225,89.5029 67.4775,90.3529 73.5865,88.0609 C76.7565,86.8709 80.0275,84.3839 81.8455,81.5729 C83.8935,78.4079 86.1875,77.2969 89.5345,77.2929 C90.6985,77.2919 91.8615,77.4569 93.0255,77.4589 C102.3725,77.4729 102.6835,77.9299 99.0075,86.3889 C94.0765,97.7379 80.5705,105.6739 66.7355,104.8509 C60.6315,104.4879 54.4115,103.8389 48.5435,102.2279 C36.3285,98.8729 29.3365,90.6379 27.0895,77.9539 C25.0325,66.3399 24.6115,54.8049 26.5595,43.2159 C29.4475,26.0359 37.9825,17.7119 55.3725,14.7869 C70.5135,12.2409 84.4045,14.1929 94.8755,26.7169 C97.4815,29.8329 99.1915,33.7689 100.9555,37.4969 C102.2385,40.2119 101.0945,42.0769 97.9365,42.1739 C94.7765,42.2709 91.5575,42.5489 88.4705,42.0659 C86.8635,41.8149 84.8595,40.4169 84.1215,38.9799 C81.7315,34.3249 78.1335,31.5099 73.1745,30.2619 C66.6315,28.6159 60.2225,29.3169 54.1355,31.9969 C47.5025,34.9179 44.6245,40.5719 44.1765,47.5249 C43.9425,51.1729 44.1355,54.8479 44.1355,58.5109 C43.9185,58.5229 43.7005,58.5359 43.4835,58.5479" id="Fill-16" fill="#FFFFFF" mask="url(#mask-6)"></path></g></g></svg> 