<?xml version="1.0" encoding="UTF-8"?> <svg xmlns="http://www.w3.org/2000/svg" xmlns:xlink="http://www.w3.org/1999/xlink" width="888px" height="500px" viewBox="0 0 888 500" version="1.1"><title>CNBC</title><defs><polygon id="path-1" points="0 0 192.190521 0 192.190521 113 0 113"></polygon></defs><g id="CNBC" stroke="none" stroke-width="1" fill="none" fill-rule="evenodd"><g id="Group-24" transform="translate(69.000000, 194.000000)"><g id="Group-3"><mask id="mask-2" fill="white"><use xlink:href="#path-1"></use></mask><g id="Clip-2"></g><path d="M96.1888602,14.5762562 C93.2027733,7.120442 85.9146732,-0.937296659 72.2427598,0.150192216 C54.8260867,2.01295028 49.3773633,18.6297325 51.9962149,28.5504284 C45.0665492,23.8629489 33.2762166,21.790384 22.9708266,30.5600314 C9.66214817,43.8137273 16.7474288,61.771241 24.0479301,66.0861291 C15.9967567,65.3327771 3.26293345,70.735951 0.428661178,84.9103663 C-2.58982879,102.509634 10.867664,112.789572 23.9855241,112.806907 L169.446498,113 C184.615355,113.020101 193.048765,99.9592756 192.121276,87.6298854 C190.654735,71.538517 175.882716,65.3459273 167.818541,66.6579673 C174.559389,62.9230866 183.578855,45.3497207 169.918343,31.5070513 C159.073501,21.2040007 145.226171,24.9293176 140.352903,29.4101783 C142.987956,20.8188567 138.709145,3.04644328 121.101453,0.213154195 C119.884136,0.0756739236 118.712024,0.00155412481 117.595117,-5.88235896e-05 C104.151025,-0.0157803443 98.092443,9.76584138 96.1888602,14.5762562" id="Fill-1" fill="#FFFFFF" mask="url(#mask-2)"></path></g><path d="M25.389399,33.3644097 C17.7006604,40.2794682 14.8845899,55.9671627 28.7163186,65.1584162 L83.8954192,102.977047 L57.1980546,41.8272171 C51.6057174,27.3981644 36.2586431,24.2329302 25.389399,33.3644097" id="Fill-4" fill="#F37021"></path><path d="M72.9715499,3.71378049 C63.9936874,3.88413648 50.498591,14.5157449 56.4761653,30.7856385 L84.0862176,95.8905171 L93.9101613,27.4641948 C96.1849798,10.4616709 83.2763398,2.59421288 72.9715499,3.71378049" id="Fill-6" fill="#CC004C"></path><path d="M98.2357568,24.859641 L103.47286,24.8666147 C103.47286,24.8666147 106.269729,24.8702011 106.648565,26.1850305 C104.585367,27.8589027 98.9754279,28.0615366 99.7082983,37.017679 L108.433536,95.9134305 L136.028587,30.7111202 C141.67473,16.1519594 129.880797,3.97100807 119.40499,3.58526632 C118.915743,3.54960115 118.424696,3.51989546 117.916247,3.51989546 C108.513344,3.50716158 97.7287081,10.300281 98.2357568,24.859641" id="Fill-8" fill="#6460AA"></path><path d="M134.905419,42.484572 L108.806912,102.831239 L164.071221,64.9600063 C176.810645,55.9843377 174.77725,41.604499 167.662166,34.4885999 C164.67988,31.1396601 159.199353,28.5486551 153.390195,28.5410607 C146.526936,28.5305237 139.17703,32.1470518 134.905419,42.484572" id="Fill-10" fill="#0089D0"></path><path d="M157.877686,73.5431188 L105.9773,109.552589 L169.822234,109.637286 C182.920892,109.654803 191.356502,96.2128187 187.630944,83.8621091 C185.134905,76.0988572 177.728193,69.9975225 169.121766,69.9773907 C165.499018,69.9740114 161.655649,71.0559214 157.877686,73.5431188" id="Fill-12" fill="#0DB14B"></path><path d="M23.7999263,109.443601 L86.7027689,109.527086 L34.8857912,73.3799357 C22.9138412,65.695187 9.43494635,70.1646906 4.55407748,82.8844052 C0.411679547,97.4469532 10.6898669,109.426267 23.7999263,109.443601" id="Fill-14" fill="#FCB711"></path><path d="M216.795378,59.7178835 C216.772604,76.8001062 230.749746,107.912689 284.278089,107.983763 C333.630029,108.049173 349.24713,85.5117727 349.260931,75.1682751 L311.053461,75.1176664 C311.053461,75.1176664 309.220685,88.7806152 287.667614,88.7519237 C266.100942,88.7234314 260.292384,70.7834514 260.306186,60.414251 C260.319987,50.0847006 266.17515,33.1286012 287.742021,33.1572927 C309.295092,33.185785 311.093665,45.0853999 311.093665,45.0853999 L349.301147,45.1362078 C349.314936,34.7805562 337.90824,12.5254889 284.405901,12.4544432 C230.877359,12.3836252 216.814408,45.4799085 216.795378,59.7178835" id="Fill-16" fill="#292526"></path><path d="M617.49283,60.2494938 C617.470056,77.3317165 631.4616,108.444299 684.975541,108.515374 C734.322881,108.580783 749.946182,86.043383 749.959983,75.6998854 L711.779116,75.6492767 C711.779116,75.6492767 709.937939,89.3122256 688.379668,89.2837333 C666.810596,89.2550417 660.995837,71.315261 661.009638,60.9458613 C661.02364,50.6163109 666.885003,33.6602115 688.453875,33.688903 C710.012346,33.7173953 711.819319,45.6172095 711.819319,45.6172095 L750,45.6678181 C750.013988,35.3121665 738.619494,13.0572984 685.103353,12.9860535 C631.590212,12.9152355 617.51186,46.0115188 617.49283,60.2494938" id="Fill-18" fill="#292526"></path><polygon id="Fill-20" fill="#292526" points="453.76365 14.2741781 453.686242 72.1019669 409.298178 14.2152011 359.278573 14.1488519 359.155962 105.742991 393.447656 105.788618 393.525863 47.2963417 437.134652 105.846599 487.935132 105.913945 488.057544 14.3196064"></polygon><path d="M591.655036,57.3565303 C597.897836,57.3648987 610.960091,50.1633234 610.978892,36.1781926 C611.005495,16.2638763 573.780919,14.4333962 568.07037,14.4258249 L499.480982,14.3347691 L499.35857,105.929107 L567.947959,106.0203 C600.936528,106.063798 614.202002,95.6999774 614.225222,78.3641136 C614.248406,61.0282498 591.655036,57.3565303 591.655036,57.3565303 L591.655036,57.3565303 Z M535.315624,32.1968436 L562.846669,32.2333057 L562.846669,32.2721589 C567.511117,32.2783355 571.28948,35.3401606 571.284484,39.1027367 C571.279479,42.8796585 567.492915,45.9048222 562.828467,45.8986455 L562.828467,45.9396904 L535.297222,45.9032282 L535.315624,32.1968436 Z M563.556537,84.1321084 L563.556537,84.2528519 L534.983792,84.2147958 L535.006194,67.3969736 L563.578939,67.4348305 L563.578939,67.4894241 C569.679725,67.4975932 574.605398,71.2392483 574.599203,75.8386608 C574.592997,80.4267162 569.657523,84.1400783 563.556537,84.1321084 L563.556537,84.1321084 Z" id="Fill-22" fill="#292526"></path></g></g></svg> 