<?xml version="1.0" encoding="UTF-8"?> <svg xmlns="http://www.w3.org/2000/svg" xmlns:xlink="http://www.w3.org/1999/xlink" width="888px" height="500px" viewBox="0 0 888 500" version="1.1"><title>Zapier</title><defs><polygon id="path-1" points="0 0 126.562921 0 126.562921 212.399897 0 212.399897"></polygon><polygon id="path-3" points="0 0 91.3039994 0 91.3039994 91.2361796 0 91.2361796"></polygon></defs><g id="Zapier" stroke="none" stroke-width="1" fill="none" fill-rule="evenodd"><g id="Group-17" transform="translate(81.000000, 84.000000)"><g id="Group-3" transform="translate(273.995142, 118.600103)"><mask id="mask-2" fill="white"><use xlink:href="#path-1"></use></mask><g id="Clip-2"></g><path d="M26.8020417,90.3799797 L26.7845208,90.3799797 C26.7845208,100.130756 26.850375,109.882135 26.734375,119.6311 C26.7083958,121.830805 27.4418542,122.799665 29.52925,123.439535 C37.7241667,125.950724 46.1305417,126.484955 54.5882708,126.14027 C73.134375,125.383895 86.6598542,116.947268 93.405375,99.3134121 C100.147875,81.6861968 99.7738958,63.7450828 94.210125,45.8739924 C91.7203542,37.8762192 87.3860625,31.1026504 79.6726667,27.059999 C67.3235,20.5876521 49.9011458,22.7758873 39.5692917,32.1216134 C30.5460625,40.284787 27.1446042,50.8873147 26.8485625,62.6373831 C26.6159583,71.8792812 26.8020417,81.1320451 26.8020417,90.3799797 L26.8020417,90.3799797 Z M8.75497917,212.400199 C5.89727083,211.945046 3.0395625,211.490497 0,211.006369 L0,3.28580465 C7.14789583,1.9770891 14.2311458,1.94690655 21.3005,3.15783062 C22.0200625,3.28097545 22.9347708,4.54864273 23.0725208,5.3967725 C23.8289375,10.0509224 24.3624167,14.7406877 24.9949792,19.4153617 C25.1381667,20.475373 25.3719792,21.5239149 25.6668125,23.1441144 C26.6818125,21.8209113 27.3518333,20.9842508 27.9831875,20.1192188 C37.6268958,6.91254038 50.8466667,0.649660362 66.9869792,0.0484238806 C74.8024792,-0.242535943 82.4476042,0.769786928 89.8450208,3.29968863 C105.69775,8.72047538 115.342667,20.2067482 121.036333,35.4791207 C124.726583,45.3753766 126.205583,55.6615911 126.494979,66.1723638 C126.863521,79.5299551 125.829792,92.6979999 120.987396,105.29318 C111.952687,128.790902 94.6988958,142.533019 70.12925,147.002452 C57.6217917,149.278216 48.9024583,150.335209 26.9548958,146.007635 L26.9548958,210.889864 C23.6621875,211.433754 20.7398333,211.916675 17.8174792,212.400199 L8.75497917,212.400199 Z" id="Fill-1" fill="#FF4A00" mask="url(#mask-2)"></path></g><path d="M0,260.372823 C1.0893125,258.819025 2.23420833,257.300843 3.26008333,255.7066 C26.6014583,219.430792 49.9295417,183.147136 73.2570208,146.862876 C73.8430625,145.95076 74.3898333,145.013289 75.2465417,143.610404 C73.5125833,143.515631 72.2583333,143.388261 71.0040833,143.387053 C51.5722708,143.374377 32.13925,143.310993 12.7080417,143.448022 C9.66183333,143.469754 8.51089583,142.51357 8.57252083,139.55568 C8.67341667,134.731904 8.6039375,129.904506 8.631125,125.07892 C8.64320833,122.930525 9.48964583,121.89466 11.9177917,121.899473 C45.6472083,121.966495 79.376625,121.930879 113.106042,122.006336 C114.188104,122.00875 115.951062,122.707175 116.190312,123.462946 C116.560062,124.630407 116.284562,126.382806 115.599437,127.44825 C91.6532917,164.650059 67.6261875,201.799954 43.6166042,238.960715 C42.9864583,239.936215 42.423375,240.954575 41.5080625,242.492678 C43.2939792,242.492678 44.4648542,242.492678 45.6357292,242.492678 C66.7791458,242.492678 87.9237708,242.553043 109.066583,242.420843 C111.900729,242.402734 112.857729,243.37763 112.839,245.974537 C112.802146,250.998725 112.835979,256.024121 112.817854,261.048912 C112.811208,262.86228 112.312167,264.00137 110.043521,263.997756 C74.3004167,263.936175 38.5573125,263.948852 2.81420833,263.937383 C2.417875,263.937383 2.02154167,263.843213 1.75933333,263.810012 C1.12858333,262.794671 0.564291667,261.885573 0,260.976474 C0,260.775458 0,260.573839 0,260.372823" id="Fill-4" fill="#FF4A00"></path><path d="M725,136.62435 C724.443562,139.646831 723.887729,142.669916 723.385062,145.400833 C717.753021,145.726805 712.095604,145.508887 706.648437,146.474125 C691.049458,149.23764 681.632313,158.797662 678.476146,175.095638 C677.2805,181.267366 676.743396,187.649166 676.683583,193.942228 C676.473938,216.162021 676.554292,238.385436 676.660021,260.606436 C676.672708,263.380816 676.034104,264.639429 673.059792,264.576045 C666.142083,264.428151 659.220146,264.484894 652.300021,264.468596 C650.541292,264.464974 649.572208,263.945834 649.57462,261.854786 C649.629604,215.601229 649.624167,169.348276 649.636854,123.094719 C649.637458,122.801344 649.7305,122.508573 649.828375,121.93269 C656.920083,120.569042 664.086104,120.524372 671.242458,121.769704 C671.919729,121.887416 672.741396,123.272796 672.859208,124.15473 C673.61925,129.820599 674.19925,135.51001 674.843896,141.190971 C674.929083,141.946742 675.045083,142.699495 675.264396,144.321505 C676.338,142.841956 676.928271,141.993223 677.554188,141.171654 C684.741354,131.745039 693.159208,123.957336 705.408688,122.073945 C710.432937,121.301271 715.607021,121.489007 720.714646,121.278332 C723.2455,121.174504 724.241167,122.544792 724.302792,124.973281 C724.335417,126.246381 724.755312,127.509219 725,128.776886 L725,136.62435 Z" id="Fill-6" fill="#FF4A00"></path><path d="M521.653027,179.381379 C522.692798,179.435104 523.769423,179.534707 524.846652,179.538932 C529.277006,179.557042 533.706756,179.54678 538.13711,179.54678 C555.051965,179.54678 571.967423,179.486415 588.881069,179.605618 C591.70736,179.625254 592.440819,178.599047 592.033006,176.063109 C591.619152,173.48733 591.492881,170.855411 590.937652,168.314644 C588.358465,156.508436 582.752402,146.866317 570.914965,142.238124 C546.622027,132.740278 519.79884,152.85514 521.653027,179.381379 M521.460902,199.517972 C520.643465,221.56995 530.100485,239.1863 552.139881,243.510252 C568.678944,246.754877 584.950965,244.884162 600.86834,239.555734 C602.090569,239.146459 603.313402,238.740202 604.774277,238.253055 C607.551631,243.700402 608.869319,249.416375 609.48134,255.308613 C609.95259,259.848069 609.882506,259.915074 605.65334,261.355386 C590.302069,266.584212 574.486194,268.013054 558.373673,267.13776 C548.249048,266.587833 538.417444,264.779898 529.130194,260.606255 C513.319756,253.501885 502.329965,241.774152 497.097277,225.286026 C489.977173,202.851334 490.098006,180.217436 498.562381,158.203488 C507.520965,134.905575 525.08711,122.036337 549.90386,119.167787 C563.037235,117.649605 575.849798,118.746439 587.795985,124.902472 C603.983423,133.243723 612.641735,147.189874 616.712006,164.433167 C619.142569,174.732059 618.897881,185.169186 618.413944,195.632874 C618.276194,198.600423 617.207423,199.60852 614.069985,199.594636 C584.573965,199.465455 555.076735,199.517972 525.579506,199.517972 C524.197777,199.517972 522.815444,199.517972 521.460902,199.517972" id="Fill-8" fill="#FF4A00"></path><path d="M216.867135,219.995326 C216.867135,213.254958 216.864115,206.51459 216.869552,199.774222 C216.87076,198.297692 216.852635,197.058396 214.791219,196.83263 C204.473865,195.704406 194.173427,194.863521 183.80049,196.24226 C168.889052,198.223442 160.775698,206.180771 159.638052,220.132355 C158.62849,232.50841 165.19699,242.105858 177.356448,244.38947 C189.82524,246.731636 202.393719,245.774849 214.827469,243.262454 C216.691927,242.885775 216.891906,241.76057 216.883694,240.21643 C216.847802,233.476062 216.868344,226.735694 216.867135,219.995326 M216.737844,175.728988 C216.978302,167.463798 216.96924,159.458177 212.642198,152.256016 C208.760427,145.794535 202.279531,143.215737 195.285094,141.973423 C180.904719,139.418772 166.825823,141.514045 152.989198,145.513233 C150.005219,146.375851 148.334094,145.876028 147.675552,142.942283 C146.494406,137.684482 145.384552,132.406157 144.471656,127.09765 C144.336927,126.3123 145.271573,124.702362 145.99476,124.503761 C167.091656,118.705089 188.432635,115.876983 209.99051,121.50603 C231.487969,127.119381 241.214448,141.567166 242.61249,162.015847 C243.625677,176.84031 243.225719,191.76679 243.307885,206.647997 C243.400927,223.550227 243.28976,240.452458 243.376976,257.354688 C243.38824,259.615362 242.947198,260.611386 240.45924,261.131129 C223.010906,264.776578 205.513635,267.989813 187.585594,267.345114 C176.909969,266.960588 166.283281,265.900577 156.387031,261.406998 C142.377615,255.045723 134.747594,244.141973 132.932073,228.840626 C129.543906,200.29638 147.407906,183.181061 170.15901,177.219403 C183.122615,173.822658 196.268073,174.29411 209.443135,175.145258 C211.731719,175.293152 214.015469,175.509259 216.737844,175.728988" id="Fill-10" fill="#FF4A00"></path><path d="M435.203,143.167445 L417.211521,143.167445 C415.864833,136.575575 415.829792,130.123149 416.966833,123.674948 C417.087062,122.992219 418.412604,122.033017 419.184729,122.02698 C432.576083,121.926774 445.968042,121.964804 459.36,121.944877 C460.980375,121.942469 461.818958,122.565437 461.733167,124.253849 C461.697521,124.955896 461.743438,125.662167 461.743438,126.366024 C461.744042,170.934188 461.715646,215.502351 461.80571,260.069911 C461.811708,263.173281 461.191833,264.719835 457.746875,264.619025 C451.229729,264.429479 444.704125,264.479582 438.18275,264.508557 C435.838583,264.518819 435.143187,263.552978 435.152854,261.212622 C435.239854,240.890709 435.203,220.568191 435.203,200.245674 C435.203,182.53938 435.203,164.833086 435.203,147.126793 L435.203,143.167445 Z" id="Fill-12" fill="#FF4A00"></path><g id="Group-16" transform="translate(397.071874, 0.000000)"><mask id="mask-4" fill="white"><use xlink:href="#path-3"></use></mask><g id="Clip-15"></g><path d="M45.786461,57.2037879 C56.411336,56.6116061 57.216086,56.2300987 57.2475027,45.7205333 C57.2795235,34.9145752 56.4626902,33.9426969 45.5484193,33.9722758 C34.7682735,34.0012511 34.1568568,34.9749403 34.1260443,45.3492878 C34.0934193,56.1739591 34.8081485,56.6556727 45.786461,57.2037879 M7.07931516,18.7813962 C11.3332527,14.4966808 14.709336,11.0969179 18.2455235,7.53537651 C25.1245652,14.4411449 31.2163777,20.5555268 37.9588777,27.3242664 L37.9588777,0.0132803239 C42.6895027,0.0132803239 46.9591485,-0.0265606478 51.227586,0.0313898565 C53.0914402,0.0567432021 53.054586,1.46928674 53.050961,2.83655645 C53.0340443,9.57511353 53.0449193,16.3142743 53.0455235,23.0528313 C53.0461277,24.1375923 53.0455235,25.222957 53.0455235,26.1598235 C59.1832527,19.9573086 65.2575443,13.8193843 71.8296693,7.17741141 C76.2026277,11.4965349 79.633086,14.8842248 83.533586,18.7361224 C76.9391068,25.23503 70.7506277,31.3343206 64.0413568,37.9473182 C65.7837735,38.0511462 66.8338152,38.1652363 67.884461,38.1682545 C74.7290652,38.1857604 81.5754818,38.2346561 88.4188777,38.1441085 C90.2990443,38.1187551 91.2844402,38.731461 91.2935027,40.6245108 C91.312836,44.6870826 91.2995443,48.7496544 91.2995443,53.1514781 L64.1785027,53.1514781 C70.8913985,59.5845877 77.0895443,65.5239108 83.7861277,71.9413255 C79.7303568,76.0558113 76.3373568,79.4978298 72.5697735,83.3201485 C66.0816277,76.7560465 59.963836,70.5662083 53.2702735,63.7938468 C53.1651485,65.5903124 53.0551902,66.6225558 53.0527735,67.6547991 C53.0358568,74.4941659 52.967586,81.33474 53.0847943,88.1716922 C53.123461,90.426329 52.2468152,91.2617821 50.1135027,91.227374 C47.196586,91.1796856 44.2766485,91.1706308 41.360336,91.2340142 C38.989586,91.2853245 38.0120443,90.4323655 38.0785027,87.8638302 C38.2531068,81.1294987 38.137711,74.3879233 38.137711,67.6493663 L38.137711,64.573764 C31.812086,70.9374537 25.6997318,77.0868473 18.740336,84.0885963 C14.7848568,79.9572083 11.4806693,76.506135 7.94689849,72.8154123 C14.6422735,66.2265606 20.8259193,60.1417577 27.008961,54.0569548 L26.6162527,53.2879033 C25.6840235,53.222709 24.7511902,53.1025824 23.818961,53.1001678 C16.8728568,53.0838692 9.92614849,53.0229004 2.98185683,53.1321613 C0.903523494,53.1647584 -0.0015181727,52.4379625 0.0129818273,50.4048657 C0.0347318273,47.2888188 0.0649401606,44.1715646 0.00150266063,41.056725 C-0.0438098394,38.8467583 0.934335994,38.1084931 3.11719016,38.1416939 C9.86029433,38.2443146 16.6058152,38.1779129 23.3501277,38.1767056 C24.4128568,38.1767056 25.4749818,38.1767056 26.8283152,38.1767056 C20.2924402,31.75748 14.1081902,25.6841464 7.07931516,18.7813962" id="Fill-14" fill="#FF4A00" mask="url(#mask-4)"></path></g></g></g></svg> 