<?xml version="1.0" encoding="UTF-8"?> <svg xmlns="http://www.w3.org/2000/svg" xmlns:xlink="http://www.w3.org/1999/xlink" width="888px" height="500px" viewBox="0 0 888 500" version="1.1"><title>Spectrum Equity</title><defs><polygon id="path-1" points="0 0 164.881938 0 164.881938 114.3527 0 114.3527"></polygon><polygon id="path-3" points="-2.84291225e-14 0 121.130123 0 121.130123 89.4742315 -2.84291225e-14 89.4742315"></polygon></defs><g id="Spectrum-Equity" stroke="none" stroke-width="1" fill="none" fill-rule="evenodd"><g id="Group-31" transform="translate(61.000000, 120.000000)"><g id="Group-3" transform="translate(100.165114, 144.647300)"><mask id="mask-2" fill="white"><use xlink:href="#path-1"></use></mask><g id="Clip-2"></g><path d="M28.5040234,66.8427495 C32.1116608,63.4629101 36.541082,62.1882853 40.9705031,61.1967508 C55.2094714,58.0073148 68.5481509,60.6025486 81.1658791,68.2294608 C85.2503095,60.2052163 86.2723174,51.8598009 85.6241095,43.2787165 C84.6726842,30.6876653 80.056003,19.7944374 69.8589715,11.8291102 C54.0635838,-0.509027795 24.9273559,-0.78565155 15.9208663,29.0451669 C13.3820517,37.454529 13.2877015,46.0413615 15.150219,54.6188535 C19.5990864,75.1120035 36.5309987,87.9279462 56.9257821,86.1647392 C63.8464825,85.566226 69.7883888,82.8071734 74.7356561,77.3472671 C60.9259455,66.0667659 46.0517333,61.025747 28.5040234,66.8427495 M88.5799378,73.6383533 C102.867882,86.35155 116.625736,99.6057797 135.271798,105.927171 C143.13096,108.591381 151.121203,109.555613 159.360647,108.722868 C161.092082,108.548271 162.840083,108.533901 164.580161,108.445525 C164.680994,108.738675 164.781106,109.031824 164.881938,109.324973 C163.802312,109.827207 162.755816,110.421409 161.638738,110.816586 C142.772285,117.490044 124.875263,114.34803 108.139253,104.500224 C100.77417,100.166212 94.3158581,94.270893 87.5672929,88.9324137 C84.8556229,86.7876815 82.4702176,84.2326839 80.2230966,82.1332174 C74.7752688,84.3857251 69.7703831,87.0405946 64.4392326,88.5465775 C50.4804342,92.4897234 36.7996449,91.0512799 23.9276751,84.4101542 C-5.60035847,69.1771666 -8.31923078,29.6803238 18.6735894,9.92507657 C36.2789178,-2.95912392 63.3315172,-3.34424167 81.3293716,9.03341402 C101.48936,22.897653 105.710634,50.2905898 90.8205767,70.6393207 C90.1154705,71.6035521 89.3916382,72.5534134 88.5799378,73.6383533" id="Fill-1" fill="#231F20" mask="url(#mask-2)"></path></g><g id="Group-6" transform="translate(645.869877, 18.947745)"><mask id="mask-4" fill="white"><use xlink:href="#path-3"></use></mask><g id="Clip-5"></g><path d="M24.5392857,27.8426044 C23.8579471,33.4648924 23.2767207,38.0360101 22.7552734,42.6135944 C21.494869,53.6706411 20.2121374,64.7255323 19.0352799,75.791201 C18.2581505,83.1055642 19.6193873,84.4965866 28.8347439,86.2468605 C29.6025102,88.3959038 29.1689311,89.5031173 26.5213616,89.4742315 C18.6031412,89.3867198 10.6820398,89.3953418 2.76309918,89.4742315 C0.564233705,89.4952138 -0.462095577,88.8485608 0.197636087,86.5285138 C0.363289235,86.4085237 0.544787465,86.1671066 0.746452166,86.1484256 C9.91067236,85.2833476 11.2603854,83.9476501 12.39691,74.560405 C15.2583881,50.9223661 18.0953783,27.2814533 21.0411234,3.65419207 C21.1959731,2.41189993 21.9954296,0.6429449 22.9663011,0.234116544 C25.0974648,-0.66329403 25.992712,1.19116289 26.8454656,2.88323807 C37.3997318,23.8197046 47.9928905,44.7367716 58.5802873,65.655994 C59.1154189,66.7136308 59.6944847,67.748994 60.452888,69.168038 C61.2386601,67.748994 61.901993,66.6475285 62.4760171,65.5015158 C72.7054591,45.0715941 82.9233774,24.6366428 93.1441765,4.20312856 C93.6260111,3.24033419 93.8903359,1.99804205 94.657382,1.3923438 C95.5555102,0.68246258 96.9095446,0.21112444 98.0345455,0.266449191 C98.587683,0.293752315 99.4274724,1.69842619 99.5326262,2.55416358 C102.484133,26.5421135 105.391706,50.5358114 108.229416,74.5381314 C109.440845,84.7839879 109.36162,84.7933284 120.860829,86.3805021 C121.451418,88.3060909 121.213022,89.4786882 118.700856,89.4650366 C108.142268,89.4075564 97.5822404,89.4082749 87.0229326,89.4643181 C84.515088,89.4779697 84.2651678,88.3060909 84.8420729,86.4085237 C85.2029087,86.2648231 85.4139364,86.1239964 85.6379283,86.1002858 C95.7874246,85.0103164 97.0413469,83.5610953 95.8961795,73.7118526 C94.1416966,58.6175361 92.3022264,43.5332786 90.4944464,28.4447101 C90.4238638,27.8555374 90.3115077,27.2721128 90.0680696,25.7280493 C89.1620189,27.5120929 88.6038398,28.5711667 88.0816723,29.6482031 C78.9441007,48.4794551 69.837499,67.3265141 60.6207019,86.1196854 C59.9796962,87.4266429 58.3872653,89.3321135 57.4920181,89.2035014 C56.154549,89.0102241 54.5916476,87.4834046 53.9059876,86.1297445 C44.8181119,68.2038066 35.869961,50.2088924 26.8793165,32.2340963 C26.3038519,31.0837726 25.6707687,29.9614705 24.5392857,27.8426044" id="Fill-4" fill="#231F20" mask="url(#mask-4)"></path></g><path d="M0,232.735832 L0,228.970156 C2.86147806,228.734487 5.61492146,228.706465 8.29346083,228.244468 C13.7009557,227.312569 15.7997091,225.172866 16.5797193,219.837261 C16.9938522,217.006358 17.1991181,214.120131 17.2048799,211.258332 C17.2495342,189.822506 17.2315285,168.385961 17.1976776,146.950135 C17.1940765,144.921082 17.0464291,142.879814 16.7893066,140.866568 C15.8890177,133.810147 13.6325338,131.796183 6.53105539,131.587817 C5.22743714,131.549017 3.9216582,131.582069 2.35587585,131.582069 C2.23055564,130.293074 2.13332444,129.297947 2.00800424,128.007515 L80.0183927,128.007515 C80.4851024,135.543177 80.9539728,143.119794 81.422123,150.671263 C78.4713363,151.194334 78.4713363,151.194334 77.9729364,148.81034 C77.4111562,146.123138 77.008547,143.389233 76.2487032,140.758792 C75.0660838,136.664042 72.1469872,133.985462 67.9473198,133.90499 C55.5038876,133.666447 43.053253,133.820206 30.3289306,133.820206 L30.3289306,174.04633 C41.4953932,174.04633 52.5012442,174.312176 63.4833276,173.92634 C68.4666064,173.751025 69.2437358,169.271157 69.9265148,165.254005 C70.2110061,163.578456 70.0215853,161.309423 73.1805188,162.232699 L73.1805188,194.681744 C72.9406819,194.895139 72.7008449,195.108534 72.461008,195.32193 C71.6781168,194.542354 70.7310129,193.863368 70.1685125,192.947995 C69.7659033,192.293439 69.9121102,191.316993 69.7565403,190.494307 C68.5537544,184.13196 66.7870276,182.399649 60.3661675,181.643783 C57.8734478,181.349916 55.3403951,181.316146 52.8253482,181.301776 C45.4076883,181.260103 37.9900285,181.286687 30.055963,181.286687 C30.055963,183.197187 30.0516416,184.822442 30.0566832,186.447696 C30.0890936,196.746003 30.0602844,207.045748 30.1791225,217.343336 C30.2612288,224.411253 32.2692331,226.407255 39.2252248,226.369893 C49.3005373,226.315287 59.3751296,226.11195 69.4504421,225.991242 C74.8600977,225.925858 78.5008658,223.143095 80.7343023,218.46492 C82.1193067,215.564322 83.0599285,212.453922 84.4053201,209.532487 C84.8684287,208.525864 85.9530967,207.804487 86.7539937,206.952342 C87.1558826,207.167893 87.5577715,207.384163 87.9589403,207.599714 C87.1594838,215.879745 86.359307,224.159777 85.5310413,232.735832 L0,232.735832 Z" id="Fill-7" fill="#231F20"></path><path d="M480.974345,24.1273192 C480.974345,37.6265585 480.974345,50.7679831 480.974345,63.9086893 C480.974345,65.3234222 480.974345,66.7388736 480.974345,68.9992849 C486.535249,68.6400332 491.813103,68.7628973 496.912339,67.8705162 C506.581441,66.1791596 511.955805,60.5805822 513.260144,50.9030617 C513.776549,47.0734393 513.46757,43.0074294 512.809999,39.173496 C511.716688,32.7967795 507.678353,28.4864785 501.690352,26.1312248 C495.188105,23.5740717 488.412171,23.4354005 480.974345,24.1273192 M481.130635,72.2735042 C481.130635,81.0658287 481.036285,89.5542262 481.174569,98.0390312 C481.234349,101.728545 483.290608,104.090266 487.080464,104.566633 C489.568863,104.879901 492.083189,104.99055 494.779014,105.207538 C495.626006,107.246651 495.332872,108.424277 492.61616,108.412781 C480.73883,108.361768 468.861499,108.348116 456.984168,108.424996 C454.561311,108.440803 454.063631,107.44352 454.74425,105.141436 C456.565714,105.059527 458.467124,105.076052 460.343326,104.869123 C465.667274,104.282825 467.77323,102.126596 468.069965,96.7787765 C468.249302,93.5555708 468.154952,90.3158396 468.155672,87.084012 C468.159994,71.0412711 468.156393,54.9985303 468.152792,38.9557895 C468.152792,37.6394915 468.154952,36.3217565 468.11822,35.0054586 C467.891348,26.951037 466.378862,25.4594242 458.274102,25.2833909 C457.33348,25.2625543 456.391418,25.2805169 455.311792,25.2805169 L455.311792,21.6355499 C472.733461,21.3237194 489.978674,18.7471667 507.102168,22.4108149 C520.588495,25.2970425 528.447656,35.2648382 527.258555,47.6144723 C526.46486,55.8592972 521.771114,61.7237208 514.897949,65.9751046 C513.178037,67.0384895 511.275907,67.808725 509.272224,68.805289 C509.616495,69.3958987 509.879379,70.0425516 510.307916,70.5505334 C516.566004,77.9640501 522.658439,85.5291709 529.180131,92.7055815 C534.63084,98.7029282 540.873803,103.731733 549.409261,104.854753 C550.107886,104.946722 550.663184,106.130815 551.285463,106.806927 C550.460799,107.424121 549.677187,108.512653 548.807148,108.585941 C537.032811,109.582505 526.789684,106.487911 518.713733,97.3751342 C512.279189,90.1132217 505.586081,83.0797933 499.088157,75.8732056 C496.609842,73.1234936 493.920499,71.5945187 489.99812,72.1915949 C487.208665,72.6155118 484.301813,72.2735042 481.130635,72.2735042" id="Fill-9" fill="#231F20"></path><path d="M70.1325009,24.8232614 C69.2963126,23.8108903 68.2426146,22.9091687 67.6577869,21.7681856 C62.3633683,11.4461677 54.4696357,4.85390028 42.4669849,4.18425524 C40.3314997,4.0649837 38.1175094,4.20437333 36.0259584,4.6390678 C23.3995874,7.26160471 18.4789687,19.6234533 26.2740296,29.909546 C29.1088591,33.650074 32.9260838,36.8308879 36.7886831,39.5755704 C44.2056227,44.8465103 52.0770281,49.4765453 59.5530267,54.6698869 C63.0706352,57.1135165 66.3959421,59.9774705 69.3135982,63.1108632 C81.2543092,75.9332725 78.7039709,94.8500263 63.8103125,104.273915 C52.8361517,111.216812 40.9746661,111.430926 28.7847551,108.322681 C26.4641706,107.730634 24.1940023,106.775025 21.843168,106.519238 C19.8841395,106.305842 17.800511,106.699582 15.8458039,107.146491 C14.2396886,107.513646 12.6652635,108.29897 12.3130705,105.851748 C11.2096765,98.1738224 10.1883888,90.483682 9.13613119,82.8100672 C11.7966648,81.4829916 12.4556762,82.9329312 13.1074853,84.8441499 C15.154382,90.8414966 18.2074416,96.2123085 23.4629677,100.03259 C33.004589,106.967584 43.2484356,107.753626 53.6312868,102.502086 C65.1665077,96.6678396 67.66715,83.0960315 59.0791146,73.417074 C56.1809048,70.1500397 52.5149286,67.4829556 48.931779,64.9150249 C39.3951993,58.0820589 29.4408856,51.8009034 20.169351,44.6345519 C12.1481375,38.4345872 8.15517646,29.8527843 10.5283379,19.5832171 C13.1031639,8.44354258 21.4275947,3.16038809 31.9544921,0.864770171 C41.139599,-1.13841692 50.0337325,0.622634572 58.8832118,3.250201 C60.9459536,3.86308428 63.3976201,3.07201219 65.6605862,3.1625436 C66.7531767,3.2056538 68.6920388,3.65759235 68.7734249,4.15982613 C69.8292836,10.739879 70.6222581,17.3623236 71.4807735,23.9747091 C71.0313493,24.2570809 70.5819251,24.5401711 70.1325009,24.8232614" id="Fill-11" fill="#231F20"></path><path d="M548.348217,21.7970694 C548.936646,21.7632997 549.524354,21.699353 550.112783,21.699353 C561.147443,21.6936049 572.182104,21.6948823 583.54807,21.6948823 C583.659706,22.7878854 583.760538,23.7736719 583.885138,24.9886609 C582.936594,25.1057769 582.257416,25.2365445 581.573917,25.2667216 C573.718357,25.6123217 571.798941,27.4574381 571.76653,35.2359544 C571.709632,48.8839239 571.525253,62.5390783 571.870964,76.1791443 C572.231079,90.428501 581.748213,100.397015 595.947568,101.979159 C602.386434,102.696226 608.529285,101.854858 614.376121,98.6338082 C621.867965,94.5067255 626.260654,88.1953928 626.519937,79.9426644 C627.001052,64.6414189 626.802268,49.3121518 626.575395,33.9994103 C626.489687,28.2197701 623.862284,25.9852249 618.032014,25.3982077 C616.841472,25.2789362 615.642287,25.2530701 614.108915,25.1639757 C614.014565,24.1566341 613.922375,23.1708476 613.806418,21.9264 L646.643193,21.9264 C646.69577,22.8446472 646.751948,23.8182191 646.800924,24.678986 C646.333494,24.9275881 646.136871,25.114399 645.925123,25.13308 C636.758742,25.9413962 634.783869,27.9532053 634.645584,37.6637769 C634.459044,50.7125147 634.703203,63.7684374 634.457604,76.8150197 C634.180315,91.5622991 625.18895,103.993124 611.292812,108.174095 C598.616745,111.98791 586.068879,111.127861 574.510611,104.148321 C563.810858,97.6882579 559.219385,87.675915 559.109189,75.4750111 C558.98747,61.9463132 559.040768,48.4154597 558.993953,34.8860433 C558.965863,26.7209722 558.367351,26.1526362 550.177604,25.0454226 C549.188006,24.911781 548.349657,23.6673334 547.440726,22.9380526 C547.743223,22.5572458 548.04572,22.1771576 548.348217,21.7970694" id="Fill-13" fill="#231F20"></path><path d="M277.773607,147.163243 C288.013853,147.163243 298.305955,147.112229 308.595176,147.268863 C309.347817,147.280359 310.077412,148.793527 311.176484,150.004205 C309.707213,150.374234 309.26139,150.562482 308.806204,150.590503 C301.28339,151.046035 298.311717,152.590098 298.176313,162.59813 C298.004898,175.288335 298.205122,187.983569 298.002017,200.672336 C297.739133,217.10738 288.698793,229.704898 273.858431,233.907423 C263.562008,236.822391 253.191401,236.500501 243.211879,232.259177 C229.798295,226.557853 222.930892,216.225058 222.637758,201.775957 C222.373433,188.729375 222.544128,175.674889 222.52108,162.623996 C222.518199,161.18699 222.539086,159.749265 222.49011,158.313695 C222.30141,152.835108 220.99347,151.37942 215.573011,150.627866 C214.275155,150.447521 212.964334,150.365612 210.442805,150.119884 C211.603098,148.767661 212.280835,147.278922 212.978019,147.269581 C224.229469,147.124444 235.483079,147.166835 246.766939,147.166835 C247.658585,149.66076 247.118412,150.619244 244.589681,150.828328 C236.677942,151.482885 235.245403,152.900491 235.178421,160.76451 C235.063905,174.290334 234.659135,187.845616 235.353437,201.33767 C236.242923,218.634918 248.185074,228.549544 265.604583,227.540047 C280.396689,226.682873 289.96928,217.188571 290.28114,202.416144 C290.566352,188.893912 290.384853,175.359466 290.263134,161.831487 C290.192552,153.904959 287.539941,150.676005 279.934301,150.837669 C277.435099,150.890838 276.78473,149.741233 277.773607,147.163243" id="Fill-15" fill="#231F20"></path><path d="M242.586214,86.6997564 C242.586214,87.6345292 242.66616,88.577924 242.57325,89.5040747 C241.954571,95.6781732 241.299881,101.849398 240.646632,108.116902 C239.544678,108.227551 238.732258,108.380592 237.919117,108.380592 C216.077389,108.394244 194.236382,108.383466 172.394654,108.406032 C170.295901,108.407895 168.33039,108.459628 169.313506,105.270192 C171.858802,104.995005 174.464598,104.773706 177.053109,104.419484 C180.487891,103.948864 182.278385,101.771799 182.891302,98.496143 C183.001497,97.9098443 183.07352,97.3063016 183.074241,96.7106624 C183.112413,75.6455837 183.316238,54.5783496 183.065598,33.5168635 C182.985652,26.8139466 181.084962,25.5651879 174.379611,25.2957492 C173.444031,25.258387 172.509891,25.1786331 171.421622,25.1082198 L171.421622,21.9309984 L236.235937,21.9309984 C236.627742,28.2344275 237.02531,34.6176105 237.428639,41.1064135 C235.196643,42.1439322 234.271866,41.7078007 233.763383,39.2189054 C231.428394,27.7832075 230.060675,26.7593403 218.125726,26.7521553 C211.045855,26.7485628 203.966704,26.788799 196.887552,26.8240056 C196.676525,26.8254426 196.466217,26.9935724 196.056406,27.1688872 L196.056406,59.6912188 C204.904444,59.6912188 213.736638,59.9017403 222.549386,59.5891914 C226.123172,59.4620163 226.61581,56.0721179 227.174709,53.1851718 C227.70696,50.4419263 227.752335,50.4505484 231.005619,50.5655089 C231.005619,54.1802988 231.005619,57.8353249 231.004898,61.490351 C231.004898,65.8020891 230.922072,70.1152641 231.037309,74.4234097 C231.097088,76.6507698 230.389101,77.6063791 228.085082,76.9489487 C227.958321,76.7987815 227.712722,76.6407108 227.672389,76.4409669 C225.629814,66.2640867 225.612528,66.2087619 215.014328,66.0470987 C209.135802,65.9572858 203.255115,66.0183585 197.375149,66.0248251 C197.027997,66.0248251 196.681566,66.1462521 195.85258,66.3021673 C195.85258,70.3775178 195.843217,74.5283112 195.855461,78.6791045 C195.871306,84.5471207 195.807206,90.4172923 195.961335,96.2817159 C196.06937,100.42748 197.288721,101.661868 201.43077,101.701386 C209.469269,101.777547 217.51281,101.514575 225.548428,101.658276 C231.074041,101.756711 234.665833,99.2922446 236.773229,94.3877413 C237.574846,92.5225069 238.464332,90.6486504 238.905833,88.687855 C239.399912,86.4957015 240.45577,85.9654461 242.586214,86.6997564" id="Fill-17" fill="#231F20"></path><path d="M114.907754,45.6589938 C114.907754,52.0026591 114.833571,58.3484799 114.984099,64.6885527 C115.007866,65.6901463 115.844055,67.2988751 116.649993,67.5582547 C125.307891,70.3446104 137.02389,66.2045946 142.272934,58.702702 C147.797827,50.8070697 148.094562,38.0507628 142.154816,31.0884662 C139.747804,28.2669039 136.028531,25.8196818 132.466988,24.9035901 C127.820777,23.7087192 122.739547,24.1642502 117.842696,23.9918095 C115.604218,23.9127741 114.804041,25.0587868 114.857338,27.3472197 C115.001384,33.4480309 114.906314,39.5545901 114.907754,45.6589938 M115.170639,71.0674247 C115.170639,80.4187446 115.046039,89.2592087 115.232579,98.0924878 C115.306042,101.586569 117.463134,103.897994 121.010992,104.418191 C124.068373,104.866537 127.17329,104.99946 130.286128,105.274646 C131.022204,107.394231 130.489954,108.420972 128.085822,108.410195 C116.803403,108.362055 105.520263,108.357025 94.2378427,108.414612 C91.7047901,108.427439 91.4519889,107.262026 92.0958755,105.312727 C102.110689,103.614904 102.809313,105.56564 102.751694,92.7856228 C102.666707,73.8616838 102.816515,54.9363079 102.691915,36.012369 C102.606208,22.9478242 101.602926,25.4668967 92.04762,25.2570937 C91.2294375,25.2391311 90.4105348,25.2549382 89.4108541,25.2549382 C89.4108541,24.0557562 89.4108541,23.1482866 89.4086934,22.23938 C89.5909118,22.0913683 89.7688089,21.8276776 89.9632713,21.8147446 C105.770183,20.7671668 121.59582,19.5557703 137.392648,21.6566739 C147.779101,23.0376371 155.766463,28.0456049 159.09177,38.4739612 C162.867221,50.316332 157.09529,62.5840567 145.429707,67.9864827 C137.4906,71.6630639 129.061735,72.3894707 120.44345,71.5933691 C118.78908,71.4403279 117.13759,71.2642946 115.170639,71.0674247" id="Fill-19" fill="#231F20"></path><path d="M338.939087,24.2124618 C339.367625,31.296904 339.762311,37.8187581 340.235503,45.6454141 C338.264951,44.3944999 336.714294,43.9669905 336.184924,42.9898261 C328.31784,28.4537866 315.707314,21.7587732 300.053091,23.9803853 C284.424797,26.1991233 273.035063,36.8775188 270.051146,52.7715295 C266.776255,70.2189442 270.466719,85.7781323 284.609176,97.5134461 C301.558374,111.578147 327.689798,106.922965 339.036319,88.1132679 C340.211736,86.1639685 341.289922,84.7233695 344.476224,86.2135453 C341.587377,92.4925453 338.732381,98.7708268 335.780874,105.004561 C335.481258,105.637562 334.650832,106.327326 333.979576,106.43079 C326.183075,107.640031 318.399538,109.038957 310.554781,109.807755 C295.303167,111.302961 281.026027,108.564026 269.246648,98.050168 C243.952852,75.4719215 253.674532,33.3158981 286.597014,22.4571583 C297.468182,18.8718271 308.501402,18.9429589 319.660662,21.070447 C326.007338,22.2804065 331.755503,26.564123 338.939087,24.2124618" id="Fill-21" fill="#231F20"></path><path d="M518.447104,191.947982 C525.38725,179.971251 532.099084,168.671351 538.498337,157.197572 C540.859974,152.963432 539.112694,150.71308 534.000494,150.131092 C532.52546,149.962963 529.68631,151.30369 530.220001,147.275761 C534.843884,147.275761 539.488655,147.275761 544.133425,147.275761 C549.412719,147.276479 554.691292,147.310967 559.969866,147.259953 C561.820859,147.241272 563.143924,147.501371 562.219867,150.210128 C552.422564,150.288445 547.226817,156.716175 542.842771,164.651325 C536.82524,175.540242 530.31219,186.155409 524.130447,196.955232 C523.286336,198.430319 522.76849,200.286213 522.719514,201.983317 C522.55098,207.844867 522.600676,213.715039 522.672699,219.580899 C522.772812,227.79411 524.190946,229.19591 532.475765,230.0265 C533.486969,230.127809 534.409585,231.099225 535.373254,231.66828 C535.192476,232.049805 535.011698,232.43133 534.83092,232.813574 L497.284554,232.813574 C496.760946,231.293939 496.408753,229.933094 498.975657,229.97836 C499.933564,229.995604 500.897233,229.952494 501.850819,229.85837 C508.172287,229.235428 510.163006,227.370193 510.39276,221.073231 C510.620353,214.856022 510.529603,208.623725 510.397801,202.401486 C510.372593,201.195838 509.691254,199.89391 509.009916,198.829088 C501.204772,186.627466 493.324724,174.474701 485.500133,162.286012 C481.450994,155.978272 477.097917,150.181388 468.491876,150.253957 C468.012202,150.257549 467.523886,149.270326 467.03917,148.744381 C467.69242,148.257954 468.334866,147.365573 468.999639,147.349048 C473.915216,147.226902 478.835835,147.277198 483.755013,147.276479 C489.873376,147.275042 495.99318,147.228339 502.110102,147.336115 C502.925404,147.350485 503.727021,148.156646 504.5344,148.595651 C503.758711,149.098603 503.023355,149.956496 502.201572,150.048465 C493.134583,151.064428 492.584326,152.182419 497.641068,159.980335 C504.4098,170.420906 511.213823,180.838485 518.447104,191.947982" id="Fill-23" fill="#231F20"></path><path d="M421.415557,106.3205 C420.487899,107.010263 419.566003,108.290636 418.631143,108.299976 C405.676347,108.431462 392.72011,108.351709 379.764594,108.421519 C377.22866,108.435055 377.050763,107.239465 377.535478,105.247056 C380.714578,105.005639 383.811572,104.883493 386.877596,104.507716 C390.283568,104.090266 392.218829,102.023132 392.647367,98.6195818 C392.841829,97.0798293 393.067982,95.5285808 393.070142,93.9823618 C393.098231,72.7944191 393.091029,51.6057579 393.083107,30.4178152 C393.083107,29.5987215 392.985155,28.7796278 392.913852,27.6601997 C384.43025,27.6601997 376.078451,27.4496783 367.755461,27.8383885 C366.096048,27.9159869 363.958402,29.9795282 363.076119,31.6658554 C361.663746,34.3674277 361.060913,37.5044129 360.219683,40.4862014 C359.570034,42.7882859 359.641337,42.808404 356.635813,42.4038866 C357.322913,34.8229587 358.012175,27.2298163 358.74609,19.137314 C359.830758,19.238623 361.344684,18.9699028 361.686073,19.4807586 C363.540668,22.2606477 366.295552,21.655668 368.84373,21.659979 C389.237073,21.6959041 409.630416,21.6959041 430.023038,21.6542309 C432.449497,21.6492014 434.945097,22.1320356 436.875317,19.568416 C437.694219,18.4813205 439.856353,18.3275608 440.080345,20.9306982 C440.694702,28.0690281 441.349392,35.204484 441.988957,42.3492804 C439.808098,43.4004507 438.88116,42.8608547 438.403647,40.5882289 C437.792891,37.6826017 436.863793,34.8258327 435.855469,32.025107 C434.764319,28.9973343 432.417086,27.5057215 429.198374,27.496381 C421.525752,27.4741074 413.85313,27.4891959 405.729644,27.4891959 C405.669145,28.7465766 405.567592,29.8846858 405.566872,31.022795 C405.557509,51.9714761 405.558949,72.9208757 405.565431,93.8695568 C405.565431,94.9458747 405.554628,96.0308146 405.673466,97.0977919 C406.253972,102.284667 408.182751,104.307972 413.397944,104.838228 C415.7531,105.077489 418.15363,104.878464 420.533274,104.878464 C420.827128,105.359142 421.121702,105.839821 421.415557,106.3205" id="Fill-25" fill="#231F20"></path><path d="M371.502823,167.576064 C372.14743,160.333551 372.694085,153.079542 373.492821,145.853555 C373.747783,143.550752 375.23434,143.922218 376.890872,144.888605 C378.530117,145.845652 380.378951,147.079322 382.144237,147.091536 C403.50269,147.241703 424.862583,147.242422 446.220315,147.089381 C447.983441,147.077166 449.825792,145.821941 451.468639,144.866332 C453.135974,143.896352 454.630453,143.613262 454.875332,145.860022 C455.660384,153.086009 456.186872,160.340018 456.812753,167.583249 C456.447596,167.828259 456.082439,168.073987 455.717282,168.319715 C454.911343,167.475474 453.730884,166.764874 453.369328,165.761125 C452.361005,162.962555 451.836677,159.992262 450.84996,157.184352 C449.701912,153.917317 447.343875,152.273382 443.71031,152.322959 C436.046331,152.425704 428.380191,152.353854 420.253104,152.353854 C420.253104,153.81026 420.253104,154.972799 420.253104,156.134618 C420.253104,176.851223 420.231497,197.567827 420.263907,218.283713 C420.279032,227.855614 422.305042,229.850897 431.853145,229.982384 C432.572656,229.992443 433.39372,229.771862 433.98863,230.045612 C434.857229,230.4451 435.563776,231.196654 436.338744,231.798041 C436.150764,232.126397 435.962064,232.454035 435.774083,232.782391 L392.68914,232.782391 C391.948022,230.810099 392.486755,229.973762 394.677698,229.951488 C397.186263,229.925622 399.713554,229.765396 402.193309,229.395366 C405.422826,228.913251 407.263736,226.865516 407.691553,223.638 C407.895379,222.098247 408.061752,220.539095 408.063193,218.988565 C408.087681,197.673447 408.081198,176.35833 408.073996,155.043212 C408.073996,154.336923 407.989009,153.630634 407.906903,152.348106 C404.148737,152.348106 400.494284,152.348106 396.839832,152.348106 C392.879281,152.348825 388.914409,152.475281 384.961061,152.315773 C381.014915,152.156984 378.530117,153.961146 377.329492,157.534981 C376.4184,160.244457 375.938726,163.102663 374.967855,165.786273 C374.605578,166.787866 373.392709,167.483377 372.568045,168.318278 C372.212971,168.071113 371.857897,167.823229 371.502823,167.576064" id="Fill-27" fill="#231F20"></path><path d="M357.062478,148.512089 C356.179475,149.218378 355.378578,150.380198 354.399063,150.557668 C347.596481,151.787027 346.467159,152.963935 346.454915,160.013889 C346.419623,179.879786 346.420344,199.746401 346.451314,219.612298 C346.462837,227.018629 347.570553,228.235055 354.903225,229.988203 C355.749497,230.190821 356.374657,231.311686 357.102811,232.007198 C356.898985,232.28454 356.69588,232.561882 356.492055,232.839224 L324.132793,232.839224 C323.332616,230.953872 323.774838,230.168548 325.96146,229.833007 C332.715787,228.79477 334.185058,227.036592 334.201623,220.085073 C334.249879,199.979915 334.25204,179.874038 334.210986,159.76888 C334.197302,153.115539 332.903767,151.632549 326.24379,150.732983 C324.016836,150.43193 323.207296,149.744322 324.162322,147.440082 L356.099529,147.440082 C356.420752,147.797897 356.741255,148.154993 357.062478,148.512089" id="Fill-29" fill="#231F20"></path></g></g></svg> 