<?xml version="1.0" encoding="UTF-8"?> <svg xmlns="http://www.w3.org/2000/svg" id="Layer_1" viewBox="0 0 888 500"><defs><style>.cls-1{fill:#00003b;}.cls-2{fill:#fff;}.cls-3{fill:#ff4300;}.cls-4{fill:#54c9ea;}</style></defs><path class="cls-1" d="m445.034,179.255c22.478-13.302,53.234-23.935,82.463-22.675,59.853,2.555,83.32,42.219,70.593,85.364-18.467,62.653-101.921,73.012-126.182,69.565,10.186-9.035,18.134-18.979,23.162-29.512,18.279-38.368-5.785-74.369-50.037-102.741"></path><path class="cls-3" d="m391.203,245.314c3.786-24.072,25.359-49.28,53.829-66.061,44.253,28.374,68.317,64.376,50.038,102.743-5.028,10.535-12.976,20.479-23.162,29.514-48.868-7.103-86.557-28.963-80.705-66.196"></path><path class="cls-4" d="m349.547,137.903c36.274,9.148,69.165,24.488,95.485,41.351-28.469,16.779-50.044,41.987-53.827,66.059-5.855,37.233,31.837,59.095,80.702,66.193-53.412,42.601-152.625,78.266-238.377,30.024-105.773-59.551-58.861-247.756,116.018-203.627"></path><path class="cls-2" d="m471.885,270.764c-1.566.289-3.52.384-4.549.384-6.955,0-11.035-3.907-11.035-10.949,0-6.216,3.617-9.931,9.463-9.931,2.402,0,4.444.368,6.121,1.214v19.282h0Zm0-47.251v16.367c-1.756-.759-4.549-1.118-7.337-1.118-13.258,0-21.621,8.997-21.621,21.888,0,14.115,9.474,21.725,23.942,21.725,6.044,0,12.997-.753,18.192-2.135v-56.728h-13.177Zm-44.716,49.037c-1.306.262-3.161.361-4.273.361-3.34,0-5.377-1.403-5.377-4.285,0-2.86,2.036-4.164,6.13-4.164h3.52v8.089h0Zm-4.641-33.787c-5.473,0-10.568,1.211-14.386,3.437v11.126c3.163-1.95,7.057-3.428,11.98-3.428,3.8,0,7.049,1.297,7.049,4.921v1.667h-4.451c-11.413,0-18.277,3.995-18.277,12.802,0,10.019,8.342,13.087,18.634,13.087,5.947,0,12.997-.942,17.091-1.855v-26.267c-.002-11.682-7.622-15.489-17.64-15.489"></path><path class="cls-3" d="m707.964,327.671c-4.289,0-8.752.908-12.006,2.613v27.235h9.261v-20.778c1.119-.262,2.161-.378,3.143-.378,2.105,0,4.201.266,6.139,1.098v-8.937c-2.351-.646-3.977-.854-6.536-.854m-32.698,12.807c.517-3.205,2.27-5.422,5.283-5.422,3.4,0,4.574,2.615,4.574,5.422h-9.857Zm5.47-12.995c-8.36,0-14.497,5.871-14.497,15.815,0,8.997,5.88,14.866,15.818,14.866,3.974,0,8.029-.774,10.769-2.612v-7.631c-2.874,1.492-5.878,2.348-9.739,2.348-3.395,0-7.112-1.306-7.897-4.435v-.148h18.43v-3.963c0-7.649-3.136-14.24-12.884-14.24m-25.815,21.16c-1.184.396-2.348.715-3.986.715-3.793,0-6.461-2.554-6.461-6.917,0-4.769,2.74-6.929,6.989-6.929,1.301,0,2.596.188,3.458.509v12.622Zm-19.861-6.2c0,9.475,6.028,14.625,14.643,14.625,2.207,0,4.238-.4,5.218-.91v.644c0,3.469-2.416,5.359-5.878,5.359-3.791,0-6.538-.774-10.373-3.066v8.543c3.326,1.572,6.711,2.29,10.373,2.29,6.589,0,15.146-2.668,15.146-13.126v-26.971c-3.462-1.362-7.629-2.348-12.726-2.348-10.187,0-16.403,5.683-16.403,14.959m-14.887-14.959c-4.565,0-10.377,1.044-14.62,2.73v27.309h9.261v-21.04c1.447-.516,3.2-.702,4.718-.702,3.201,0,4.166,1.82,4.166,4.168v17.575h9.289v-17.953c.002-9.284-5.114-12.085-12.814-12.085m-26.619,23.77c-.912.187-2.218.262-3.004.262-2.358,0-3.786-.986-3.786-3.011s1.429-2.936,4.298-2.936h2.492v5.685Zm-3.266-23.77c-3.845,0-7.437.852-10.123,2.406v7.842c2.226-1.366,4.972-2.406,8.435-2.406,2.659,0,4.954.908,4.954,3.444v1.176h-3.134c-8.029,0-12.863,2.807-12.863,9.018,0,7.047,5.875,9.203,13.127,9.203,4.18,0,9.15-.644,12.017-1.287v-18.486c.002-8.242-5.357-10.91-12.413-10.91m-25.75,0c-3.145,0-5.686.7-6.733,1.172v-13.18h-9.264v42.046h9.264v-21.098c1.429-.51,3.2-.644,4.697-.644,3.201,0,4.183,1.82,4.183,4.168v17.575h9.282v-17.953c0-9.15-5.227-12.085-11.429-12.085m-33.497,15.267c0-4.491,2.869-7.179,7.307-7.179,2.682,0,4.907.66,7.316,2.687v-8.618c-2.485-1.515-4.956-2.159-8.356-2.159-9.278,0-15.607,6.327-15.607,15.417s5.748,15.266,15.607,15.266c3.069,0,6.005-.51,8.486-2.156v-8.486c-2.012,1.705-4.432,2.554-7.112,2.554-4.898,0-7.642-3.124-7.642-7.325m-7.918-14.625h-10.656l-4.704,7.33-4.639-7.33h-11.035l10.178,14.317-10.832,15.077h10.32l5.551-8.163,5.681,8.163h10.78l-10.838-15.148,10.195-14.247Zm-50.249,12.353c.517-3.205,2.29-5.422,5.303-5.422,3.393,0,4.565,2.615,4.565,5.422h-9.868Zm5.493-12.995c-8.354,0-14.509,5.871-14.509,15.815,0,8.997,5.88,14.866,15.802,14.866,3.993,0,8.041-.774,10.776-2.612v-7.631c-2.856,1.492-5.878,2.348-9.724,2.348-3.397,0-7.122-1.306-7.918-4.435v-.148h18.432v-3.963c0-7.649-3.127-14.24-12.86-14.24"></path></svg> 