<?xml version="1.0" encoding="UTF-8"?> <svg xmlns="http://www.w3.org/2000/svg" xmlns:xlink="http://www.w3.org/1999/xlink" id="Layer_1" viewBox="0 0 888 500"><defs><style>.cls-1{fill:none;}.cls-2{clip-path:url(#clippath);}.cls-3{fill:#fff;}.cls-4{fill:#ed1b24;}.cls-5{clip-path:url(#clippath-1);}</style><clipPath id="clippath"><rect class="cls-1" x="227.686" y="133.325" width="432.629" height="233.349"></rect></clipPath><clipPath id="clippath-1"><rect class="cls-1" x="227.686" y="133.323" width="432.629" height="233.352"></rect></clipPath></defs><g class="cls-2"><g><rect class="cls-4" x="227.686" y="133.323" width="432.624" height="233.352"></rect><polygon class="cls-3" points="459.357 166.095 481.545 166.095 481.545 161.042 408.478 161.042 408.478 166.095 430.67 166.095 430.67 333.199 408.478 333.199 408.478 338.244 481.545 338.244 481.545 333.199 459.357 333.199 459.357 166.095"></polygon><g class="cls-5"><g><path class="cls-3" d="m394.79,211.941h-5.492s-5.861-50.428-54.049-50.428c-44.585,0-47.693,41.95-47.693,76.15,0,54.535,5.709,99.137,50.294,99.137,47.906,0,55.785-50.285,55.785-50.285h5.21v52.026h-3.473l-10.406-10.697c-14.069,9.301-30.533,14.322-47.398,14.456-48.019,0-83.895-41.433-83.895-90.181,0-51.839,33.237-94.518,80.135-94.518,28.253,0,43.643,15.611,43.643,15.611l12.72-12.433h3.755l.864,51.162Z"></path><path class="cls-3" d="m558.151,159.249c-46.669,0-76.263,51.309-76.263,91.418s29.594,91.709,76.263,91.709,76.267-51.609,76.267-91.709-29.594-91.418-76.267-91.418m0,178.287c-45.852,0-43.348-44.75-43.348-86.869s-2.505-87.563,43.348-87.563,43.352,45.436,43.352,87.563,2.501,86.869-43.352,86.869"></path></g></g></g></g></svg> 