<?xml version="1.0" encoding="UTF-8"?> <svg xmlns="http://www.w3.org/2000/svg" id="Layer_1" viewBox="0 0 888 500"><defs><style>.cls-1{fill:#676767;}.cls-2{fill:#6b6b6b;}.cls-3{fill:#830226;}.cls-4{fill:#830327;}.cls-5{fill:#6c6c6c;}.cls-6{fill:#7c7c7c;}.cls-7{fill:#9c9c9c;}.cls-8{fill:#929292;}.cls-9{fill:#9d9e9d;}.cls-10{fill:#a54963;}.cls-11{fill:#a7a7a7;}.cls-12{fill:#d0a1ad;}.cls-13{fill:#c992a1;}.cls-14{fill:#434343;}.cls-15{fill:#414141;}.cls-16{fill:#424242;}.cls-17{fill:#444;}.cls-18{fill:#444545;}.cls-19{fill:#454646;}.cls-20{fill:#454545;}.cls-21{fill:#3e3e3e;}.cls-22{fill:#3f3f3f;}.cls-23{fill:#3f4040;}.cls-24{fill:#a3435d;}.cls-25{fill:#717171;}.cls-26{fill:#464646;}.cls-27{fill:#535353;}.cls-28{fill:#9a9b9b;}.cls-29{fill:#888;}.cls-30{fill:#9c3652;}.cls-31{fill:#820225;}.cls-32{fill:#820226;}.cls-33{fill:#555;}.cls-34{fill:#636363;}.cls-35{fill:#626262;}.cls-36{fill:#5b5b5b;}.cls-37{fill:#565656;}.cls-38{fill:#4a4a49;}.cls-39{fill:#4a4a4a;}.cls-40{fill:#474747;}.cls-41{fill:#484848;}.cls-42{fill:#5c5c5c;}.cls-43{fill:#3b3b3b;}.cls-44{fill:#5a5a5a;}.cls-45{fill:#585858;}.cls-46{fill:#575757;}.cls-47{fill:#840427;}.cls-48{fill:#840528;}.cls-49{fill:#4c4c4c;}.cls-50{fill:#616161;}.cls-51{fill:#494949;}.cls-52{fill:#606060;}.cls-53{fill:#767676;}.cls-54{fill:#4b4b4b;}.cls-55{fill:#5e5e5e;}.cls-56{fill:#717272;}.cls-57{fill:#4f4f4f;}.cls-58{fill:#525252;}.cls-59{fill:#505050;}.cls-60{fill:#757575;}.cls-61{fill:#343434;}.cls-62{fill:#4d4d4d;}.cls-63{fill:#4e4e4e;}.cls-64{fill:#515151;}</style></defs><path class="cls-47" d="M562.51,324.75c2.46,2.74,3.24,6.1,3.28,9.63,.08,7.25-.07,14.51,.09,21.76,.06,2.71-.75,3.81-3.58,3.79-2.8-.01-4.15-.68-4.05-3.83,.2-6.64,.15-13.3,.04-19.94-.09-5.44-2.01-8.12-5.96-8.83-4.86-.87-8.08,1.17-10.17,6.19-1.08,2.6-1.13,5.3-1.16,8.01-.06,4.83-.2,9.68,.07,14.5,.17,3.1-1,3.94-3.9,3.92-2.66-.02-3.75-.75-3.74-3.62,.11-19.94,.13-39.89,0-59.83-.02-3.16,1.22-3.86,4.02-3.81,2.67,.04,3.68,.85,3.62,3.73-.19,9.48-.07,18.97-.07,29.16,2.08-1.43,3.59-2.47,5.09-3.5,5.87-1.53,11.6-2.16,16.41,2.7Z"></path><path class="cls-61" d="M419.54,126.96c8.31,18.12,16.58,36.26,24.93,54.37,2.82,6.13,5.82,12.17,8.74,18.26,.97,1.46,2.78,2.82,.63,4.7-4.44-2.48-8.9-3.97-13.44-.21q-4.12,3.31-5.95-.16c-.43-2.16-.77-4.35-1.99-6.27-1.98-4.04-2.33-8.56-3.77-12.77-.51-4.6-2.2-8.94-2.91-13.49-.09-1.05-.08-2.11-.36-3.15-3.38-12.47-5.58-25.22-8.86-37.72-.09-1.98-1.11-3.68-1.57-5.55-.28-1.13-1.03-2.81,1.35-2.79,1.03,1.62,1.56,3.57,3.21,4.77Z"></path><path class="cls-61" d="M468.77,255.84c.34,1.75,.69,3.5,1.03,5.25-.21,2.18,1.86,3.08,2.65,4.7-2.16,3.43,1.23,6.24,1.07,9.48-.06,1.29,.53,2.62,.83,3.93,.6,2.8,.53,5.76,1.98,8.35,.02,2.48,2.16,4.87,.29,7.42-3.37-3.49-4.3-8.3-6.69-12.33-.45-.75-.45-1.76-1.29-2.3-1.17-2.14-2.34-4.27-3.51-6.41-1.16-.96-1.06-2.77-2.44-3.58-1.94-3.1-2.51-6.86-4.78-9.8-6.22-12.97-12.13-26.08-18.27-39.09-.37-1.73-1.7-3.58,.61-4.97,4.81,2.1,9.53,3.37,13.51-1.59,.67-.62,1-1.5,1.61-2.14,1.51-1.61,2.49-1.07,3.22,.82,.85,2.22-.07,4.8,1.48,6.85,.94,5.39,3.31,10.45,3.7,15.97,.22,2.33,.87,4.54,1.71,6.71,1.66,4.09,2.47,8.4,3.27,12.71Z"></path><path class="cls-61" d="M423.3,270.34c-26.84-7.09-42.82-28.09-43.01-55.82-.09-13.27,3.29-25.22,11.22-35.88,3.46-3.79,6.94-7.56,10.72-11.05,.37-.24,.77-.35,1.2-.33,.68,.19,1.1,.62,1.26,1.31,.04,.93-.4,1.64-.99,2.29-1.77,1.71-3.54,3.43-4.04,6.01-3.21,6.48-7.25,12.5-9.21,19.62-5.22,18.97-.95,35.66,11.08,50.92,5.25,6.67,12.02,11.38,18.62,16.39,2.69,3.14,6.44,4.12,10.24,5,.42,.22,.75,.54,1,.94,.5,1.42-.07,2.16-1.47,1.77-2.18-.61-4.48-.46-6.62-1.17Z"></path><path class="cls-4" d="M525.97,353.77c-6.07,8.44-18.68,10.02-25.23,3.07-1.21-1.28-3.56-2.86-.83-4.7,1.75-1.18,3.63-4.53,6.13-.47,1.25,2.04,3.63,2.69,5.98,2.71,2.99,.03,6.09-.4,6.9-3.85,.77-3.3-1.8-4.81-4.38-5.98-2.07-.93-4.18-1.75-6.26-2.65-4.62-2-7.96-5.13-8.12-10.44-.15-4.91,2.52-8.21,6.85-10.29,6.25-2.8,12.57-1.41,16.72,3.49,1.63,1.93,1.68,3.61-.41,4.9-1.68,1.04-3.49,3.7-5.62,.52-.6-.89-1.1-1.91-2.26-2.04-2.63-.3-5.83-1.37-7.14,1.93-1.24,3.12,1.39,4.43,3.77,5.65,3.58,1.84,7.71,2.44,10.87,5.31,3.99,3.62,5.1,7.53,3.04,12.84Z"></path><path class="cls-14" d="M310.43,327.08c1.15-1.12,2.3-2.23,3.44-3.35,1.18-.09,2.74-1.23,3.08,1.08-.62,.59-1.24,1.18-1.86,1.77-3.07,2.05-5.15,5.21-8.16,7.33-.91,.89-1.83,1.77-2.74,2.66-1.14,1.31-4,1.68-2.47,4.46,6.97,5.32,12.53,12.07,19.4,18.24-3.24,1.69-5.14,.64-6.93-1.17-4.35-4.41-8.7-8.82-13.11-13.18-1.04-1.02-1.79-2.47-3.83-2.79-.83,4.59-.11,9.21-.4,13.77-.1,1.6,.98,4.18-1.97,4.13-2.46-.04-1.83-2.35-1.83-3.89-.03-19.66-.02-39.33,0-58.99,0-1.59-.52-3.78,1.89-3.88,2.61-.1,1.92,2.19,1.93,3.72,.03,13.59,.02,27.18,.02,41.14,2.91-.74,4.25-2.98,6.18-4.37,3.03-1.59,5.05-4.3,7.37-6.67Z"></path><path class="cls-51" d="M378.62,342.97c0,4.53,0,9.06,0,13.6,0,1.68,.2,3.64-2.28,3.54-2.18-.09-1.92-1.93-1.92-3.43,0-8.76,0-17.52,.03-26.29,0-2.18,.29-4.39-3.04-4.18-1.21,.08-2.01-.62-1.91-1.96,.08-1.08,.8-1.64,1.82-1.6,3.18,.13,3.2-1.93,3.14-4.22-.08-3.02-.02-6.04-.06-9.06-.02-1.53,.43-2.88,2.13-2.87,1.68,0,2.17,1.33,2.14,2.88-.04,2.27,0,4.53-.05,6.8-.08,3.5-.76,7.37,4.97,6.51,.97-.15,1.63,.66,1.64,1.75,.02,1.42-.96,1.95-2.08,1.79-4.61-.69-4.73,2.07-4.56,5.43,.18,3.77,.04,7.55,.04,11.33h.01Z"></path><path class="cls-48" d="M635.24,327.52c-4.29-.1-8.29,.45-10.77,4.58-2.45,3.38-2.13,7.4-2.38,11.21-.28,4.2-.15,8.44-.03,12.65,.07,2.35-.91,3.26-3.19,3.27-2.27,.01-3.23-.89-3.22-3.24,.07-10.09,.03-20.19,.03-30.28,0-1.51-.2-3.17,1.9-3.49,1.74-.27,3.4-.11,4.07,1.9,.91,2.75,2.01,2.66,3.57,.43,1.14-1.62,2.56-2.97,4.73-3.16,2.08-.18,4.54-1.07,6.01,.67,1.37,1.61,.02,3.68-.72,5.45Z"></path><path class="cls-57" d="M274.27,326.6c-4.62,7.02-3.71,14.96-3.76,22.73-.02,2.57,0,5.13,.02,7.7,.02,1.61-.06,3.21-2.22,3.12-2.11-.09-2.11-1.74-2.11-3.31,.01-10.26,0-20.53,.02-30.79,0-1.32-.39-2.89,1.44-3.36,1.89-.49,2.78,.42,3.01,2.3,.09,.77,.95,.5,1.5,.6,1.14-.57,1.6,.24,2.1,1.01Z"></path><path class="cls-18" d="M436.34,324.67c3.18,1.92,4.24,5.09,4.33,8.44,.21,8.01,.14,16.03,.16,24.04,0,1.35,.17,2.96-1.85,2.95-2.27,0-2.04-1.8-2.04-3.29-.01-6.81,.09-13.61-.02-20.42-.07-4.34-.73-8.53-5.39-10.61-1.58-1.07-3.55-.34-5.19-1.13-.83-.44-1.9-.78-.94-2.04,1.88-.69,3.79-.73,5.72-.27,1.72,.81,3.5,1.51,5.22,2.32Z"></path><path class="cls-43" d="M396.04,341.12c0-5.13,0-10.26,0-15.39,0-1.37-.15-2.91,1.85-2.93,1.92-.03,2.03,1.39,2.03,2.83,0,10.41,0,20.82,0,31.23,0,1.52,.14,3.28-2.14,3.16-1.99-.1-1.74-1.72-1.74-3.06-.01-5.28,0-10.56,0-15.84Z"></path><path class="cls-40" d="M457.6,357.6c-2.16-1.15-3.3-3.15-4.37-5.21-2.54-7.16-2.8-14.32,.03-21.47,1.03-2.74,2.75-4.88,5.42-6.19,1.89-1.28,4.09-1.61,6.26-2.04,.4,.25,.64,.6,.74,1.06,.08,.94-.28,1.74-.79,2.49-5.18,2.88-8.35,7.25-9.64,13.01-.97,1.55-1.04,3.19-.51,4.9,.13,.37,.22,.74,.3,1.12,.26,1.71,.39,3.46,1.34,4.99,.2,.33,.39,.67,.57,1.01,.81,1.59,2.06,2.75,3.62,3.59,.36,.19,.7,.4,1.04,.62,2.57,1.61,5.65,1.45,8.42,2.39,.81,.48,1.74,.85,1.66,2.04-5.16,2.02-9.59-.4-14.1-2.3Z"></path><path class="cls-30" d="M635.24,327.52c-1.01-1.71,2.24-4.52-.81-5.31-2.98-.77-6.32-.69-8.61,2.4-1.65,2.23-3.6,5.42-4.82-.38-.32-1.52-1.84-1.27-3.04-1.23-1.69,.06-1.82,1.27-1.82,2.55,0,9.96,.03,19.92-.02,29.88-.01,2.07,.68,3.01,2.89,2.98,2.5-.04,2.43-1.61,2.49-3.36,.25-6.6-.73-13.26,.9-19.82,.34-1.37,.45-2.69,2.07-3.13-2.52,7.63-1.66,15.52-1.65,23.32,0,3.13-.6,4.69-4.21,4.72-3.71,.03-3.72-1.96-3.7-4.61,.07-9.67-.03-19.34,.07-29.01,.02-1.86-1.17-4.7,2.17-5,2.74-.25,6.27-1.22,5.57,5.04,2.71-4.01,5.24-5.8,8.49-6.26,1.89-.27,4.43-1.06,5.45,.88,1.07,2.05,1.03,4.66-1.42,6.32Z"></path><path class="cls-39" d="M170.53,327.65c-.3,.55-.6,1.1-.89,1.65-1.9,3.03-2.22,6.42-2.31,9.88-.19,6.73,.43,13.47-.34,20.19l.03-.03c-2.6,.96-3.7-.19-3.72-2.7-.06-10.06-.07-20.11,0-30.17,0-1.23,.16-2.52,1.57-2.93,1.39-.4,2.19,.29,2.63,1.68,.42,1.33,1.77,.77,2.72,1.02,.55,.37,.66,.84,.31,1.41Z"></path><path class="cls-15" d="M184.03,328.45c-1.23-.84-2.46-1.68-3.69-2.52-.23-.42-.32-.86-.28-1.33,.35-1.03,1.08-1.42,2.13-1.24,2.43-.23,3.42,1.8,4.87,3.1l-.1,.04c2.24,1.62,2.55-.83,3.6-1.7h.01c1.01-.98,2.46-1.19,3.53-2.05,.38-.16,.76-.16,1.15-.02,.74,.46,1.15,1.09,.98,2-.52,.66-1.57,.26-2.05,1-.89,.59-1.77,1.17-2.66,1.76-3.06,4.33-2.89,9.44-3.21,14.35-.29,4.52-.08,9.07-.05,13.61,.01,1.54,.98,4.02-1.4,3.96-2.31-.06-1.24-2.66-1.26-4.11-.12-6.95-.09-13.91-.03-20.87,.02-2.16-.28-4.18-1.54-5.99Z"></path><path class="cls-37" d="M418.8,330.22c-2.12,6.26-1.73,12.75-1.74,19.2,0,2.26,.04,4.52,0,6.78-.04,1.71,.57,4.03-2.28,3.95-2.56-.07-1.94-2.25-1.95-3.78-.04-8.44-.08-16.88,.03-25.31,.03-2.35-.69-4.78,.49-7.06,2.94,2.38,2.36,5.77,2.13,8.79-.53,6.9-.16,13.8-.33,19.3,.03-4.12-.31-9.66,.15-15.15,.21-2.46-.65-6.05,3.49-6.71Z"></path><path class="cls-16" d="M330.68,346.56l.17,.26-.14,.27c.5,1.67,.52,3.51,1.75,4.92,.28,.33,.57,.65,.85,.98,.69,1.08,1.58,1.97,2.67,2.65,.3,.23,.6,.45,.9,.68,1.79,1.02,4.13,.51,5.72,2.07,0,1.22-.84,1.52-1.83,1.64-1.76-.34-3.64-.23-5.24-1.23-2.35-1.59-4.07-3.81-6.02-5.82l.04,.07c-1-1.99-1.08-4.3-2.13-6.28-1.07-5.79-.63-11.4,2.11-16.71v.09c1.18-1.34,2.44-2.62,3.68-3.92,.96-2.41,3.29-2.88,5.33-3.76,.62-.17,1.24-.17,1.86,.05,.8,.41,1.34,1,1.38,1.95-.29,.88-1.05,1.25-1.79,1.65-.38,.19-.77,.33-1.17,.45-4.02,1.14-6.13,4.1-7.42,7.82-.32,.91-.49,1.83-.19,2.79,.15,.36,.27,.73,.39,1.1,.22,.78,.47,1.56-.11,2.3-2.22,1.73-2.18,3.77-.79,5.98Z"></path><path class="cls-22" d="M196,324.58c-.3-.47-.61-.94-.91-1.41,2.95-2.11,5.66-.89,8.34,.6,.69-.01,1.44-.15,1.75,.74,2.87,2.78,3.98,6.21,4,10.15,.04,7.37-.24,14.74,.15,22.1,.06,1.23,.04,2.78-1.5,2.79-1.71,0-1.35-1.67-1.36-2.81-.03-6.47,.02-12.94-.04-19.4-.01-1.46,.45-3.01-.48-4.39-.22-.2-.24-.43-.07-.67-.56-1.59-.12-3.58-1.9-4.68l.02,.13c-1.95-2.88-5.41-1.91-8.01-3.14Z"></path><path class="cls-59" d="M170.52,326.57c-1.16-.32-2.54,1.74-3.5-.27-.42-.87-.12-2.44-1.65-2.16-1.63,.3-1.17,1.87-1.17,2.98-.03,9.59,.02,19.18-.05,28.77-.02,2.12,.4,3.56,2.87,3.46-2.64,1.62-4.29,1.1-4.31-2.19-.05-10.53-.01-21.06-.01-31.59,0-1.27,.12-2.46,1.64-2.81,1.4-.32,2.81-.42,3.22,1.41,.64,2.83,1.9,.61,2.91,.41,.56,.65,.56,1.31,.06,1.99Z"></path><path class="cls-19" d="M418.8,330.22c-3,2.4-2.53,5.95-2.7,9.1-.3,5.58-.06,11.19-.13,16.78-.01,1,.63,2.83-1.33,2.57-1.36-.18-.74-1.57-.72-2.62,.16-9.37,.25-18.73,.25-28.1,0-1.32-.54-2.64-.83-3.97,.09-.28,.28-.43,.58-.44,1.13-.46,2.28-.28,2.24,1.02-.08,2.32,1.57,1.98,2.89,2.28,.4,.16,.71,.43,.94,.79-.4,.86-.8,1.72-1.19,2.58Z"></path><path class="cls-13" d="M697.96,360.2c4.01-.25,8.13,.91,12.02-.9,1.51-.7,2.86-1.59,4-2.86,1.43-1.61,3.01-2.94,3.13,.79,.08,2.35,1.77,2.03,3.23,2.02,1.46-.01,3.66,.26,3.63-1.71-.19-11.81,1.16-23.65-.67-35.42,.58-.59,1.16-.6,1.76-.03,.1,11.59,.29,23.18,.26,34.76,0,3.42-6.19,5.33-9.15,2.5-1.66-1.59-2.19-.87-3.5-.15-4.72,2.55-9.54,4.61-14.71,1.01Z"></path><path class="cls-33" d="M184.03,328.45c2.14,1.36,1.99,3.53,2,5.63,.01,6.78-.03,13.55,.04,20.33,.01,1.41-.53,2.97,.81,4.5,1.49-1.36,.86-3.06,.94-4.53,.39-7.19-.88-14.46,.91-21.57,.49-1.93,.42-4.32,2.8-5.32-2.73,6.59-2.38,13.53-2.4,20.44,0,2.56,.09,5.13-.01,7.69-.07,1.75,1.09,4.58-2.03,4.49-3.08-.08-1.8-2.96-1.86-4.65-.16-4.52-.12-9.05-.04-13.57,.08-4.53,0-9.02-1.15-13.44Z"></path><path class="cls-59" d="M205.96,332.94c1.72,1.61,.9,3.69,.93,5.55,.1,6.71,.04,13.42,.94,20.08-.47-11.37,4-23.1-2.65-34.06,4.01,1.97,4.51,5.87,4.66,9.54,.33,7.66,.19,15.34,.25,23.01,.01,1.62-.2,3.14-2.32,3.09-2.29-.06-1.98-1.84-1.98-3.3,.03-7.97,.1-15.94,.16-23.9Z"></path><path class="cls-42" d="M482.53,259.5c-1.56,2.62-4.82,3.06-6.72,5.25-1.12,.35-2.24,.7-3.35,1.05-1.75-1.08-3.63-2.09-2.65-4.7,.78,2.59,2.05,2.64,4.16,1.13,6.65-4.74,11.76-10.92,16.68-17.3,1.44,1.74,.26,3.11-.69,4.45-2.28,3.22-4.71,6.33-7.79,8.81-1.34,1.08,.29,.87,.36,1.3Z"></path><path class="cls-58" d="M482.54,323.11c3.26-.96,3.85,.68,3.81,3.53-.2,14.47-.27,28.94-.39,43.41,0,0,0,0,0,0-.52,.34-.95,.25-1.3-.26-1.59-5.17-.66-10.48-.7-15.72-.07-8.64-.48-17.3,.27-24.8-.98,.84-2.25,1.76-3.95-.6-.05-.55,.14-1,.57-1.34,3.21-.34,.82-2.92,1.68-4.2Z"></path><path class="cls-6" d="M416.95,130.55c1.82,7.88,4.3,15.58,5.76,23.56,.83,4.53,2.41,8.93,3.72,13.37,.39,1.32,.77,2.6,.44,3.98-.44,.19-.84,.14-1.22-.14-2.03-2.54-1.79-5.87-3.05-8.7-.66-1.48-.96-3.1-2.4-4.11-.48-.48-.9-.99-.53-1.73,2.01-1.2,2.1-2.8,1.53-4.97-1.85-7.05-3.45-14.17-5.14-21.27,.31-.41,.61-.41,.9,.01Z"></path><path class="cls-46" d="M330.68,346.56c-2.47-2.47-2.97-4.7,.79-6.4,1.47-1.43,3.35-1.15,5.12-1.17,5.87-.04,11.74,.02,17.61-.03,4.74-.04,4.73-.07,4.23-4.9-.09-.89-.36-1.77-.28-2.68,.08-.52,.31-.95,.7-1.3,.84,.48,1.24,1.25,1.54,2.14,2.87,8.38,2.28,9.21-6.52,9.21-6.04,0-12.1,.27-18.11-.09-4.22-.26-5.85,1.11-5.08,5.24Z"></path><path class="cls-20" d="M456.68,378.45c-2.09-.78-2.46-2.87-3.44-4.5,.41-2.7,1.9-1.82,3.25-.9,.95,.64,1.15,2.03,2.28,2.56h.01c3.17,3.81,7.55,3.11,11.75,3.19,1.82,.04,3.61-.27,5.43-.28,.52,.15,.93,.45,1.22,.9-4.88,4.19-10.28,2.75-15.62,1.31-1.72-.46-3.18-1.69-4.89-2.29Z"></path><path class="cls-52" d="M476.11,294.79c1.78-2.45-.93-4.75-.23-7.17-.26-.54-.14-.95,.38-1.25,1.84,3.83,2.28,8.06,3.45,12.08,.56,1.17,1.12,2.38,1.29,3.65,.2,1.52-.26,2.65-2.18,1.77-1.25-3.01-2.49-6.02-3.74-9.03,.32-.41,.66-.43,1.02-.06Z"></path><path class="cls-45" d="M401.46,309.2c-.59,1.88-1.54,3.4-3.79,3.1-2.02-.27-3.41-1.53-3.16-3.65,.21-1.81,1.53-2.95,3.46-2.9,2.17,.06,3.17,1.42,3.48,3.44Z"></path><path class="cls-58" d="M456.68,378.45c4.87,1.73,9.73,3.33,15.06,2.66,1.95-.25,3.85-.28,5.26-1.87,.79-1.19,1.86-1.66,3.26-1.27,.15,.15,.3,.3,.45,.45-6.11,5.96-17.33,6.11-24.04,.04Z"></path><path class="cls-49" d="M170.52,326.57c-.02-.66-.04-1.32-.06-1.99,.4-1.26,1.41-1.64,2.59-1.77,3.14-1.42,6.29-1.5,9.44-.01h.01c.22,.3,.24,.62,.04,.94-.81,.12-1.6,.26-2.03,1.09-1.99,1.09-4.37-.39-6.32,.94-1.29,.49-2.07,1.96-3.65,1.89,0-.36-.01-.72-.02-1.08Z"></path><path class="cls-59" d="M166.98,359.38c.19-8.94-.98-17.91,.71-26.82,.26-1.38,.47-2.66,1.95-3.26-2.6,8.01-1.72,16.29-1.94,24.48-.05,1.86,.78,3.89-.72,5.59Z"></path><path class="cls-55" d="M457.6,357.6c2.96,.82,5.89,1.8,8.9,2.38,1.65,.32,3.55,.7,5.07-.69,2.41-1.78,5.22-2.8,7.87-4.13,.45,.03,.84,.19,1.18,.48-5.39,6.71-15.29,7.56-23.01,1.97Z"></path><path class="cls-16" d="M359.65,351.1c.51,.96-.57,1.2-.83,1.81-1.53,2.13-3.45,3.88-5.46,5.55l.08,.02c-2,.9-4.11,1.4-6.28,1.62-1-.05-1.9-.26-2.23-1.38,1.55-2.38,4.84-1.09,6.57-3.1,.12-.22,.29-.27,.52-.15,1.98-.49,3.16-1.83,3.87-3.65l-.04,.08c1.11-1.01,2.22-2.06,3.81-.8Z"></path><path class="cls-58" d="M465.21,323.06c-2.17,.55-4.35,1.11-6.52,1.66,5.63-4.3,13.68-4.37,19.39-.16-.17,.18-.35,.36-.52,.55-4.22-.05-8.36-.58-12.35-2.05Z"></path><path class="cls-46" d="M329.52,330.06c-1.82,5.7-2.04,11.53-1.51,17.43,.28,.49,.18,.87-.32,1.15-2.54-6.5-2.18-12.72,1.82-18.58Z"></path><path class="cls-51" d="M358.85,330.07c-.06,.34-.11,.69-.17,1.03-2.29-.03-2.98-2.17-4.34-3.39-1.97-1.75-3.94-3.15-6.75-2.3-2.04-.29-4.16,.09-6.12-.77-.31-.59-.62-1.17-.93-1.76,.19-.16,.38-.32,.57-.48,2.21-.62,4.45-.29,6.68-.27,.95,.28,1.96,.28,2.87,.71,3.7,1.31,6.67,3.44,8.18,7.22Z"></path><path class="cls-51" d="M453.27,330.92c-1.62,7.15-1.48,14.31-.03,21.47-3.75-7.16-3.77-14.32,.03-21.47Z"></path><path class="cls-12" d="M725.06,322.08c-.59,.01-1.17,.02-1.76,.03-2.51,.45-6.31-1.8-6.56,3.43-.05,1.02-1.8,.34-2.52-.46-1.23-1.37-2.69-2.36-4.35-3.11-.33-.13-.45-.29-.38-.48,.08-.2,.17-.31,.26-.31,2.67,.59,4.98,2.47,8.16,.18,1.47-1.06,4.91-1.2,7.14,.71Z"></path><path class="cls-10" d="M709.76,321.19c.04,.26,.08,.52,.11,.79-6.08-.77-11.99-.38-17.47,2.71,4.95-5.29,10.93-5.51,17.36-3.5Z"></path><path class="cls-59" d="M480.62,355.63c-.31-.02-.62-.04-.93-.06-.25-.5-.21-.98,.11-1.43,3.71-1.87,4.34-1.59,4.84,2.18-.67,2.39-.26,4.84-.38,7.26-.35,2.8,.98,5.93-1.57,8.32-.47,.29-.91,.27-1.34-.08,1.52-4.76,1.07-9.67,1.16-14.54,.03-1.31,.02-2.56-1.89-1.64Z"></path><path class="cls-24" d="M562.51,324.75c-5-3.75-10.73-3.07-16.41-2.7,6.53-3.41,12.45-2.44,16.41,2.7Z"></path><path class="cls-50" d="M346.98,359.29c2.15-.27,4.3-.54,6.46-.81-5.53,3.84-13.43,3.78-19.13-.16,.19-.36,.46-.42,.8-.2,1.77,.61,3.48,1.46,5.44,1.18,2.15,.27,4.29,.27,6.44,0Z"></path><path class="cls-49" d="M404.41,168.97c-.36-.42-.72-.84-1.09-1.26-.53-1.67,1.11-1.87,1.83-2.69,1.56-1.19,3.13-2.38,4.69-3.56,.76-.69,1.62-.63,2.51-.35,.32,.33,.5,.72,.54,1.18-1.92,3.37-4.89,5.43-8.49,6.69Z"></path><path class="cls-49" d="M476.11,294.79c-.34,.02-.68,.04-1.02,.06-2.24-4.79-5.03-9.33-6.44-14.49,4.12,3.97,5.01,9.6,7.46,14.43Z"></path><path class="cls-58" d="M476.06,379.23c-3.58,0-7.17,.1-10.75-.01-2.72-.08-5.31-.65-6.52-3.58,5.46,3.5,11.3,3.38,17.28,1.74,.29,.25,.45,.56,.51,.94-.04,.38-.22,.68-.52,.92Z"></path><path class="cls-49" d="M402.54,167.88c-3.8,3.46-6.52,8.02-11.03,10.77,2.47-4.41,5.89-7.95,9.96-10.91,.42-.43,.78-.38,1.07,.14Z"></path><path class="cls-1" d="M435.07,270.43c.47,.8,1.03,1.67-.57,1.74-1.62,.07-3.25,.04-4.87,.05-2.15-.51-4.38-.71-6.34-1.87,2.16-.22,4.31-.25,6.42,.43,1.78,.57,.9-.71,.9-1.37,1.81-1.07,3.22-.4,4.46,1.02Z"></path><path class="cls-26" d="M274.27,326.6c-.7-.34-1.4-.67-2.1-1.01,.11-.27,.21-.54,.32-.82,3.06-2.17,6.28-3.44,10.04-1.89,.79,.67,.61,1.3-.09,1.91-2.32,1.19-5.04-.51-7.31,1.02-.29,.26-.57,.52-.86,.78Z"></path><path class="cls-28" d="M418.69,327.45c-2.04,.5-4.06,.88-3.24-2.38,.38-1.54-1.01-1.03-1.51-1.53,1.15-1.89,2.44-1.92,3.55-.11,.44,.71-.69,2.31,1.23,2.18,.53,.62,.62,1.24-.03,1.84Z"></path><path class="cls-50" d="M351.5,355.63c-1.29,2.74-4.31,1.64-6.3,2.82-.95,.71-1.9,.7-2.84-.02-1.78-.82-4.03-.42-5.47-2.11,4.92,.7,9.84,1.48,14.62-.69Z"></path><path class="cls-38" d="M418.69,327.45l.03-1.84c.29-.3,.59-.6,.88-.89,1.1-.88,2.6-.97,3.68-1.89l-.04,.02c.7-.35,1.37-.45,1.94,.23,.62,.28,1.23,.55,1.85,.83,.2,2.25-2.27,.6-2.74,1.87l.04-.02c-1.3,.47-2.72,.7-3.71,1.8l-.3,.15-.32-.08c-.44-.06-.87-.12-1.31-.19Z"></path><path class="cls-8" d="M413.15,120.58c-.72-3.04-2.81-5.87-1.37-9.82,1.11,1.68,2.4,2.65,2.4,4.42-1.1,1.48,.66,3.09-.19,4.59-.18,.38-.46,.65-.84,.82Z"></path><path class="cls-34" d="M203.44,323.77c-2.77-.42-5.5-1.2-8.34-.6,0,0-.43-.04-.43-.04l-.43,.03c-.39,.22-.72,.13-.99-.21,3.56-1.75,7.09-3.13,10.19,.82Z"></path><path class="cls-11" d="M248.8,323.11c1.47-.83,2.92-2.2,4.48-.15-1.95,1.29-1.35,3.63-2.21,5.39-.51,.78-1.19,1.25-2.16,1.21-1.1-.67-1.52-1.6-1.16-2.86,1.56-.84,.95-2.32,1.05-3.59Z"></path><path class="cls-1" d="M425.18,323.08c-.65-.08-1.3-.15-1.94-.23,3.43-2,6.86-2.21,10.29,0-.6,.65-1.27,.6-1.98,.2-2.12,.01-4.25,.02-6.37,.03Z"></path><path class="cls-9" d="M228.68,322.92c4.58-2.76,9.19-2.58,13.8-.09-.65,.89-1.58,.94-2.55,.88-2.67-.59-5.35-.72-8.05-.09-.45,.12-.91,.16-1.38,.16-.72-.05-1.36-.27-1.83-.86Z"></path><path class="cls-7" d="M350.67,322.85c-.9,0-1.8,0-2.7,.01-2.48-.62-4.96-.58-7.44-.03,0,0,.02,.05,.02,.05-.58,.06-1.17,.12-1.75,.17-.39,.28-.76,.25-1.12-.06-.22-1.71,1.46-1.16,2.15-1.79,3.63,.44,7.59-1.27,10.85,1.64Z"></path><path class="cls-44" d="M416.95,130.55c-.3,0-.6-.01-.9-.01-.97-3.32-1.94-6.64-2.91-9.96,.15,.08,.31,.07,.46,0,.37-.5,.88-.66,1.48-.62,.37,.11,.68,.31,.93,.6,.1,.54,.21,1.09,.31,1.63-2.42,2.98,1.31,5.51,.62,8.36Z"></path><path class="cls-64" d="M282.53,322.9c-3.53-.33-6.83,.56-10.04,1.89,2.92-2.92,6.03-4.77,10.04-1.89Z"></path><path class="cls-63" d="M306.93,333.91c2.37-2.83,4.39-6.06,8.16-7.33-2.29,2.92-4.68,5.73-8.16,7.33Z"></path><path class="cls-58" d="M458.77,375.62c-2.15,.47-2.55-4.87-5.53-1.66-.64-.98-.9-2.02,.24-2.73,.8-.5,1.89-.41,2.5,.33,1.04,1.26,1.87,2.7,2.79,4.06Z"></path><path class="cls-63" d="M310.43,327.08c-1.67,3.08-3.64,5.85-7.37,6.67,2.21-2.49,4.53-4.87,7.37-6.67Z"></path><path class="cls-34" d="M196,324.58c2.95,.34,6.42-.66,8.01,3.14-2.96-2.24-6.39-2.12-9.83-1.98,.27-.92,1.09-.97,1.82-1.16Z"></path><path class="cls-59" d="M476.1,378.36l-.03-.98c2.17-1.46,4.06-3.19,5.28-5.56,0,0,.36,.26,.36,.26,.46,4.09-.59,5.26-5.6,6.28Z"></path><path class="cls-59" d="M484.27,374.69c-1.16,1.27-1.75,3.07-3.55,3.72l-.29-.33c.98-2.81,1.36-6.01,4.83-7.14,.86,1.56-.37,2.57-.99,3.74Z"></path><path class="cls-46" d="M412.51,162.5c-.03-.39-.06-.79-.09-1.18-.51-1.01,.45-1.24,.92-1.73l1.56-1.08c1.14-.25,2.33-.8,3.19,.56-.87,2.75-2.99,3.47-5.58,3.42Z"></path><path class="cls-53" d="M182.48,322.8c-3.15-.51-6.29-.37-9.44,.01,3.14-2.12,6.29-2.26,9.44-.01Z"></path><path class="cls-59" d="M353.36,358.46c1.33-2.33,3.25-4.08,5.46-5.55-.77,2.88-2.79,4.53-5.46,5.55Z"></path><path class="cls-39" d="M335.1,358.12c-.27,.07-.53,.14-.8,.2-2.2-1.24-3.98-2.85-4.8-5.33,2.42,1.11,3.89,3.25,5.6,5.13Z"></path><path class="cls-49" d="M476.26,286.37c-.13,.42-.25,.83-.38,1.25-1.51-2.63-2.02-5.43-1.52-8.42,.92,2.31,1.95,4.6,1.9,7.17Z"></path><path class="cls-60" d="M417.85,159.43c-.77-.98-1.98-.58-2.95-.91,1.54-.73,2.87-2.01,4.78-1.73,.31,.33,.62,.65,.92,.98-.03,2.01-1.14,2.25-2.75,1.67Z"></path><path class="cls-50" d="M337.73,322.81c.35,.08,.7,.17,1.05,.25-1.52,1.66-4.23,1.51-5.47,3.59-.37,.33-.71,.3-1.01-.1,.4-.69,.8-1.38,1.2-2.07,1.03-1.5,2.46-2.02,4.23-1.67Z"></path><path class="cls-63" d="M316.95,324.82c-.74-1.17-2-.87-3.08-1.08,.78-1.09,2.02-1.13,3.17-1.34,.79-.15,1.64,.13,1.68,.99,.05,1.03-.71,1.53-1.76,1.44Z"></path><path class="cls-1" d="M424.29,325.78c.42-1.34,2.1-.84,2.74-1.87,1.27,1.16,3.46,.13,4.49,1.88-2.41,0-4.82,0-7.22,0Z"></path><path class="cls-39" d="M221.13,329.21c.5-.84,1.01-1.68,1.51-2.53,1.1-.67,2.21-1.35,3.31-2.02,.09,.21,.18,.42,.28,.64-1.04,2.16-1.47,5.12-5.1,3.91Z"></path><path class="cls-27" d="M247.75,326.7c.37,.85,.74,1.69,1.1,2.54-.45,.54-1.01,.6-1.64,.4-1.38-1.02-1.82-2.59-2.4-4.08-.03-.42,.12-.76,.48-1,1.27,.19,1.86,1.18,2.45,2.14Z"></path><path class="cls-2" d="M275.13,325.83c2.19-2.14,4.86-.81,7.31-1.02-2.19,2.11-4.9,.52-7.31,1.02Z"></path><path class="cls-53" d="M182.53,323.73c-.01-.31-.02-.63-.04-.94,2.45,.08,3.77,1.55,4.56,3.67-1.87-.32-2.55-2.58-4.52-2.73Z"></path><path class="cls-63" d="M301.72,341.04c-1.35-2.59-1.13-2.99,2.47-4.46-.39,1.72-3.02,2.22-2.47,4.46Z"></path><path class="cls-62" d="M415.15,120.56c-.52,0-1.03,.01-1.55,.02-.05-1.83-1.11-3.76,.57-5.4,.07,.48,.15,.96,.22,1.43,.09,1.35,1.89,2.37,.76,3.95Z"></path><path class="cls-39" d="M327.7,348.64c.1-.38,.21-.77,.31-1.15,1.03,1.71,1.78,3.5,1.53,5.57-1.4-1.14-1.97-2.64-1.85-4.42Z"></path><path class="cls-33" d="M190.55,324.81c-.09,1.67-.98,2.84-2.54,3.22-.98,.24-1.03-.77-1.07-1.52,1.78,.67,2.3-1.36,3.6-1.7Z"></path><path class="cls-59" d="M359.65,351.1c-1.27,.27-2.54,.53-3.81,.8,.83-2.38,1.91-3.52,3.81-.8Z"></path><path class="cls-27" d="M239.71,322.85c.93,0,1.85-.02,2.78-.03,1.13,.25,2.18,.65,2.81,1.72-.11,.13-.22,.26-.33,.39-2.15,.72-4,.35-5.48-1.44,.08-.21,.15-.43,.23-.64Z"></path><path class="cls-59" d="M355.88,351.82c-.02,2.55-1.36,3.72-3.87,3.65,1.29-1.22,2.58-2.44,3.87-3.65Z"></path><path class="cls-39" d="M332.46,352.01c-2.3-1.03-1.92-3.01-1.75-4.92,.67,1.61,2.02,2.98,1.75,4.92Z"></path><path class="cls-53" d="M174.18,325.76c1.86-2,4.19-.77,6.32-.94-.06,.37-.11,.74-.17,1.11-2.05-.06-4.1-.12-6.16-.18Z"></path><path class="cls-54" d="M332.31,326.55c.34,.03,.67,.07,1.01,.1-.98,1.47-2.05,2.85-3.79,3.5,.32-1.67,1.44-2.73,2.78-3.61Z"></path><path class="cls-27" d="M228.68,322.92c.62,.04,1.23,.08,1.85,.12-.7,2.54-2.43,2.61-4.5,1.87,0,0-.08-.24-.08-.24,.58-1.1,1.62-1.48,2.73-1.75Z"></path><path class="cls-59" d="M203.99,327.59c2.51,.8,2.06,2.8,1.9,4.68-.63-1.56-1.27-3.12-1.9-4.68Z"></path><path class="cls-38" d="M431.55,323.05c.66-.07,1.32-.13,1.98-.2,1.29,.06,2.25,.64,2.81,1.82-1.75-.1-3.38-.54-4.79-1.62Z"></path><path class="cls-46" d="M402.54,167.88c-.36-.05-.71-.1-1.07-.14,.89-1.35,1.92-2.53,3.68-2.72-.61,.9-1.22,1.8-1.83,2.69-.27,.04-.53,.09-.78,.17Z"></path><path class="cls-39" d="M335.98,355.64c-1.68-.09-2.58-.97-2.67-2.65,1.23,.54,2.3,1.24,2.67,2.65Z"></path><path class="cls-35" d="M415.15,120.56c-.25-1.31-.5-2.63-.76-3.94,1.07,1.1,2,2.26,1.62,3.95-.29,0-.57,0-.86,0Z"></path><path class="cls-33" d="M193.24,322.95c.33,.07,.66,.14,.99,.21-1.09,.85-2.23,1.58-3.67,1.64,.49-1.2,1.37-1.82,2.67-1.84Z"></path><path class="cls-60" d="M413.34,159.6c-.31,.58-.61,1.15-.92,1.73-.86,.04-1.72,.09-2.57,.13,.93-1.06,2.01-1.83,3.49-1.86Z"></path><path class="cls-58" d="M478.08,324.57c1.41,.42,2.33,1.34,2.78,2.74-.13,.1-.25,.21-.38,.31-1.8,.02-2.7-.87-2.71-2.67,.1-.13,.2-.25,.31-.37Z"></path><path class="cls-1" d="M423.28,322.83c-.86,1.33-2.1,1.95-3.68,1.89,.98-1.11,2.01-2.12,3.68-1.89Z"></path><path class="cls-1" d="M420.62,327.56c.69-1.74,2.05-2.08,3.71-1.8-1.16,.76-2.2,1.77-3.71,1.8Z"></path><path class="cls-61" d="M482.53,259.5c-.72,.05-1.44,.09-2.56,.17,3.12-3.73,6.06-7.29,9.04-10.81,.98-1.15,2.01-2.24,1.64-3.93,9.33-16.26,11.64-33.36,5.74-51.26-2.73-8.27-7.84-15.17-13.79-21.47-1.02-1.08-1.96-2.25-2.94-3.37-3.75-4.62-9-7.22-13.92-10.26-.96-.6-2.72-.74-2.29-2.23,.51-1.73,2.02-.41,3.06-.34,1.18,.08,2.35,.38,3.49,.75,14.89,5.09,24.84,15.57,31.66,29.28,11.03,22.16,4.97,52.47-13.64,68.92-2.15,1.14-3.7,3-5.52,4.55h.02Z"></path><path class="cls-21" d="M470,156.75c-1.98,.44-3.95-.15-6.02-.14,4.82,2.18,8.69,5.65,13.02,8.41,1.42,.91,2.78,1.84,2.65,3.81-4.96-3.23-9.33-7.33-14.77-9.88-2.56-1.2-5.04-2.57-7.88-3.04-.89-2.03,.42-2.14,1.88-2.22,2.25-.13,4.24,.96,6.38,1.29,1.77,.07,3.37,.62,4.73,1.77Z"></path><path class="cls-5" d="M465.27,154.98c-1.54,.39-2.92-.19-4.38-.54-1.48-.36-3.4-1.11-3.88,1.47-.91-.3-1.83-.61-2.74-.91-1.57-1.37-4.38-.24-5.44-2.66,3.74-.95,7.24,1.45,10.96,.74,1.89,.46,3.95,.41,5.49,1.9Z"></path><path class="cls-29" d="M448.82,152.34c1.52,1.48,4.16,.68,5.44,2.66-2.98-.28-5.94-.65-8.35-2.68,.97,0,1.94,.01,2.91,.02Z"></path><path class="cls-36" d="M464.26,237.64c.28,1.82,.56,3.64,.84,5.46-2.64-1.64-1.68-4.2-1.66-6.52,.26,.05,.51,.14,.74,.27-.08,.27-.06,.54,.07,.79Z"></path><path class="cls-31" d="M676.16,325.96c-6.6-7.23-15.6-7.48-25.25-.24,.62-4.85-2.58-4.11-5.24-3.99-3.52,.17-2.32,2.95-2.33,4.8-.07,16.78,.02,33.57-.09,50.36-.02,2.8,.52,4.19,3.7,4.11,2.9-.08,3.97-.97,3.88-4-.22-6.93-.07-13.86-.07-21.48,9.62,7.39,18.69,7.25,25.21,.11,6.96-7.62,7.05-22.16,.2-29.66Zm-13.76,28.01c-6.96,0-11.72-5.65-11.67-13.82,.05-7.89,4.5-12.72,11.61-12.63,7.02,.1,11.71,5.53,11.57,13.39-.14,7.65-4.91,13.06-11.51,13.06Z"></path><path class="cls-56" d="M439.82,203.22c-.17,1.94-2.4,3.07-2.09,5.21-.46,1.1-1.02,1.86-2.07,.51-.93-1.21-1.05-2.63-.93-4.09,0-.48,.23-.81,.67-.99,2.2,4.81,2.77-1.68,4.42-.64Z"></path><path class="cls-56" d="M434.35,203.95c.17-2.16-1.66-3.98-1.08-6.22,2.32,1.49,1.67,4,2.13,6.13-.15,.13-.31,.27-.46,.4l-.41,.06-.18-.37Z"></path><path class="cls-32" d="M724.76,328.59c-.02-2.08,.54-4.24-.59-6.23-2.41-1.2-5.73-1.76-7.06,.02-2.01,2.71-3.04,1.65-4.8,.33-.81-.6-1.78-1.13-2.89-1.11-6.11-1.41-11.9-1.01-17.02,3.08-11.1,10.35-8.1,29.47,5.56,35.51,5.19,1.72,10.14,1.26,14.72-1.81,1.43-.95,2.4-2.1,3.95,.19,1.49,2.19,4.22,1.28,6.31,.86,2.36-.47,1.84-2.78,1.84-4.54,.02-8.77,.05-17.54-.02-26.31Zm-11.26,20.79c-2.78,4.22-6.91,5.32-11.49,4.28-4.5-1.03-7.06-4.24-8.14-8.74-2.45-10.16,3.08-18.08,12.26-17.35,3.66,.29,6.65,1.77,8.25,5.31,2.39,5.64,2.19,11.14-.88,16.49Z"></path><path class="cls-1" d="M419.77,264.73c3.61,1.56,7.23,3.12,10.84,4.67-4.41,.29-7.97-1.41-10.84-4.67Z"></path><path class="cls-49" d="M403.35,170.48c-.85,2.39-2.53,4.12-4.45,5.66,.31-2.81,2.11-4.45,4.45-5.66Z"></path><path class="cls-3" d="M586.8,320.78c-11.76,2.79-17.72,14.96-13.64,27.64,2.19,6.8,6.6,11.1,13.67,12.31,6.98,1.2,13.1-.39,18.07-5.88,2.72-3.01,1.78-4.32-1.38-5.89-2.45-1.22-3.14,.43-4.4,1.67-6.25,6.2-16.73,3.78-19.07-4.37-.77-2.67-.43-4.41,3.05-4.2,3.47,.21,6.96,.04,10.44,.05,3.78,0,7.57-.03,11.35,.01,1.86,.02,3.1-.3,3.32-2.63,1.14-11.73-9.9-21.45-21.42-18.72Zm11.1,16.34c-2.56-.08-5.13-.02-7.7-.02-2.72,0-5.43-.02-8.15,0-2.14,.02-2.59-1.01-1.96-2.89,1.25-3.74,5.38-6.57,9.85-6.71,4.98-.16,8.56,2,10.18,5.95,.97,2.36,.78,3.76-2.23,3.66Z"></path><path class="cls-61" d="M295,296.03v62.02c-.14,0-.29,0-.43,0v-62.2c.14,.06,.29,.12,.43,.19Z"></path><path class="cls-42" d="M482.51,259.51c1.01-2.51,2.85-4.03,5.52-4.55-1.38,2.07-3.19,3.63-5.52,4.55Z"></path><path class="cls-39" d="M226.03,324.91c1.5-.62,3-1.25,4.5-1.87,.26-.12,.53-.17,.82-.14,.37-.28,.76-.31,1.17-.09,.23,.38,.34,.78,.32,1.22-.2,.92-.86,1.46-1.6,1.93-.36,.22-.74,.41-1.13,.57-3.63,1.52-5.86,4.28-6.99,7.98-.14,.39-.33,.77-.52,1.13-1.33,3.99-1.71,7.94,.49,11.78,1.88,2.73,3.61,5.59,6.34,7.62,4.32,2.96,8.67,2.32,13.03,.13,1.35-.93,2.34-2.45,4.18-2.61,.66,.13,1.12,.53,1.45,1.11,.24,1.18-.61,1.88-1.18,2.71-.79,.7-1.59,1.39-2.38,2.09-2.25,1.16-4.75,1.47-7.16,2.09-2.28-.17-4.6,.49-6.83-.4-4.82-.8-8.04-3.62-10.06-7.95-.52-2.2-1.66-4.19-2.16-6.39,.13-4.42-.63-8.91,1.23-13.17-.08-1.44,.58-2.54,1.61-3.47,2.77-.15,3.24-2.9,4.9-4.3Z"></path><path class="cls-22" d="M247.82,353.81c-.33-.36-.66-.72-.99-1.07-.61-.93-.16-1.66,.43-2.37,3.96-5.79,3.94-11.6,.12-17.44-.84-.81-1.32-1.74-.98-2.95,.12-.18,.25-.37,.37-.55,.69-.06,1.38-.13,2.07-.19,.47-.29,.95-.59,1.42-.88,1.36-.79,.57-2.1,.75-3.16,.25-1.46,.81-2.18,2.33-1.32,.01,.6,.02,1.2,.03,1.79-1.31,7.61-.3,15.29-.51,22.93-.07,2.64-.66,5.39,.52,7.98,0,.6,0,1.2,0,1.8-2.01,2.06-3.4,2-3.14-1.21,.17-2.06-.67-2.91-2.42-3.34Z"></path><path class="cls-16" d="M253.38,356.56c-.86-.57-1-1.43-1-2.37,0-8.72,0-17.45,0-26.17,0-.93,.15-1.8,1-2.37,.43,10.3,.43,20.6,0,30.9Z"></path><path class="cls-45" d="M219.52,332.68c-.72,4.63-1.08,9.27-.65,13.95,.34,.58,.37,1.14-.11,1.66-1.6-5.3-1.73-10.52,.77-15.62Z"></path><path class="cls-45" d="M247.82,353.81c3.14-1.01,3.21,1.14,2.96,3.12-.37,2.99,1.22,1.9,2.6,1.43,.27,1.8-.88,2.02-2.18,1.79-1.48-.27-1.71-1.44-1.58-2.74,.37-3.76-1.49-1.52-2.71-1.01,.31-.87,.61-1.73,.92-2.6Z"></path><path class="cls-25" d="M230.53,360.19c2.43-.04,4.86-.08,7.29-.12,.96-.41,1.91-.56,2.81,.15-3.37,1.62-6.74,1.82-10.11-.03Z"></path><path class="cls-45" d="M240.63,360.21c-.94-.05-1.88-.1-2.81-.15,2.09-1.15,4.44-1.16,6.7-1.57-.98,1.27-2.34,1.72-3.88,1.72Z"></path><path class="cls-16" d="M253.35,323.86c-3.13,.06-.81,3.84-3.08,4.49,.96-1.82-1.43-5.5,3.01-5.39,.02,.3,.05,.6,.07,.9Z"></path><path class="cls-39" d="M218.76,348.29c.04-.55,.07-1.11,.11-1.66,1.15,1.69,1.74,3.54,1.59,5.6-1.23-1.03-1.46-2.49-1.7-3.94Z"></path><path class="cls-22" d="M479.29,330.39l-2.45-2.49c-1.96-2.29-4.74-2.68-7.47-3.1-1.43-.22-3,.29-4.2-.92,0-.27,.02-.54,.04-.81,4.36-.52,8.51,.37,12.56,1.88,.9,.89,1.8,1.78,2.71,2.67,.38,1.45,1.39,2.09,2.7,1.47,2.15-1.01,.35-3.23,2.09-4.71,0,15.32,0,30.64,0,45.96,.1,.27,.05,.52-.15,.73-1.56,2.34-3.13,4.69-4.69,7.03-1.14,.38-2.28,.77-3.43,1.15-.32,0-.63-.01-.95-.02,0-.29,.02-.58,.05-.87,2.66-1.38,5.38-2.72,5.6-6.28,2.27-2.39,1.53-5.41,1.73-8.23,1.08-2.34-.29-4.96,.8-7.3-.05-4.2-2.37-2.79-4.51-1.81-.32-.3-.47-.67-.41-1.11,.55-1.57,1.96-2.72,2.14-4.46l-.05,.05c1.09-1.59,1.58-3.35,1.6-5.27,.53-1.67,.48-3.33-.04-4.99,.06-3.41-1.07-6.31-3.67-8.58Z"></path><path class="cls-58" d="M465.17,323.87c4.38-.06,8.76-.16,11.68,4.02-3.89-2.43-8.18-2.57-12.56-2.15,.3-.62,.59-1.25,.89-1.87Z"></path><path class="cls-26" d="M479.72,353.82c0,.31,0,.62,0,.93,0,.28-.01,.55-.04,.82-2.32,2.07-4.84,3.72-8.11,3.71-.73-.03-1.42-.15-1.86-.83,.34-.76,1.43-.36,1.76-1.14l-.05,.03c1.32-.52,2.86-.22,4.06-1.15,1.34-.52,2.24-1.6,3.23-2.57l-.08,.05c.42-.38,.78-.34,1.09,.14Z"></path><path class="cls-55" d="M471.47,357.31c-.27,.86-1,1.02-1.76,1.14-3.15-.54-6.79,.37-8.98-3.03,3.44,1.42,7.05,1.87,10.73,1.89Z"></path><path class="cls-51" d="M456.26,350.88c1.5,1.55,3.01,3.1,4.51,4.65-2.74-.35-4.36-1.79-4.51-4.65Z"></path><path class="cls-51" d="M454.34,344.63c.66,2.12,1.32,4.25,1.99,6.37-2.6-1.52-2.03-4.03-1.99-6.37Z"></path><path class="cls-51" d="M454.33,339.28c.02,1.81,.04,3.62,.06,5.43-1.62-1.79-1.51-3.6-.06-5.43Z"></path><path class="cls-17" d="M356.01,332.04c-.21-.14-.24-.31-.1-.52-1.22-3.4-4.05-4.82-7.23-5.78v.1c-.2-.43-.75-.58-.82-1.09,3.13-2.16,5,.26,6.93,2.02,1.43,1.3,2.6,2.88,3.88,4.34,.21,.4,.51,.78,.62,1.21,1.97,7.53,1.7,7.88-6.02,7.88-7.27,0-14.54-.02-21.8-.03-.3-.57-.6-1.15-.9-1.72,7.33-1.09,14.69-.27,22.04-.46,5.54-.14,6.06-.93,3.4-5.94Z"></path><path class="cls-35" d="M356.01,332.04c2.29,1.08,2.2,3.17,1.69,5.02-.61,2.17-2.73,1.37-4.24,1.38-7.63,.06-15.26,.01-22.89,0,.02-.36,.04-.72,.06-1.08,7.1,.02,14.2,.04,21.3,.05q5.73,0,4.08-5.37Z"></path><path class="cls-54" d="M339.71,325.71c-4.28,1.74-6.96,5.1-9.14,8.96,.99-5.46,4.27-8.68,9.14-8.96Z"></path><path class="cls-50" d="M347.86,324.75c.27,.36,.54,.73,.81,1.09-2.98-.02-5.97-.03-8.95-.05,.28-.83,1-1.01,1.74-1.14,2.15-1.28,4.27-.39,6.4,.1Z"></path><path class="cls-39" d="M342.35,358.42c.95,0,1.9,.01,2.84,.02,.39,.71,1.08,.8,1.79,.85-2.14,1.32-4.29,1.29-6.44,0,.72-.06,1.41-.16,1.81-.87Z"></path><path class="cls-50" d="M340.52,322.84c2.49-1.22,4.97-1.15,7.44,.03-2.48-.01-4.96-.02-7.44-.03Z"></path><path class="cls-63" d="M484.23,356.56c-.31,2.43,.82,5.01-.8,7.3,.26-2.43-.92-5.02,.8-7.3Z"></path><path class="cls-27" d="M232.42,323.04c-.36-.05-.71-.09-1.07-.14,2.78-1.26,5.57-1.17,8.36-.05,0,0-.15,.22-.15,.22-2.39,1.63-4.77,1.46-7.15-.03Z"></path><path class="cls-23" d="M232.42,323.04c2.38,.01,4.77,.02,7.15,.03,1.8,.62,3.6,1.24,5.41,1.86,1.09,1.3,2.4,2.51,1.81,4.49,0,0-.13,.12-.13,.12-1.5,.2-2.52-.66-3.52-1.57-2.96-3-7.39-2.16-10.77-4.08,0-.28,.02-.56,.06-.84Z"></path><path class="cls-22" d="M451.97,209.99c-.21,3.1-1.68,5.16-4.94,5.26-3.44,.11-5.5-1.86-5.49-5.17,0-3.08,2.08-5.12,5.17-5.12,3.04,0,4.98,1.82,5.26,5.04Z"></path><path class="cls-27" d="M244.05,327.83c-4.21-2.47-8.77-2.5-13.41-1.95,.57-.67,1.15-1.33,1.72-2,4.37-.09,8.74-.16,11.69,3.95Z"></path><path class="cls-25" d="M228.72,355.68c4.86,1.8,9.71,1.71,14.54-.11-4.08,3.56-10.27,3.6-14.54,.11Z"></path><path class="cls-45" d="M222.49,334.81c-.96,4.51-1.23,9.01,0,13.52-2.79-3.75-2.79-10.59,0-13.52Z"></path><path class="cls-39" d="M230.69,325.79c-3.66,2.2-6.47,5.16-8.27,9.05,.72-5.13,3.72-8.41,8.27-9.05Z"></path><path class="cls-41" d="M247.45,350.95c2.97-6.25,3.13-12.52,.09-18.81,2.71,1.7,5,8.19,3.5,12.04-.9,2.3,.27,5.98-3.59,6.77Z"></path><path class="cls-58" d="M483.44,343.83c-.16,1.99,.09,4.14-2.03,5.4,1.57-6.53,1.98-12.94-2.11-18.84,3.83,1.84,3.98,5.38,4.16,8.91,.52,1.51,.55,3.02-.02,4.53Z"></path><path class="cls-63" d="M479.72,353.82c-.36-.05-.72-.09-1.09-.14,.94-1.5,1.88-3,2.82-4.5,.6,1.98-.93,3.18-1.73,4.64Z"></path><path class="cls-55" d="M476.07,356.54c-1.45,.84-2.98,1.21-4.64,.81,1.55-.58,3.09-1.17,4.64-1.75,.28,.21,.37,.42,.28,.63-.09,.21-.18,.32-.27,.32Z"></path><path class="cls-63" d="M476.07,356.54c0-.31,0-.63,0-.94,.76-.82,1.43-1.76,2.65-1.96-.34,1.46-1.4,2.27-2.64,2.91Z"></path><path class="cls-26" d="M483.44,343.83c0-1.51,.01-3.02,.02-4.53,1.19,1.51,1.2,3.02-.02,4.53Z"></path><path class="cls-51" d="M348.69,325.74c3.79,.2,6.59,1.64,7.23,5.78-2.01-2.42-4.42-4.35-7.23-5.78Z"></path></svg> 