<?xml version="1.0" encoding="UTF-8"?> <svg xmlns="http://www.w3.org/2000/svg" width="61" height="60" viewBox="0 0 61 60" fill="none"><path d="M9.16699 3C12.167 3 14.667 5.5 14.667 8.5C14.667 11.5 12.167 14 9.16699 14C6.16699 14 3.66699 11.5 3.66699 8.5C3.66699 5.5 6.16699 3 9.16699 3ZM53.667 57H7.66699C5.46699 57 3.66699 55.2 3.66699 53V49.8C5.36699 52.7 8.36699 52.8 11.567 50.5C15.067 48 16.367 46 19.667 43.9C23.167 41.8 25.567 42.5 29.667 44.1C36.167 46.7 38.967 48.3 43.467 47.7C51.467 46.6 56.467 35.2 57.667 25.2V53C57.667 55.2 55.867 57 53.667 57Z" fill="#CEDAFA"></path><path d="M12.667 52.6C12.067 52.6 11.667 52.2 11.667 51.6V47C11.667 46.4 12.067 46 12.667 46C13.267 46 13.667 46.4 13.667 47V51.6C13.667 52.2 13.267 52.6 12.667 52.6ZM25.667 51.7V38C25.667 37.4 25.267 37 24.667 37C24.067 37 23.667 37.4 23.667 38V51.7C23.667 52.3 24.067 52.7 24.667 52.7C25.267 52.7 25.667 52.3 25.667 51.7ZM37.667 51.8V42C37.667 41.4 37.267 41 36.667 41C36.067 41 35.667 41.4 35.667 42V51.8C35.667 52.4 36.067 52.8 36.667 52.8C37.267 52.8 37.667 52.4 37.667 51.8ZM49.667 51.9V36C49.667 35.4 49.267 35 48.667 35C48.067 35 47.667 35.4 47.667 36V51.9C47.667 52.5 48.067 52.9 48.667 52.9C49.267 52.9 49.667 52.4 49.667 51.9ZM58.667 53V7C58.667 4.2 56.467 2 53.667 2H24.167C23.567 2 23.167 2.4 23.167 3C23.167 3.6 23.567 4 24.167 4H53.667C55.367 4 56.667 5.3 56.667 7V53C56.667 54.7 55.367 56 53.667 56H7.66699C5.96699 56 4.66699 54.7 4.66699 53V23.5C4.66699 22.9 4.26699 22.5 3.66699 22.5C3.06699 22.5 2.66699 22.9 2.66699 23.5V53C2.66699 55.8 4.86699 58 7.66699 58H53.667C56.467 58 58.667 55.8 58.667 53ZM9.56699 43.3C10.767 39.4 14.467 34.3 19.267 32.1C22.167 30.8 25.067 30.7 27.767 31.9C33.467 34.5 35.967 35.5 40.367 34.9C47.467 33.8 52.567 26.2 53.667 15.1C53.767 14.6 53.367 14.1 52.767 14C52.167 13.9 51.767 14.3 51.667 14.9C50.667 25.1 46.167 32 39.967 32.9C36.267 33.5 34.067 32.6 28.567 30.1C25.367 28.6 21.867 28.7 18.467 30.3C12.767 32.8 8.86699 38.5 7.66699 42.7C7.46699 43.2 7.76699 43.8 8.36699 43.9C8.46699 43.9 8.56699 43.9 8.66699 43.9C8.96699 44 9.36699 43.7 9.56699 43.3ZM23.367 22.7C23.167 22.9 22.967 23 22.667 23C22.367 23 22.167 22.9 21.967 22.7L16.467 17.2C15.067 18.3 13.167 19 11.167 19C6.46699 19 2.66699 15.2 2.66699 10.5C2.66699 5.8 6.46699 2 11.167 2C15.867 2 19.667 5.8 19.667 10.5C19.667 12.5 18.967 14.3 17.867 15.8L23.367 21.3C23.767 21.7 23.767 22.3 23.367 22.7ZM11.167 17C14.767 17 17.667 14.1 17.667 10.5C17.667 6.9 14.767 4 11.167 4C7.56699 4 4.66699 6.9 4.66699 10.5C4.66699 14.1 7.56699 17 11.167 17Z" fill="#0B1736"></path></svg> 