<?xml version="1.0" encoding="UTF-8"?> <svg xmlns="http://www.w3.org/2000/svg" width="60" height="60" viewBox="0 0 60 60" fill="none"><path d="M48 21C52.97 21 57 16.97 57 12C57 7.03 52.97 3 48 3C43.03 3 39 7.03 39 12C39 16.97 43.03 21 48 21Z" fill="#C8FAA4"></path><path d="M45.2398 16.01C45.3098 16.08 45.3898 16.15 45.4698 16.22C45.8398 16.5 46.2798 16.65 46.7398 16.65C46.8398 16.65 46.9398 16.65 47.0398 16.63C47.5998 16.55 48.0998 16.26 48.4398 15.8L52.7998 9.99C53.1298 9.55 53.0398 8.92 52.5998 8.59C52.1598 8.26 51.5298 8.35 51.1998 8.79L46.8398 14.6C46.8398 14.6 46.7098 14.66 46.6498 14.61L44.3998 12.36C44.0098 11.97 43.3798 11.97 42.9898 12.36C42.5998 12.75 42.5998 13.38 42.9898 13.77L45.2298 16.01H45.2398Z" fill="#0B1736"></path><path d="M56.99 20C56.44 20 55.99 20.45 55.99 21V41H4.01V15C4 13.9 4.9 13 6 13H35.99C36.54 13 36.99 12.55 36.99 12C36.99 11.45 36.54 11 35.99 11H6C3.79 11 2 12.79 2 15V45C2.01 47.21 3.81 49 6.01 49H25.68C25.56 51.5 24.69 53.91 23.17 56H18C17.45 56 17 56.45 17 57C17 57.55 17.45 58 18 58H42C42.55 58 43 57.55 43 57C43 56.45 42.55 56 42 56H36.82C35.31 53.91 34.44 51.5 34.31 49H53.98C56.19 49 57.98 47.21 57.98 45V21C57.98 20.45 57.53 20 56.98 20H56.99ZM34.44 56H25.57C26.84 53.87 27.58 51.5 27.69 49.05C27.69 49.03 27.69 49.02 27.69 49H32.34C32.34 49 32.34 49.03 32.34 49.05C32.45 51.5 33.19 53.87 34.46 56H34.44ZM55.99 45C55.99 46.1 55.09 47 53.99 47H6.01C4.91 47 4.01 46.1 4.01 45V43H55.99V45V45Z" fill="#0B1736"></path><path d="M11.7197 22.98C11.1697 22.98 10.7197 23.43 10.7197 23.98V27.16C10.7197 29.99 11.5497 32.74 13.1297 35.1C13.3197 35.38 13.6297 35.55 13.9597 35.55C14.2897 35.55 14.6097 35.38 14.7897 35.1C15.3597 34.25 15.8297 33.34 16.1997 32.41C16.5697 33.35 17.0397 34.25 17.6097 35.1C17.7997 35.38 18.1097 35.55 18.4397 35.55C18.7697 35.55 19.0897 35.38 19.2697 35.1C20.8397 32.74 21.6697 30 21.6797 27.16V23.98C21.6797 23.43 21.2297 22.98 20.6797 22.98C20.1297 22.98 19.6797 23.43 19.6797 23.98V27.16C19.6797 29.04 19.2597 30.87 18.4397 32.54C17.6297 30.87 17.1997 29.04 17.1997 27.16V23.98C17.1997 23.43 16.7497 22.98 16.1997 22.98C15.6497 22.98 15.1997 23.43 15.1997 23.98V27.16C15.1997 29.04 14.7797 30.87 13.9597 32.54C13.1497 30.87 12.7197 29.04 12.7197 27.16V23.98C12.7197 23.43 12.2697 22.98 11.7197 22.98V22.98Z" fill="#0B1736"></path><path d="M25.5195 22.98C24.9695 22.98 24.5195 23.43 24.5195 23.98V27.16C24.5195 29.99 25.3495 32.74 26.9295 35.1C27.1195 35.38 27.4295 35.55 27.7595 35.55C28.0895 35.55 28.4095 35.38 28.5895 35.1C29.1595 34.25 29.6295 33.34 29.9995 32.41C30.3695 33.35 30.8395 34.25 31.4095 35.1C31.5995 35.38 31.9095 35.55 32.2395 35.55C32.5695 35.55 32.8895 35.38 33.0695 35.1C34.6395 32.74 35.4695 30 35.4795 27.16V23.98C35.4795 23.43 35.0295 22.98 34.4795 22.98C33.9295 22.98 33.4795 23.43 33.4795 23.98V27.15C33.4795 29.03 33.0495 30.86 32.2395 32.53C31.4295 30.86 30.9995 29.03 30.9995 27.15V23.97C30.9995 23.42 30.5495 22.97 29.9995 22.97C29.4495 22.97 28.9995 23.42 28.9995 23.97V27.15C28.9995 29.03 28.5795 30.86 27.7595 32.53C26.9495 30.86 26.5195 29.03 26.5195 27.15V23.97C26.5195 23.42 26.0695 22.97 25.5195 22.97V22.98Z" fill="#0B1736"></path><path d="M41.5603 35.54C41.8903 35.54 42.2103 35.37 42.3903 35.09C42.9603 34.24 43.4303 33.33 43.8003 32.4C44.1703 33.34 44.6403 34.24 45.2103 35.09C45.4003 35.37 45.7103 35.54 46.0403 35.54C46.3703 35.54 46.6903 35.37 46.8703 35.09C48.4403 32.73 49.2703 29.99 49.2803 27.15V23.97C49.2803 23.42 48.8303 22.97 48.2803 22.97C47.7303 22.97 47.2803 23.42 47.2803 23.97V27.14C47.2803 29.02 46.8503 30.85 46.0403 32.52C45.2303 30.85 44.8003 29.02 44.8003 27.14V23.96C44.8003 23.41 44.3503 22.96 43.8003 22.96C43.2503 22.96 42.8003 23.41 42.8003 23.96V27.14C42.8003 29.02 42.3803 30.85 41.5603 32.52C40.7503 30.85 40.3203 29.02 40.3203 27.14V23.96C40.3203 23.41 39.8703 22.96 39.3203 22.96C38.7703 22.96 38.3203 23.41 38.3203 23.96V27.14C38.3203 29.98 39.1503 32.72 40.7303 35.08C40.9203 35.36 41.2303 35.53 41.5603 35.53V35.54Z" fill="#0B1736"></path></svg> 