<?xml version="1.0" encoding="UTF-8"?> <svg xmlns="http://www.w3.org/2000/svg" width="61" height="60" viewBox="0 0 61 60" fill="none"><path d="M12.333 18C16.4751 18 19.833 14.6421 19.833 10.5C19.833 6.35786 16.4751 3 12.333 3C8.19087 3 4.83301 6.35786 4.83301 10.5C4.83301 14.6421 8.19087 18 12.333 18Z" fill="#CEDAFA"></path><path d="M48.333 57C52.4751 57 55.833 53.6421 55.833 49.5C55.833 45.3579 52.4751 42 48.333 42C44.1909 42 40.833 45.3579 40.833 49.5C40.833 53.6421 44.1909 57 48.333 57Z" fill="#FFD767"></path><path d="M58.0426 38.29C57.6526 37.9 57.0226 37.9 56.6326 38.29L49.3426 45.58V15C49.3426 9.49 44.8526 5 39.3426 5C33.8326 5 29.3426 9.49 29.3426 15V44.98C29.3426 49.39 25.7526 52.98 21.3426 52.98C16.9326 52.98 13.3426 49.39 13.3426 44.98V14.41L20.6326 21.7C20.8326 21.9 21.0826 21.99 21.3426 21.99C21.6026 21.99 21.8526 21.89 22.0526 21.7C22.4426 21.31 22.4426 20.68 22.0526 20.29L13.0426 11.29C12.9526 11.2 12.8426 11.12 12.7226 11.07C12.6026 11.02 12.4726 10.99 12.3426 10.99C12.2126 10.99 12.0826 11.02 11.9626 11.07C11.8426 11.12 11.7326 11.19 11.6426 11.29L2.62258 20.29C2.23258 20.68 2.23258 21.31 2.62258 21.7C3.01258 22.09 3.64258 22.09 4.03258 21.7L11.3226 14.41V44.97C11.3226 50.48 15.8126 54.97 21.3226 54.97C26.8326 54.97 31.3226 50.48 31.3226 44.97V15C31.3226 10.59 34.9126 7 39.3226 7C43.7326 7 47.3226 10.59 47.3226 15V45.59L40.0326 38.3C39.6426 37.91 39.0126 37.91 38.6226 38.3C38.2326 38.69 38.2326 39.32 38.6226 39.71L47.6226 48.71C47.6226 48.71 47.6526 48.73 47.6726 48.74C47.7526 48.81 47.8426 48.88 47.9426 48.92C48.0626 48.97 48.1926 49 48.3326 49C48.3326 49 48.3826 48.99 48.4026 48.99C48.5126 48.99 48.6126 48.97 48.7126 48.93C48.8326 48.88 48.9426 48.8 49.0426 48.71L58.0426 39.71C58.4326 39.32 58.4326 38.69 58.0426 38.3V38.29Z" fill="#0B1736"></path></svg> 