<?xml version="1.0" encoding="UTF-8"?> <svg xmlns="http://www.w3.org/2000/svg" height="52" viewBox="0 0 56 52" width="56"><g fill="none" fill-rule="evenodd" transform="translate(0 1)"><path d="m18.2295696 10.0037359 1.017361-6.60199644c.1503101-.5076667.66607-.81410506 1.1838357-.70337512l5.1590099 1.22634567 3.8515203-3.64863177c.3904464-.36810432 1.000155-.36810432 1.3906015 0l3.8515202 3.64863177 5.1610371-1.21621059c.5227298-.12328446 1.050883.18256719 1.2041069.69729408l1.5142555 5.08376026 5.0840067 1.51418214c.5205742.1533497.8279855.6895062.6973279 1.2162106l-1.2081611 5.1384898 3.6488087 3.8513335c.3681221.3904275.3681221 1.0001066 0 1.3905341l-3.6488087 3.8513336 1.2264052 5.1587599c.1245096.5233735-.181612 1.0528313-.6973279 1.2060755l-6.1542836 2.2980726-1.6663296-6.8418182 1.6663296-6.4402326-4.5985641-2.8957131-2.2288026-6.7168351c-4.5908683.54423-7.0768258.3099886-7.4578723-.7027243l-4.2951532-2.79102026-4.7008231 3.49374456z" fill="#c8faa4"></path><path d="m1.6767404 41.8200991 3.01090909 4.7436364c.26905856.4238972.14353703.9856488-.28036018 1.2547074-.42389722.2690586-.98564887.143537-1.25470743-.2803602l-3.01090909-4.7436364c-.26905856-.4238972-.14353703-.9856488.28036018-1.2547074.42389722-.2690585.98564887-.143537 1.25470743.2803602zm22.8834224-34.42752775 3.8865253 3.13676255 4.984398-.2481999c1.2191404-.0609507 2.3161054.7355717 2.6356413 1.9140991l1.3040623 4.8183995 4.1790698 2.7288068c1.0219987.6673045 1.4412075 1.9563716 1.0070975 3.0974662l-1.7767627 4.66549 1.7768571 4.6640377c.43422 1.1411923.015225 2.4307659-1.0082634 3.099735l-4.1787275 2.7200829-1.3102469 4.817822c-.3175275 1.1803272-1.4157976 1.978963-2.6358195 1.9172564l-4.9851301-.2482364-3.8867245 3.1301224c-.3910362.3149159-.9633235.2532081-1.2782394-.1378281-.3149159-.3910363-.2532081-.9633235.1378281-1.2782394l4.1563636-3.3472728c.1736756-.1398673.3927008-.2110224.6154182-.1999321l5.331618.2654901c.3652783.0184751.6939127-.2205.7895767-.5760934l1.4018182-5.1545455c.0585593-.2153252.1942688-.4015913.3812841-.5233263l4.4676579-2.9081562c.3068312-.2005505.4326176-.5876933.3023941-.9299396l-1.9-4.9872728c-.0794018-.2084203-.0794158-.438757-.0000392-.6471869l1.8998875-4.9887955c.1300777-.3419203.0044325-.7282793-.3018964-.9282939l-4.4690909-2.9181818c-.1867884-.1219672-.3222099-.308357-.3804888-.5236927l-1.3944371-5.1523272c-.0957387-.3531082-.424521-.5918418-.7901023-.5735647l-5.3309091.2654546c-.2230493.0111068-.442383-.0602772-.6161687-.2005373l-4.1560383-3.35428301c-.2850756-.22986432-.6918445-.22986432-.9765947-.00026244l-4.1563637 3.35454545c-.1740345.1404609-.3937381.2118413-.6170953.2004907l-5.3301631-.2708715c-.3654006-.0182682-.6941829.2204654-.7898133.5731736l-1.3945455 5.1527273c-.0582789.2153356-.19370036.4017255-.38048869.5236926l-4.4684471 2.9177611c-.30643133.2004604-.43216538.5870926-.30275572.9281489l1.90181818 4.9890909c.07950829.2085762.07950011.4391143-.00002298.6476849l-.81454545 2.1363636c-.1788699.4691343-.70418103.70444-1.17331526.5255701-.46913422-.1788699-.70443995-.704181-.52557005-1.1733153l.69107361-1.8125256-1.77886454-4.6665461c-.43271347-1.1403966-.01389304-2.4282694 1.00747423-3.0964243l4.17908538-2.7288169 1.30417061-4.8187996c.31942748-1.1781274 1.41639258-1.9746498 2.63627888-1.9136614l4.9840657.253283 3.886437-3.13669119c.9511401-.7669305 2.3083035-.7669305 3.2597689.00026244zm-6.2325153 13.29661545 11.4436363 18.029091c.2690604.4238961.1435411.9856482-.280355 1.2547085-.4238961.2690604-.9856482.1435411-1.2547085-.280355l-11.4436364-18.0290909c-.2690603-.4238961-.1435411-.9856482.280355-1.2547086.4238961-.2690603.9856483-.1435411 1.2547086.280355zm.6017923.9490503 10.24 16.130909c.3204844.504854.0746353 1.1762981-.4960747 1.3548415l-10.9068301 3.4125461c.9975598 2.1495032.3509338 4.7532391-1.6336024 6.1812629-1.0454732.7254625-2.3438821.9875827-3.5889161.7245232-1.2450341-.2630595-2.3264378-1.0280031-2.97492854-2.0918927l-1.21708796-1.8692833-4.76227128 1.4901165c-.39250656.1227935-.81856406-.033219-1.03896077-.3804436l-1.80727273-2.8472727c-.20681383-.3258255-.18537135-.746719.05348423-1.0498397l16.65090905-21.1309091c.387855-.492209 1.1457003-.4536189 1.4815513.0754419zm-2.9197546 21.4480141-5.8546852 1.8308926.9521277 1.4639986c.4018711.6588325 1.0576928 1.1227357 1.8127489 1.2822693.7550561.1595335 1.5424815.0005696 2.1637677-.4303829 1.3317712-.9584116 1.7143313-2.7630802.9260409-4.1467776zm2.0722878-19.3905003-15.4582041 19.6173016 1.08845347 1.714807 4.72891592-1.4799657c.00430773-.0014932.00862242-.0029523.01294369-.0043773l18.54498272-5.8008129z" fill="#000" fill-rule="nonzero"></path></g></svg> 