<?xml version="1.0" encoding="UTF-8"?> <svg xmlns="http://www.w3.org/2000/svg" height="52" viewBox="0 0 56 52" width="56"><g fill="none" fill-rule="evenodd" transform="translate(1 1)"><path d="m45.6521739 6.52173913v27.17391307l-.1354348-.0009131-1.3868488-3.3064283c-.2454046-.4674521-.7013016-.7735068-1.2097265-.8212698l-.139845-.0065495c-.5636399 0-1.0818574.3178716-1.3495715.8278193l-1.3890082 3.3064283-33.51999997.0009131v-27.17391307zm-24.1687979 16.54064277c-4.343427 0-8.1339389 1.945613-9.2071612 4.7258979h18.4143223c-1.0732223-2.7802849-4.8637342-4.7258979-9.2071611-4.7258979zm0-11.8147448c-3.1781092 0-5.7544757 2.6448207-5.7544757 5.9073724 0 3.2625516 2.5763665 5.9073724 5.7544757 5.9073724 3.1781091 0 5.7544757-2.6448208 5.7544757-5.9073724 0-3.2625517-2.5763666-5.9073724-5.7544757-5.9073724z" fill="#cedafa"></path><path d="m43.0635211 30.0713401 2.6470485 6.1495613h5.1513386c.5328419-.0201771 1.0210334.2966507 1.2203295.7919726s.0668398 1.0626232-.3311001 1.4180798l-4.4719467 3.9894632 2.4767705 5.7068617c.2228765.535214.0801907 1.1531667-.3546755 1.5360501-.4348661.3828834-1.0650855.445445-1.5665416.1555099l-5.9855287-3.3779522-5.9855286 3.3779522c-.5014561.2899351-1.1316755.2273735-1.5665417-.1555099-.4348661-.3828834-.577552-1.0008361-.3546754-1.5360501l2.4767705-5.7068617-4.4719467-3.9894632c-.3991893-.35403-.5332456-.9210617-.3349503-1.4167728.1982953-.4957112.6861808-.8132036 1.2190197-.7932796h5.1599385l2.6504884-6.1495613c.2401991-.4456942.7051553-.723514 1.2108656-.723514.5057102 0 .9706665.2778198 1.2108655.723514zm2.5886528-10.2114929v-15.81779034c0-2.23236636-1.7179212-4.04205686-3.8370844-4.04205686h-31.456266c-2.11916317 0-3.83708437 1.8096905-3.83708437 4.04205686v27.47968224m16.30434787 8.6829828h-11.5633247c-4.89854118.1750843-8.61093703-1.4645034-11.13718756-4.918763-.3260104-.4457896-.22892385-1.0714592.21685859-1.3974793.17132034-.125294.37806354-.1928274.59031164-.1928274h21.89334203m-1.6304348-10.8695652c3.3017023 0 5.9782608-2.6765586 5.9782608-5.9782609s-2.6765585-5.9782609-5.9782608-5.9782609-5.9782609 2.6765586-5.9782609 5.9782609 2.6765586 5.9782609 5.9782609 5.9782609zm9.2391304 4.347826c-1.0769487-2.5578621-4.8806221-4.347826-9.2391304-4.347826s-8.1621817 1.7899639-9.2391305 4.347826m14.152174-23.36956517h1.0434782" stroke="#252628" stroke-linecap="round" stroke-linejoin="round" stroke-width="2"></path></g></svg> 