<?xml version="1.0" encoding="UTF-8"?> <svg xmlns="http://www.w3.org/2000/svg" height="52" viewBox="0 0 56 52" width="56"><g fill="none" fill-rule="evenodd" transform="translate(2 1)"><path d="m47.2231336 22.4404297v25.8213035l-2.1992078 1.7382668h-42.65820314l-2.35935591-1.4328537-.00636675-2.855974c4.37431239.2341624 6.87431239.1148478 7.5-.3579437 5.2519531-3.9685601 6.2653275-10.6378966 9.9499512-10.6378966 6.4702148 0 7.1238862 5.5343011 13.1416015 5.5881738 4.0118103.0359151 9.5556706-5.9184436 16.6315809-17.8630761zm-41.7231336-21.4404297c2.48528137 0 4.5 2.01471863 4.5 4.5s-2.01471863 4.5-4.5 4.5-4.5-2.01471863-4.5-4.5 2.01471863-4.5 4.5-4.5z" fill="#cedafa"></path><path d="m7.5 14c3.5898509 0 6.5-2.9101491 6.5-6.5 0-3.58985087-2.9101491-6.5-6.5-6.5-3.58985087 0-6.5 2.91014913-6.5 6.5 0 3.5898509 2.91014913 6.5 6.5 6.5zm5.5-1 4.8190918 4.8190918m.1077375-17.8190918h5.9756097 19.102439c2.6509668 0 4.8 2.1490332 4.8 4.8v40.4c0 2.6509668-2.1490332 4.8-4.8 4.8h-38.204878c-2.6509668 0-4.8-2.1490332-4.8-4.8v-20.2-6.25m5 17.9757986c4.57589055-9.3015873 8.5993423-13.952381 12.0703553-13.952381 5.2065194 0 7.3202697 4.8302657 12.8749572 4.9350785 3.703125.0698752 7.9648437-5.2004698 12.7851562-15.8110352m-31.2304687 27.1025391v6.2373935m8-13.2373935v13.2104779m8-9.2938112v9.6509603m8-14.6264505v14.6148897" stroke="#252628" stroke-linecap="round" stroke-linejoin="round" stroke-width="2"></path></g></svg> 